<?xml version="1.0" encoding="utf-8"?>
<!-- Generator: Adobe Illustrator 16.0.4, SVG Export Plug-In . SVG Version: 6.00 Build 0)  -->
<!DOCTYPE svg PUBLIC "-//W3C//DTD SVG 1.1//EN" "http://www.w3.org/Graphics/SVG/1.1/DTD/svg11.dtd">
<svg version="1.1" id="Layer_1" xmlns="http://www.w3.org/2000/svg" xmlns:xlink="http://www.w3.org/1999/xlink" x="0px" y="0px"
	 width="8000px" height="1600px" viewBox="0 0 8000 1600" enable-background="new 0 0 8000 1600" xml:space="preserve">
<g>
	<path fill="#3399CC" d="M800,1550c-101.271,0-199.487-19.823-291.918-58.918c-89.304-37.772-169.517-91.857-238.412-160.752
		c-68.895-68.895-122.979-149.107-160.751-238.411C69.823,999.487,50,901.271,50,800c0-101.271,19.823-199.487,58.918-291.919
		c37.772-89.303,91.856-169.517,160.751-238.411c68.895-68.895,149.108-122.98,238.412-160.752C600.513,69.823,698.729,50,800,50
		s199.487,19.823,291.918,58.918c89.304,37.772,169.517,91.857,238.412,160.752c68.895,68.895,122.979,149.108,160.751,238.411
		C1530.177,600.513,1550,698.729,1550,800c0,101.271-19.823,199.487-58.918,291.918c-37.772,89.304-91.856,169.517-160.751,238.411
		c-68.895,68.895-149.108,122.979-238.412,160.752C999.487,1530.176,901.271,1550,800,1550z"/>
	<path fill="#3399CC" d="M800,100c94.544,0,186.206,18.494,272.441,54.968c41.457,17.535,81.449,39.243,118.866,64.521
		c37.088,25.056,71.967,53.834,103.668,85.536c31.701,31.701,60.479,66.58,85.536,103.667
		c25.278,37.418,46.986,77.41,64.521,118.866C1481.506,613.794,1500,705.457,1500,800s-18.494,186.206-54.968,272.441
		c-17.535,41.456-39.243,81.448-64.521,118.865c-25.056,37.088-53.835,71.967-85.536,103.668s-66.58,60.479-103.668,85.535
		c-37.417,25.279-77.409,46.987-118.866,64.521C986.206,1481.505,894.544,1500,800,1500s-186.206-18.494-272.441-54.969
		c-41.457-17.534-81.449-39.242-118.866-64.521c-37.088-25.056-71.967-53.834-103.668-85.535s-60.48-66.58-85.536-103.668
		c-25.278-37.417-46.986-77.409-64.521-118.865C118.494,986.206,100,894.543,100,800s18.494-186.206,54.969-272.441
		c17.534-41.456,39.242-81.448,64.521-118.866c25.057-37.087,53.835-71.966,85.536-103.667
		c31.701-31.702,66.58-60.479,103.668-85.536c37.417-25.279,77.409-46.987,118.866-64.521C613.794,118.494,705.456,100,800,100
		 M800,0C358.172,0,0,358.172,0,800c0,441.828,358.172,800,800,800s800-358.172,800-800C1600,358.172,1241.828,0,800,0L800,0z"/>
</g>
<g>
	<path fill="#3399CC" d="M2400,1550c-101.271,0-199.487-19.823-291.918-58.918c-89.304-37.772-169.517-91.857-238.412-160.752
		c-68.895-68.895-122.979-149.107-160.752-238.411C1669.823,999.487,1650,901.271,1650,800c0-101.271,19.823-199.487,58.918-291.919
		c37.772-89.303,91.857-169.517,160.752-238.411c68.895-68.895,149.108-122.98,238.412-160.752C2200.513,69.823,2298.729,50,2400,50
		s199.487,19.823,291.918,58.918c89.304,37.772,169.517,91.857,238.412,160.752c68.895,68.895,122.979,149.108,160.752,238.411
		C3130.177,600.513,3150,698.729,3150,800c0,101.271-19.823,199.487-58.918,291.918c-37.772,89.304-91.857,169.517-160.752,238.411
		c-68.895,68.895-149.108,122.979-238.412,160.752C2599.487,1530.176,2501.271,1550,2400,1550z"/>
	<path fill="#3399CC" d="M2400,100c94.543,0,186.206,18.494,272.441,54.968c41.457,17.535,81.449,39.243,118.866,64.521
		c37.087,25.056,71.966,53.834,103.668,85.536c31.701,31.701,60.479,66.58,85.535,103.667
		c25.279,37.417,46.987,77.41,64.521,118.866C3081.506,613.794,3100,705.457,3100,800s-18.494,186.206-54.968,272.441
		c-17.535,41.456-39.243,81.448-64.521,118.865c-25.056,37.088-53.834,71.967-85.535,103.668
		c-31.702,31.701-66.581,60.479-103.668,85.535c-37.417,25.279-77.41,46.987-118.866,64.521
		C2586.206,1481.505,2494.543,1500,2400,1500s-186.206-18.494-272.441-54.969c-41.457-17.534-81.449-39.242-118.866-64.521
		c-37.087-25.056-71.966-53.834-103.668-85.535c-31.701-31.701-60.479-66.58-85.536-103.668
		c-25.278-37.417-46.986-77.409-64.521-118.865C1718.494,986.206,1700,894.543,1700,800s18.494-186.206,54.968-272.441
		c17.535-41.456,39.243-81.449,64.521-118.866c25.056-37.087,53.834-71.966,85.536-103.667
		c31.702-31.702,66.581-60.479,103.668-85.536c37.417-25.279,77.41-46.987,118.866-64.521C2213.794,118.494,2305.457,100,2400,100
		 M2400,0c-441.828,0-800,358.172-800,800c0,441.828,358.172,800,800,800s800-358.172,800-800C3200,358.172,2841.828,0,2400,0
		L2400,0z"/>
</g>
<g>
	<path fill="#3399CC" d="M4000,1550c-101.271,0-199.487-19.823-291.918-58.918c-89.304-37.772-169.517-91.857-238.412-160.752
		c-68.895-68.895-122.979-149.107-160.752-238.411C3269.823,999.487,3250,901.271,3250,800c0-101.271,19.823-199.487,58.918-291.919
		c37.772-89.303,91.857-169.517,160.752-238.411c68.895-68.895,149.108-122.98,238.412-160.752C3800.513,69.823,3898.729,50,4000,50
		s199.487,19.823,291.919,58.918c89.303,37.772,169.517,91.857,238.411,160.752c68.895,68.895,122.979,149.108,160.752,238.411
		C4730.177,600.513,4750,698.729,4750,800c0,101.271-19.823,199.487-58.918,291.918c-37.772,89.304-91.857,169.517-160.752,238.411
		s-149.108,122.979-238.411,160.752C4199.487,1530.176,4101.271,1550,4000,1550z"/>
	<path fill="#3399CC" d="M4000,100c94.544,0,186.206,18.494,272.441,54.968c41.456,17.535,81.448,39.243,118.866,64.521
		c37.087,25.056,71.966,53.834,103.667,85.536c31.702,31.701,60.479,66.58,85.536,103.667
		c25.278,37.417,46.986,77.41,64.521,118.866C4681.506,613.794,4700,705.457,4700,800s-18.494,186.206-54.968,272.441
		c-17.535,41.456-39.243,81.448-64.521,118.865c-25.057,37.088-53.834,71.967-85.536,103.668
		c-31.701,31.701-66.58,60.479-103.667,85.535c-37.418,25.279-77.41,46.987-118.866,64.521
		C4186.206,1481.505,4094.544,1500,4000,1500c-94.543,0-186.206-18.494-272.441-54.969c-41.457-17.534-81.449-39.242-118.866-64.521
		c-37.087-25.056-71.966-53.834-103.668-85.535c-31.701-31.701-60.479-66.58-85.535-103.668
		c-25.279-37.417-46.987-77.409-64.521-118.865C3318.494,986.206,3300,894.543,3300,800s18.494-186.206,54.968-272.441
		c17.535-41.456,39.243-81.449,64.521-118.866c25.056-37.087,53.834-71.966,85.535-103.667
		c31.702-31.702,66.581-60.479,103.668-85.536c37.417-25.279,77.41-46.987,118.866-64.521C3813.794,118.494,3905.457,100,4000,100
		 M4000,0c-441.828,0-800,358.172-800,800c0,441.828,358.172,800,800,800s800-358.172,800-800C4800,358.172,4441.828,0,4000,0
		L4000,0z"/>
</g>
<g>
	<path fill="#3399CC" d="M5600,1550c-101.271,0-199.487-19.823-291.919-58.918c-89.303-37.772-169.517-91.857-238.411-160.752
		s-122.979-149.107-160.752-238.411C4869.823,999.487,4850,901.271,4850,800c0-101.271,19.823-199.487,58.918-291.919
		c37.772-89.303,91.857-169.517,160.752-238.411c68.895-68.895,149.108-122.98,238.411-160.752C5400.513,69.823,5498.729,50,5600,50
		s199.487,19.823,291.919,58.918c89.303,37.772,169.517,91.857,238.411,160.752c68.895,68.895,122.979,149.108,160.752,238.411
		C6330.177,600.513,6350,698.729,6350,800c0,101.271-19.823,199.487-58.918,291.918c-37.772,89.304-91.857,169.517-160.752,238.411
		s-149.108,122.979-238.411,160.752C5799.487,1530.176,5701.271,1550,5600,1550z"/>
	<path fill="#3399CC" d="M5600,100c94.544,0,186.206,18.494,272.441,54.968c41.456,17.535,81.448,39.243,118.866,64.521
		c37.087,25.056,71.966,53.834,103.667,85.536c31.701,31.701,60.48,66.58,85.536,103.667c25.278,37.417,46.986,77.41,64.521,118.866
		C6281.506,613.794,6300,705.457,6300,800s-18.494,186.206-54.969,272.441c-17.534,41.456-39.242,81.448-64.521,118.865
		c-25.056,37.088-53.835,71.967-85.536,103.668s-66.58,60.479-103.667,85.535c-37.418,25.279-77.41,46.987-118.866,64.521
		C5786.206,1481.505,5694.544,1500,5600,1500s-186.206-18.494-272.441-54.969c-41.456-17.534-81.448-39.242-118.866-64.521
		c-37.087-25.056-71.966-53.834-103.667-85.535c-31.702-31.701-60.48-66.58-85.536-103.668
		c-25.278-37.417-46.986-77.409-64.521-118.865C4918.494,986.206,4900,894.543,4900,800s18.494-186.206,54.968-272.441
		c17.535-41.456,39.243-81.449,64.521-118.866c25.056-37.087,53.834-71.966,85.536-103.667
		c31.701-31.702,66.58-60.479,103.667-85.536c37.418-25.279,77.41-46.987,118.866-64.521C5413.794,118.494,5505.456,100,5600,100
		 M5600,0c-441.828,0-800,358.172-800,800c0,441.828,358.172,800,800,800s800-358.172,800-800C6400,358.172,6041.828,0,5600,0
		L5600,0z"/>
</g>
<g>
	<path fill="#3399CC" d="M7200,1550c-101.271,0-199.487-19.823-291.919-58.918c-89.303-37.772-169.517-91.857-238.411-160.752
		s-122.979-149.107-160.752-238.411C6469.823,999.487,6450,901.271,6450,800c0-101.271,19.823-199.487,58.918-291.919
		c37.772-89.303,91.857-169.517,160.752-238.411c68.895-68.895,149.108-122.98,238.411-160.752C7000.513,69.823,7098.729,50,7200,50
		s199.487,19.823,291.919,58.918c89.303,37.772,169.517,91.857,238.411,160.752c68.895,68.895,122.979,149.108,160.752,238.411
		C7930.177,600.513,7950,698.729,7950,800c0,101.271-19.823,199.487-58.918,291.918c-37.772,89.304-91.857,169.517-160.752,238.411
		s-149.108,122.979-238.411,160.752C7399.487,1530.176,7301.271,1550,7200,1550z"/>
	<path fill="#3399CC" d="M7200,100c94.544,0,186.206,18.494,272.441,54.968c41.456,17.535,81.448,39.243,118.866,64.521
		c37.087,25.056,71.966,53.834,103.667,85.536c31.701,31.701,60.48,66.58,85.536,103.667c25.278,37.417,46.986,77.41,64.521,118.866
		C7881.506,613.794,7900,705.457,7900,800s-18.494,186.206-54.969,272.441c-17.534,41.456-39.242,81.448-64.521,118.865
		c-25.056,37.088-53.835,71.967-85.536,103.668s-66.58,60.479-103.667,85.535c-37.418,25.279-77.41,46.987-118.866,64.521
		C7386.206,1481.505,7294.544,1500,7200,1500s-186.206-18.494-272.441-54.969c-41.456-17.534-81.448-39.242-118.866-64.521
		c-37.087-25.056-71.966-53.834-103.667-85.535s-60.48-66.58-85.536-103.668c-25.278-37.417-46.986-77.409-64.521-118.865
		C6518.494,986.206,6500,894.543,6500,800s18.494-186.206,54.969-272.441c17.534-41.456,39.242-81.449,64.521-118.866
		c25.056-37.087,53.835-71.966,85.536-103.667c31.701-31.702,66.58-60.479,103.667-85.536
		c37.418-25.279,77.41-46.987,118.866-64.521C7013.794,118.494,7105.456,100,7200,100 M7200,0c-441.828,0-800,358.172-800,800
		c0,441.828,358.172,800,800,800s800-358.172,800-800C8000,358.172,7641.828,0,7200,0L7200,0z"/>
</g>
<polygon fill="none" points="564.886,1234.302 419.577,787.09 800.001,510.697 1180.423,787.09 1035.114,1234.302 "/>
<line fill="none" stroke="#3C99CD" stroke-width="9.700000e-05" stroke-miterlimit="10" x1="1113.45" y1="676.093" x2="1113.45" y2="676.093"/>
<g>
	<path fill="#FFFFFF" d="M564.886,1159.302c41.355,0,75,33.645,75,75s-33.645,75-75,75s-75-33.645-75-75
		S523.53,1159.302,564.886,1159.302 M564.886,1119.302c-63.513,0-115,51.486-115,115c0,63.512,51.487,115,115,115
		s115-51.488,115-115C679.886,1170.789,628.398,1119.302,564.886,1119.302L564.886,1119.302z"/>
</g>
<g>
	<path fill="#FFFFFF" d="M1035.114,1159.302c41.355,0,75,33.645,75,75s-33.645,75-75,75s-75-33.645-75-75
		S993.759,1159.302,1035.114,1159.302 M1035.114,1119.302c-63.513,0-115,51.486-115,115c0,63.512,51.487,115,115,115
		s115-51.488,115-115C1150.114,1170.789,1098.627,1119.302,1035.114,1119.302L1035.114,1119.302z"/>
</g>
<g>
	<path fill="#FFFFFF" d="M1180.423,748.34c21.367,0,38.75,17.383,38.75,38.75c0,21.366-17.383,38.749-38.75,38.749
		s-38.75-17.383-38.75-38.749C1141.673,765.724,1159.056,748.34,1180.423,748.34 M1180.423,718.34
		c-37.97,0-68.75,30.779-68.75,68.75c0,37.968,30.78,68.749,68.75,68.749s68.75-30.781,68.75-68.749
		C1249.173,749.12,1218.393,718.34,1180.423,718.34L1180.423,718.34z"/>
</g>
<g>
	<path fill="#FFFFFF" d="M419.577,748.34c21.367,0,38.75,17.383,38.75,38.75c0,21.366-17.383,38.749-38.75,38.749
		s-38.75-17.383-38.75-38.749C380.827,765.724,398.21,748.34,419.577,748.34 M419.577,718.34c-37.97,0-68.75,30.779-68.75,68.75
		c0,37.968,30.78,68.749,68.75,68.749s68.75-30.781,68.75-68.749C488.327,749.12,457.547,718.34,419.577,718.34L419.577,718.34z"/>
</g>
<g>
	<path fill="#FFFFFF" d="M800.001,320.697c50.751,0,98.465,19.763,134.351,55.649s55.649,83.6,55.649,134.351
		s-19.764,98.464-55.649,134.35c-35.886,35.886-83.599,55.649-134.351,55.649c-50.751,0-98.465-19.763-134.351-55.649
		c-35.886-35.886-55.649-83.599-55.649-134.35s19.764-98.464,55.649-134.351C701.537,340.46,749.25,320.697,800.001,320.697
		 M800.001,250.697c-143.594,0-260,116.405-260,260s116.406,259.999,260,259.999c143.595,0,260-116.404,260-259.999
		S943.596,250.697,800.001,250.697L800.001,250.697z"/>
</g>
<polygon fill="none" points="7462.866,1017.152 7390.212,793.546 7580.424,655.349 7770.635,793.546 7697.98,1017.152 "/>
<line fill="none" stroke="#3C99CD" stroke-width="4.850000e-05" stroke-miterlimit="10" x1="7737.148" y1="738.046" x2="7737.148" y2="738.046"/>
<g>
	<path fill="#FFFFFF" d="M7462.866,979.652c20.678,0,37.5,16.822,37.5,37.5s-16.822,37.5-37.5,37.5s-37.5-16.822-37.5-37.5
		S7442.188,979.652,7462.866,979.652 M7462.866,959.652c-31.757,0-57.5,25.744-57.5,57.5s25.743,57.5,57.5,57.5
		s57.5-25.744,57.5-57.5S7494.623,959.652,7462.866,959.652L7462.866,959.652z"/>
</g>
<g>
	<path fill="#FFFFFF" d="M7697.98,979.652c20.678,0,37.5,16.822,37.5,37.5s-16.822,37.5-37.5,37.5s-37.5-16.822-37.5-37.5
		S7677.303,979.652,7697.98,979.652 M7697.98,959.652c-31.756,0-57.5,25.744-57.5,57.5s25.744,57.5,57.5,57.5s57.5-25.744,57.5-57.5
		S7729.736,959.652,7697.98,959.652L7697.98,959.652z"/>
</g>
<g>
	<path fill="#FFFFFF" d="M7770.635,774.17c10.684,0,19.375,8.692,19.375,19.376s-8.691,19.375-19.375,19.375
		s-19.375-8.691-19.375-19.375S7759.951,774.17,7770.635,774.17 M7770.635,759.17c-18.984,0-34.375,15.39-34.375,34.376
		c0,18.985,15.391,34.375,34.375,34.375s34.375-15.391,34.375-34.375C7805.01,774.56,7789.619,759.17,7770.635,759.17
		L7770.635,759.17z"/>
</g>
<g>
	<path fill="#FFFFFF" d="M7390.212,774.17c10.684,0,19.375,8.692,19.375,19.376s-8.691,19.375-19.375,19.375
		s-19.375-8.691-19.375-19.375S7379.528,774.17,7390.212,774.17 M7390.212,759.17c-18.985,0-34.375,15.39-34.375,34.376
		c0,18.985,15.39,34.375,34.375,34.375s34.375-15.391,34.375-34.375C7424.587,774.56,7409.197,759.17,7390.212,759.17
		L7390.212,759.17z"/>
</g>
<g>
	<path fill="#FFFFFF" d="M7580.424,560.349c52.383,0,95,42.617,95,95s-42.617,95-95,95s-95-42.617-95-95
		S7528.041,560.349,7580.424,560.349 M7580.424,525.349c-71.797,0-130,58.202-130,130c0,71.797,58.203,130,130,130
		s130-58.203,130-130C7710.424,583.551,7652.221,525.349,7580.424,525.349L7580.424,525.349z"/>
</g>
<polygon fill="none" points="7082.443,1017.152 7009.789,793.546 7200.001,655.349 7390.212,793.546 7317.558,1017.152 "/>
<line fill="none" stroke="#3C99CD" stroke-width="4.850000e-05" stroke-miterlimit="10" x1="7356.726" y1="738.046" x2="7356.726" y2="738.046"/>
<g>
	<path fill="#FFFFFF" d="M7082.443,979.652c20.678,0,37.5,16.822,37.5,37.5s-16.822,37.5-37.5,37.5s-37.5-16.822-37.5-37.5
		S7061.766,979.652,7082.443,979.652 M7082.443,959.652c-31.756,0-57.5,25.744-57.5,57.5s25.744,57.5,57.5,57.5
		s57.5-25.744,57.5-57.5S7114.199,959.652,7082.443,959.652L7082.443,959.652z"/>
</g>
<g>
	<path fill="#FFFFFF" d="M7317.558,979.652c20.678,0,37.5,16.822,37.5,37.5s-16.822,37.5-37.5,37.5s-37.5-16.822-37.5-37.5
		S7296.88,979.652,7317.558,979.652 M7317.558,959.652c-31.757,0-57.5,25.744-57.5,57.5s25.743,57.5,57.5,57.5
		s57.5-25.744,57.5-57.5S7349.314,959.652,7317.558,959.652L7317.558,959.652z"/>
</g>
<g>
	<path fill="#FFFFFF" d="M7009.789,774.17c10.684,0,19.375,8.692,19.375,19.376s-8.691,19.375-19.375,19.375
		s-19.375-8.691-19.375-19.375S6999.105,774.17,7009.789,774.17 M7009.789,759.17c-18.984,0-34.375,15.39-34.375,34.376
		c0,18.985,15.391,34.375,34.375,34.375s34.375-15.391,34.375-34.375C7044.164,774.56,7028.773,759.17,7009.789,759.17
		L7009.789,759.17z"/>
</g>
<g>
	<path fill="#FFFFFF" d="M7200.001,560.349c52.383,0,95,42.617,95,95s-42.617,95-95,95s-95-42.617-95-95
		S7147.618,560.349,7200.001,560.349 M7200.001,525.349c-71.797,0-130,58.202-130,130c0,71.797,58.203,130,130,130
		c71.798,0,130-58.203,130-130C7330.001,583.551,7271.799,525.349,7200.001,525.349L7200.001,525.349z"/>
</g>
<polygon fill="none" points="6702.021,1017.152 6629.366,793.546 6819.578,655.349 7009.789,793.546 6937.135,1017.152 "/>
<line fill="none" stroke="#3C99CD" stroke-width="4.850000e-05" stroke-miterlimit="10" x1="6976.303" y1="738.046" x2="6976.303" y2="738.046"/>
<g>
	<path fill="#FFFFFF" d="M6702.021,979.652c20.678,0,37.5,16.822,37.5,37.5s-16.822,37.5-37.5,37.5s-37.5-16.822-37.5-37.5
		S6681.343,979.652,6702.021,979.652 M6702.021,959.652c-31.757,0-57.5,25.744-57.5,57.5s25.743,57.5,57.5,57.5
		s57.5-25.744,57.5-57.5S6733.777,959.652,6702.021,959.652L6702.021,959.652z"/>
</g>
<g>
	<path fill="#FFFFFF" d="M6937.135,979.652c20.678,0,37.5,16.822,37.5,37.5s-16.822,37.5-37.5,37.5s-37.5-16.822-37.5-37.5
		S6916.457,979.652,6937.135,979.652 M6937.135,959.652c-31.756,0-57.5,25.744-57.5,57.5s25.744,57.5,57.5,57.5
		s57.5-25.744,57.5-57.5S6968.891,959.652,6937.135,959.652L6937.135,959.652z"/>
</g>
<g>
	<path fill="#FFFFFF" d="M6629.366,774.17c10.684,0,19.375,8.692,19.375,19.376s-8.691,19.375-19.375,19.375
		s-19.375-8.691-19.375-19.375S6618.683,774.17,6629.366,774.17 M6629.366,759.17c-18.985,0-34.375,15.39-34.375,34.376
		c0,18.985,15.39,34.375,34.375,34.375s34.375-15.391,34.375-34.375C6663.741,774.56,6648.352,759.17,6629.366,759.17
		L6629.366,759.17z"/>
</g>
<g>
	<path fill="#FFFFFF" d="M6819.578,560.349c52.383,0,95,42.617,95,95s-42.617,95-95,95s-95-42.617-95-95
		S6767.195,560.349,6819.578,560.349 M6819.578,525.349c-71.797,0-130,58.202-130,130c0,71.797,58.203,130,130,130
		s130-58.203,130-130C6949.578,583.551,6891.375,525.349,6819.578,525.349L6819.578,525.349z"/>
</g>
<g>
	<path fill="#FFFFFF" d="M3751,293.719c41.355,0,75,33.645,75,75s-33.645,75-75,75s-75-33.645-75-75S3709.645,293.719,3751,293.719
		 M3751,253.719c-63.513,0-115,51.487-115,115s51.487,115,115,115s115-51.487,115-115S3814.513,253.719,3751,253.719L3751,253.719z"
		/>
</g>
<g>
	<path fill="#FFFFFF" d="M4249.002,293.719c41.355,0,75,33.645,75,75s-33.645,75-75,75s-75-33.645-75-75
		S4207.646,293.719,4249.002,293.719 M4249.002,253.719c-63.513,0-115,51.487-115,115s51.487,115,115,115s115-51.487,115-115
		S4312.515,253.719,4249.002,253.719L4249.002,253.719z"/>
</g>
<g>
	<path fill="#FFFFFF" d="M3875.5,509.359c41.355,0,75,33.645,75,75s-33.645,75-75,75s-75-33.645-75-75
		S3834.145,509.359,3875.5,509.359 M3875.5,469.359c-63.513,0-115,51.487-115,115s51.487,115,115,115s115-51.487,115-115
		S3939.013,469.359,3875.5,469.359L3875.5,469.359z"/>
</g>
<g>
	<path fill="#FFFFFF" d="M4124.501,509.359c41.355,0,75,33.645,75,75s-33.645,75-75,75s-75-33.645-75-75
		S4083.146,509.359,4124.501,509.359 M4124.501,469.359c-63.513,0-115,51.487-115,115s51.487,115,115,115s115-51.487,115-115
		S4188.014,469.359,4124.501,469.359L4124.501,469.359z"/>
</g>
<g>
	<path fill="#FFFFFF" d="M4000,725c41.355,0,75,33.645,75,75s-33.645,75-75,75c-41.355,0-75-33.645-75-75S3958.645,725,4000,725
		 M4000,685c-63.513,0-115,51.487-115,115c0,63.513,51.487,115,115,115s115-51.486,115-115C4115,736.487,4063.513,685,4000,685
		L4000,685z"/>
</g>
<g>
	<path fill="#FFFFFF" d="M3875.499,940.64c41.355,0,75,33.645,75,75s-33.645,75-75,75s-75-33.645-75-75
		S3834.144,940.64,3875.499,940.64 M3875.499,900.64c-63.513,0-115,51.488-115,115c0,63.514,51.487,115,115,115s115-51.486,115-115
		C3990.499,952.128,3939.012,900.64,3875.499,900.64L3875.499,900.64z"/>
</g>
<g>
	<path fill="#FFFFFF" d="M4124.5,940.64c41.355,0,75,33.645,75,75s-33.645,75-75,75s-75-33.645-75-75S4083.145,940.64,4124.5,940.64
		 M4124.5,900.64c-63.513,0-115,51.488-115,115c0,63.514,51.487,115,115,115s115-51.486,115-115
		C4239.5,952.128,4188.013,900.64,4124.5,900.64L4124.5,900.64z"/>
</g>
<g>
	<path fill="#FFFFFF" d="M3750.998,1156.281c41.355,0,75,33.645,75,75s-33.645,75-75,75s-75-33.645-75-75
		S3709.643,1156.281,3750.998,1156.281 M3750.998,1116.281c-63.513,0-115,51.488-115,115c0,63.514,51.487,115,115,115
		s115-51.486,115-115C3865.998,1167.769,3814.511,1116.281,3750.998,1116.281L3750.998,1116.281z"/>
</g>
<g>
	<path fill="#FFFFFF" d="M4249,1156.281c41.355,0,75,33.645,75,75s-33.645,75-75,75s-75-33.645-75-75
		S4207.645,1156.281,4249,1156.281 M4249,1116.281c-63.513,0-115,51.488-115,115c0,63.514,51.487,115,115,115s115-51.486,115-115
		C4364,1167.769,4312.513,1116.281,4249,1116.281L4249,1116.281z"/>
</g>
<g>
	<path fill="#FFFFFF" d="M5475.501,293.719c41.355,0,75,33.645,75,75s-33.645,75-75,75s-75-33.645-75-75
		S5434.146,293.719,5475.501,293.719 M5475.501,253.719c-63.513,0-115,51.487-115,115s51.487,115,115,115s115-51.487,115-115
		S5539.014,253.719,5475.501,253.719L5475.501,253.719z"/>
</g>
<g>
	<path fill="#FFFFFF" d="M5351,509.359c41.355,0,75,33.645,75,75s-33.645,75-75,75s-75-33.645-75-75S5309.645,509.359,5351,509.359
		 M5351,469.359c-63.513,0-115,51.487-115,115s51.487,115,115,115s115-51.487,115-115S5414.513,469.359,5351,469.359L5351,469.359z"
		/>
</g>
<g>
	<path fill="#FFFFFF" d="M5226.499,725c41.355,0,75,33.645,75,75s-33.645,75-75,75s-75-33.645-75-75S5185.144,725,5226.499,725
		 M5226.499,685c-63.513,0-115,51.487-115,115c0,63.513,51.487,115,115,115s115-51.486,115-115
		C5341.499,736.487,5290.012,685,5226.499,685L5226.499,685z"/>
</g>
<g>
	<path fill="#FFFFFF" d="M5475.5,725c41.355,0,75,33.645,75,75s-33.645,75-75,75s-75-33.645-75-75S5434.145,725,5475.5,725
		 M5475.5,685c-63.513,0-115,51.487-115,115c0,63.513,51.487,115,115,115s115-51.486,115-115
		C5590.5,736.487,5539.013,685,5475.5,685L5475.5,685z"/>
</g>
<g>
	<path fill="#FFFFFF" d="M5724.501,725c41.355,0,75,33.645,75,75s-33.645,75-75,75s-75-33.645-75-75S5683.146,725,5724.501,725
		 M5724.501,685c-63.513,0-115,51.487-115,115c0,63.513,51.487,115,115,115s115-51.486,115-115
		C5839.501,736.487,5788.014,685,5724.501,685L5724.501,685z"/>
</g>
<g>
	<path fill="#FFFFFF" d="M5973.502,725c41.355,0,75,33.645,75,75s-33.645,75-75,75s-75-33.645-75-75S5932.146,725,5973.502,725
		 M5973.502,685c-63.513,0-115,51.487-115,115c0,63.513,51.487,115,115,115s115-51.486,115-115
		C6088.502,736.487,6037.015,685,5973.502,685L5973.502,685z"/>
</g>
<g>
	<path fill="#FFFFFF" d="M5350.999,940.64c41.355,0,75,33.645,75,75s-33.645,75-75,75s-75-33.645-75-75
		S5309.644,940.64,5350.999,940.64 M5350.999,900.64c-63.513,0-115,51.488-115,115c0,63.514,51.487,115,115,115s115-51.486,115-115
		C5465.999,952.128,5414.512,900.64,5350.999,900.64L5350.999,900.64z"/>
</g>
<g>
	<path fill="#FFFFFF" d="M5475.499,1156.281c41.355,0,75,33.645,75,75s-33.645,75-75,75s-75-33.645-75-75
		S5434.144,1156.281,5475.499,1156.281 M5475.499,1116.281c-63.513,0-115,51.488-115,115c0,63.514,51.487,115,115,115
		s115-51.486,115-115C5590.499,1167.769,5539.012,1116.281,5475.499,1116.281L5475.499,1116.281z"/>
</g>
<g>
	<path fill="#FFFFFF" d="M2524.501,293.719c41.355,0,75,33.645,75,75s-33.645,75-75,75s-75-33.645-75-75
		S2483.146,293.719,2524.501,293.719 M2524.501,253.719c-63.513,0-115,51.487-115,115s51.487,115,115,115s115-51.487,115-115
		S2588.014,253.719,2524.501,253.719L2524.501,253.719z"/>
</g>
<g>
	<path fill="#FFFFFF" d="M2649.001,509.359c41.355,0,75,33.645,75,75s-33.645,75-75,75s-75-33.645-75-75
		S2607.646,509.359,2649.001,509.359 M2649.001,469.359c-63.513,0-115,51.487-115,115s51.487,115,115,115s115-51.487,115-115
		S2712.514,469.359,2649.001,469.359L2649.001,469.359z"/>
</g>
<g>
	<path fill="#FFFFFF" d="M2026.499,725c41.355,0,75,33.645,75,75s-33.645,75-75,75s-75-33.645-75-75S1985.144,725,2026.499,725
		 M2026.499,685c-63.513,0-115,51.487-115,115c0,63.513,51.487,115,115,115s115-51.486,115-115
		C2141.499,736.487,2090.011,685,2026.499,685L2026.499,685z"/>
</g>
<g>
	<path fill="#FFFFFF" d="M2275.5,725c41.355,0,75,33.645,75,75s-33.645,75-75,75s-75-33.645-75-75S2234.145,725,2275.5,725
		 M2275.5,685c-63.513,0-115,51.487-115,115c0,63.513,51.487,115,115,115s115-51.486,115-115
		C2390.5,736.487,2339.012,685,2275.5,685L2275.5,685z"/>
</g>
<g>
	<path fill="#FFFFFF" d="M2524.5,725c41.355,0,75,33.645,75,75s-33.645,75-75,75s-75-33.645-75-75S2483.146,725,2524.5,725
		 M2524.5,685c-63.513,0-115,51.487-115,115c0,63.513,51.487,115,115,115s115-51.486,115-115
		C2639.5,736.487,2588.013,685,2524.5,685L2524.5,685z"/>
</g>
<g>
	<path fill="#FFFFFF" d="M2773.501,725c41.355,0,75,33.645,75,75s-33.645,75-75,75s-75-33.645-75-75S2732.146,725,2773.501,725
		 M2773.501,685c-63.513,0-115,51.487-115,115c0,63.513,51.487,115,115,115s115-51.486,115-115
		C2888.501,736.487,2837.014,685,2773.501,685L2773.501,685z"/>
</g>
<g>
	<path fill="#FFFFFF" d="M2649,940.64c41.355,0,75,33.645,75,75s-33.645,75-75,75s-75-33.645-75-75S2607.646,940.64,2649,940.64
		 M2649,900.64c-63.513,0-115,51.488-115,115c0,63.514,51.487,115,115,115s115-51.486,115-115
		C2764,952.128,2712.513,900.64,2649,900.64L2649,900.64z"/>
</g>
<g>
	<path fill="#FFFFFF" d="M2524.5,1156.281c41.355,0,75,33.645,75,75s-33.645,75-75,75s-75-33.645-75-75
		S2483.145,1156.281,2524.5,1156.281 M2524.5,1116.281c-63.513,0-115,51.488-115,115c0,63.514,51.487,115,115,115
		s115-51.486,115-115C2639.5,1167.769,2588.012,1116.281,2524.5,1116.281L2524.5,1116.281z"/>
</g>
</svg>
