<?xml version="1.0" encoding="utf-8"?>
<!-- Generator: Adobe Illustrator 16.0.4, SVG Export Plug-In . SVG Version: 6.00 Build 0)  -->
<!DOCTYPE svg PUBLIC "-//W3C//DTD SVG 1.1//EN" "http://www.w3.org/Graphics/SVG/1.1/DTD/svg11.dtd">
<svg version="1.1" id="Layer_1" xmlns="http://www.w3.org/2000/svg" xmlns:xlink="http://www.w3.org/1999/xlink" x="0px" y="0px"
	 width="1600px" height="1600px" viewBox="0 0 1600 1600" enable-background="new 0 0 1600 1600" xml:space="preserve">
<g>
	<path fill="#3399CC" d="M800,100c94.544,0,186.206,18.494,272.441,54.969c41.456,17.535,81.448,39.242,118.866,64.521
		c37.087,25.056,71.966,53.834,103.667,85.536c31.702,31.701,60.479,66.58,85.536,103.668
		c25.278,37.417,46.986,77.409,64.521,118.866C1481.506,613.794,1500,705.457,1500,800c0,94.544-18.494,186.206-54.968,272.441
		c-17.535,41.456-39.243,81.448-64.521,118.866c-25.057,37.087-53.834,71.966-85.536,103.667
		c-31.701,31.702-66.58,60.479-103.667,85.536c-37.418,25.278-77.41,46.986-118.866,64.521C986.206,1481.506,894.544,1500,800,1500
		c-94.543,0-186.206-18.494-272.441-54.968c-41.457-17.535-81.449-39.243-118.866-64.521
		c-37.088-25.057-71.967-53.834-103.668-85.536c-31.701-31.701-60.479-66.58-85.536-103.667
		c-25.279-37.418-46.987-77.41-64.521-118.866C118.494,986.206,100,894.544,100,800c0-94.543,18.494-186.206,54.969-272.441
		c17.534-41.457,39.242-81.449,64.521-118.866c25.056-37.088,53.834-71.967,85.536-103.668s66.58-60.479,103.668-85.536
		c37.417-25.279,77.409-46.986,118.866-64.521C613.794,118.494,705.457,100,800,100 M800,0C358.172,0,0,358.172,0,800
		c0,441.828,358.172,800,800,800c441.828,0,800-358.172,800-800C1600,358.172,1241.828,0,800,0L800,0z"/>
</g>
<polygon fill="none" points="564.886,1234.303 419.577,787.091 800.001,510.696 1180.422,787.091 1035.113,1234.303 "/>
<line fill="none" stroke="#3C99CD" stroke-width="9.700000e-05" stroke-miterlimit="10" x1="1113.449" y1="676.093" x2="1113.449" y2="676.093"/>
<g>
	<path fill="#3399CC" d="M564.886,1159.303c41.355,0,75,33.645,75,75s-33.645,75-75,75s-75-33.645-75-75
		S523.531,1159.303,564.886,1159.303 M564.886,1119.303c-63.513,0-115,51.486-115,115c0,63.512,51.487,115,115,115
		s115-51.488,115-115C679.886,1170.789,628.398,1119.303,564.886,1119.303L564.886,1119.303z"/>
</g>
<g>
	<path fill="#3399CC" d="M1035.113,1159.303c41.355,0,75,33.645,75,75s-33.645,75-75,75s-75-33.645-75-75
		S993.758,1159.303,1035.113,1159.303 M1035.113,1119.303c-63.512,0-115,51.486-115,115c0,63.512,51.488,115,115,115
		c63.514,0,115-51.488,115-115C1150.113,1170.789,1098.627,1119.303,1035.113,1119.303L1035.113,1119.303z"/>
</g>
<g>
	<path fill="#3399CC" d="M1180.422,738.341c26.881,0,48.75,21.869,48.75,48.75c0,26.88-21.869,48.749-48.75,48.749
		s-48.75-21.869-48.75-48.749C1131.672,760.21,1153.541,738.341,1180.422,738.341 M1180.422,718.341
		c-37.969,0-68.75,30.779-68.75,68.75c0,37.968,30.781,68.749,68.75,68.749c37.971,0,68.75-30.781,68.75-68.749
		C1249.172,749.12,1218.393,718.341,1180.422,718.341L1180.422,718.341z"/>
</g>
<g>
	<path fill="#3399CC" d="M419.577,738.341c26.881,0,48.75,21.869,48.75,48.75c0,26.88-21.869,48.749-48.75,48.749
		s-48.75-21.869-48.75-48.749C370.827,760.21,392.696,738.341,419.577,738.341 M419.577,718.341c-37.97,0-68.75,30.779-68.75,68.75
		c0,37.968,30.78,68.749,68.75,68.749s68.75-30.781,68.75-68.749C488.327,749.12,457.547,718.341,419.577,718.341L419.577,718.341z"
		/>
</g>
<g>
	<path fill="#3399CC" d="M800.001,320.696c50.751,0,98.464,19.763,134.351,55.648C970.236,412.231,990,459.944,990,510.696
		c0,50.751-19.764,98.465-55.648,134.351c-35.887,35.886-83.6,55.649-134.351,55.649c-50.751,0-98.464-19.764-134.351-55.649
		s-55.649-83.6-55.649-134.351c0-50.752,19.763-98.465,55.649-134.351S749.25,320.696,800.001,320.696 M800.001,250.696
		c-143.595,0-260,116.406-260,260c0,143.596,116.405,260,260,260S1060,654.292,1060,510.696
		C1060,367.103,943.596,250.696,800.001,250.696L800.001,250.696z"/>
</g>
</svg>
