<?xml version="1.0" encoding="utf-8"?>
<!-- Generator: Adobe Illustrator 16.0.4, SVG Export Plug-In . SVG Version: 6.00 Build 0)  -->
<!DOCTYPE svg PUBLIC "-//W3C//DTD SVG 1.1//EN" "http://www.w3.org/Graphics/SVG/1.1/DTD/svg11.dtd">
<svg version="1.1" id="Layer_1" xmlns="http://www.w3.org/2000/svg" xmlns:xlink="http://www.w3.org/1999/xlink" x="0px" y="0px"
	 width="1600px" height="1600px" viewBox="0 0 1600 1600" enable-background="new 0 0 1600 1600" xml:space="preserve">
<g>
	<path fill="#3399CC" d="M800,1550c-101.271,0-199.487-19.823-291.918-58.918c-89.304-37.772-169.517-91.857-238.412-160.752
		c-68.895-68.895-122.979-149.108-160.751-238.411C69.823,999.487,50,901.271,50,800s19.823-199.487,58.918-291.918
		c37.772-89.304,91.856-169.517,160.751-238.412c68.895-68.895,149.108-122.979,238.412-160.752C600.513,69.823,698.729,50,800,50
		s199.487,19.823,291.919,58.918c89.303,37.772,169.517,91.857,238.411,160.752c68.895,68.895,122.979,149.108,160.752,238.412
		C1530.177,600.513,1550,698.729,1550,800s-19.823,199.487-58.918,291.919c-37.772,89.303-91.857,169.517-160.752,238.411
		s-149.108,122.979-238.411,160.752C999.487,1530.177,901.271,1550,800,1550z"/>
	<path fill="#3399CC" d="M800,100c94.544,0,186.206,18.494,272.441,54.968c41.456,17.535,81.448,39.243,118.866,64.521
		c37.087,25.056,71.966,53.834,103.667,85.535c31.702,31.702,60.479,66.581,85.536,103.668
		c25.278,37.417,46.986,77.41,64.521,118.866C1481.506,613.794,1500,705.457,1500,800c0,94.544-18.494,186.206-54.968,272.441
		c-17.535,41.456-39.243,81.448-64.521,118.866c-25.057,37.087-53.834,71.966-85.536,103.667
		c-31.701,31.702-66.58,60.479-103.667,85.536c-37.418,25.278-77.41,46.986-118.866,64.521C986.206,1481.506,894.544,1500,800,1500
		c-94.543,0-186.206-18.494-272.441-54.968c-41.457-17.535-81.449-39.243-118.866-64.521
		c-37.088-25.057-71.967-53.834-103.668-85.536c-31.701-31.701-60.479-66.58-85.536-103.667
		c-25.279-37.418-46.987-77.41-64.521-118.866C118.494,986.206,100,894.544,100,800c0-94.543,18.494-186.206,54.969-272.441
		c17.534-41.457,39.242-81.449,64.521-118.866c25.056-37.087,53.834-71.966,85.536-103.668
		c31.701-31.701,66.58-60.479,103.668-85.535c37.417-25.279,77.409-46.987,118.866-64.521C613.794,118.494,705.457,100,800,100
		 M800,0C358.172,0,0,358.172,0,800s358.172,800,800,800c441.828,0,800-358.172,800-800S1241.828,0,800,0L800,0z"/>
</g>
<polygon fill="none" points="564.886,1234.303 419.577,787.09 800.001,510.697 1180.423,787.09 1035.114,1234.303 "/>
<line fill="none" stroke="#3C99CD" stroke-width="9.700000e-05" stroke-miterlimit="10" x1="1113.45" y1="676.093" x2="1113.45" y2="676.093"/>
<g>
	<path fill="#FFFFFF" d="M564.886,1159.303c41.355,0,75,33.645,75,75s-33.645,75-75,75s-75-33.645-75-75
		S523.531,1159.303,564.886,1159.303 M564.886,1119.303c-63.513,0-115,51.486-115,115c0,63.512,51.487,115,115,115
		s115-51.488,115-115C679.886,1170.789,628.398,1119.303,564.886,1119.303L564.886,1119.303z"/>
</g>
<g>
	<path fill="#FFFFFF" d="M1035.114,1159.303c41.355,0,75,33.645,75,75s-33.645,75-75,75s-75-33.645-75-75
		S993.759,1159.303,1035.114,1159.303 M1035.114,1119.303c-63.513,0-115,51.486-115,115c0,63.512,51.487,115,115,115
		s115-51.488,115-115C1150.114,1170.789,1098.627,1119.303,1035.114,1119.303L1035.114,1119.303z"/>
</g>
<g>
	<path fill="#FFFFFF" d="M1180.423,748.34c21.367,0,38.75,17.383,38.75,38.75s-17.383,38.75-38.75,38.75s-38.75-17.383-38.75-38.75
		S1159.056,748.34,1180.423,748.34 M1180.423,718.34c-37.97,0-68.75,30.779-68.75,68.75c0,37.968,30.78,68.75,68.75,68.75
		s68.75-30.781,68.75-68.75C1249.173,749.12,1218.393,718.34,1180.423,718.34L1180.423,718.34z"/>
</g>
<g>
	<path fill="#FFFFFF" d="M419.577,748.34c21.367,0,38.75,17.383,38.75,38.75s-17.383,38.75-38.75,38.75s-38.75-17.383-38.75-38.75
		S398.21,748.34,419.577,748.34 M419.577,718.34c-37.97,0-68.75,30.779-68.75,68.75c0,37.968,30.78,68.75,68.75,68.75
		s68.75-30.781,68.75-68.75C488.327,749.12,457.547,718.34,419.577,718.34L419.577,718.34z"/>
</g>
<g>
	<path fill="#FFFFFF" d="M800.001,320.697c50.751,0,98.465,19.763,134.351,55.649s55.649,83.6,55.649,134.351
		s-19.764,98.464-55.649,134.35c-35.886,35.886-83.6,55.649-134.351,55.649s-98.464-19.763-134.351-55.649
		c-35.886-35.886-55.649-83.599-55.649-134.35s19.763-98.464,55.649-134.351S749.25,320.697,800.001,320.697 M800.001,250.697
		c-143.594,0-260,116.405-260,260s116.406,259.999,260,259.999c143.595,0,260-116.404,260-259.999S943.596,250.697,800.001,250.697
		L800.001,250.697z"/>
</g>
</svg>
