<?xml version="1.0" encoding="utf-8"?>
<!-- Generator: Adobe Illustrator 16.0.4, SVG Export Plug-In . SVG Version: 6.00 Build 0)  -->
<!DOCTYPE svg PUBLIC "-//W3C//DTD SVG 1.1//EN" "http://www.w3.org/Graphics/SVG/1.1/DTD/svg11.dtd">
<svg version="1.1" id="Layer_1" xmlns="http://www.w3.org/2000/svg" xmlns:xlink="http://www.w3.org/1999/xlink" x="0px" y="0px"
	 width="1600px" height="1600px" viewBox="0 0 1600 1600" enable-background="new 0 0 1600 1600" xml:space="preserve">
<g>
	<path fill="#FFFFFF" d="M800,1550c-101.271,0-199.487-19.823-291.919-58.918c-89.304-37.771-169.517-91.857-238.411-160.752
		c-68.896-68.895-122.979-149.107-160.751-238.411C69.822,999.487,50,901.271,50,800s19.822-199.487,58.918-291.919
		c37.771-89.303,91.855-169.517,160.751-238.411c68.895-68.895,149.107-122.98,238.411-160.752C600.513,69.823,698.729,50,800,50
		c101.271,0,199.486,19.823,291.918,58.918c89.304,37.772,169.517,91.857,238.411,160.752
		c68.896,68.895,122.979,149.108,160.751,238.411C1530.177,600.513,1550,698.729,1550,800s-19.823,199.487-58.918,291.918
		c-37.772,89.304-91.856,169.517-160.752,238.411c-68.895,68.895-149.107,122.979-238.411,160.752
		C999.486,1530.176,901.271,1550,800,1550z"/>
	<path fill="#3499CD" d="M800,100c94.544,0,186.205,18.494,272.44,54.968c41.457,17.535,81.449,39.243,118.866,64.521
		c37.088,25.056,71.967,53.834,103.668,85.536c31.701,31.701,60.479,66.58,85.536,103.667
		c25.277,37.418,46.985,77.409,64.521,118.865C1481.506,613.794,1500,705.457,1500,800s-18.494,186.206-54.969,272.441
		c-17.535,41.456-39.243,81.447-64.521,118.864c-25.057,37.089-53.835,71.968-85.536,103.668
		c-31.701,31.701-66.58,60.479-103.668,85.535c-37.417,25.279-77.409,46.987-118.866,64.521C986.205,1481.505,894.544,1500,800,1500
		c-94.545,0-186.206-18.494-272.441-54.969c-41.457-17.534-81.449-39.242-118.866-64.521
		c-37.088-25.056-71.967-53.834-103.668-85.535s-60.479-66.58-85.536-103.668c-25.277-37.417-46.985-77.408-64.521-118.864
		C118.494,986.206,100,894.543,100,800s18.494-186.206,54.969-272.441c17.534-41.456,39.242-81.447,64.521-118.865
		c25.058-37.087,53.836-71.966,85.536-103.667c31.701-31.702,66.58-60.479,103.668-85.536
		c37.417-25.279,77.409-46.987,118.866-64.521C613.794,118.494,705.455,100,800,100 M800,0C358.172,0,0,358.172,0,800
		s358.172,800,800,800c441.827,0,800-358.172,800-800S1241.827,0,800,0L800,0z"/>
</g>
<polygon fill="none" points="564.886,1234.302 419.576,787.09 800,510.697 1180.423,787.09 1035.113,1234.302 "/>
<line fill="none" stroke="#3C99CD" stroke-width="9.700000e-05" stroke-miterlimit="10" x1="1113.449" y1="676.093" x2="1113.449" y2="676.093"/>
<g>
	<path fill="#3499CD" d="M564.886,1159.302c41.354,0,75,33.646,75,75c0,41.355-33.646,75-75,75c-41.355,0-75-33.645-75-75
		C489.886,1192.947,523.529,1159.302,564.886,1159.302 M564.886,1119.302c-63.514,0-115,51.486-115,115c0,63.513,51.486,115,115,115
		c63.513,0,115-51.487,115-115S628.397,1119.302,564.886,1119.302L564.886,1119.302z"/>
</g>
<g>
	<path fill="#3499CD" d="M1035.113,1159.302c41.355,0,75,33.646,75,75c0,41.355-33.645,75-75,75c-41.354,0-75-33.645-75-75
		C960.113,1192.947,993.759,1159.302,1035.113,1159.302 M1035.113,1119.302c-63.513,0-115,51.486-115,115
		c0,63.513,51.487,115,115,115c63.514,0,115-51.487,115-115S1098.627,1119.302,1035.113,1119.302L1035.113,1119.302z"/>
</g>
<g>
	<path fill="#3499CD" d="M1180.423,748.34c21.366,0,38.75,17.383,38.75,38.75c0,21.366-17.384,38.749-38.75,38.749
		c-21.367,0-38.75-17.383-38.75-38.749S1159.056,748.34,1180.423,748.34 M1180.423,718.34c-37.971,0-68.75,30.779-68.75,68.75
		c0,37.968,30.779,68.749,68.75,68.749c37.97,0,68.75-30.781,68.75-68.749C1249.173,749.12,1218.393,718.34,1180.423,718.34
		L1180.423,718.34z"/>
</g>
<g>
	<path fill="#3499CD" d="M419.576,748.34c21.367,0,38.75,17.383,38.75,38.75c0,21.366-17.383,38.749-38.75,38.749
		c-21.366,0-38.75-17.383-38.75-38.749S398.21,748.34,419.576,748.34 M419.576,718.34c-37.97,0-68.75,30.779-68.75,68.75
		c0,37.968,30.78,68.749,68.75,68.749c37.971,0,68.75-30.781,68.75-68.749C488.326,749.12,457.547,718.34,419.576,718.34
		L419.576,718.34z"/>
</g>
<g>
	<path fill="#3499CD" d="M800,320.697c50.752,0,98.466,19.763,134.352,55.649S990,459.946,990,510.697s-19.764,98.464-55.648,134.35
		c-35.886,35.886-83.599,55.649-134.352,55.649c-50.75,0-98.465-19.764-134.351-55.649S610,561.448,610,510.697
		s19.765-98.464,55.649-134.351C701.536,340.46,749.25,320.697,800,320.697 M800,250.697c-143.594,0-260,116.405-260,260
		c0,143.595,116.406,259.999,260,259.999c143.596,0,260-116.404,260-259.999C1060,367.102,943.596,250.697,800,250.697L800,250.697z
		"/>
</g>
</svg>
