<?xml version="1.0" encoding="utf-8"?>
<!-- Generator: Adobe Illustrator 16.0.4, SVG Export Plug-In . SVG Version: 6.00 Build 0)  -->
<!DOCTYPE svg PUBLIC "-//W3C//DTD SVG 1.1//EN" "http://www.w3.org/Graphics/SVG/1.1/DTD/svg11.dtd">
<svg version="1.1" id="Layer_1" xmlns="http://www.w3.org/2000/svg" xmlns:xlink="http://www.w3.org/1999/xlink" x="0px" y="0px"
	 width="1600px" height="1600px" viewBox="0 0 1600 1600" enable-background="new 0 0 1600 1600" xml:space="preserve">
<g>
	<path fill="#FFFFFF" d="M800,1550c-101.271,0-199.487-19.823-291.92-58.918c-89.303-37.771-169.517-91.857-238.41-160.752
		c-68.895-68.895-122.979-149.107-160.752-238.411C69.822,999.487,50,901.271,50,800s19.822-199.487,58.918-291.919
		c37.771-89.303,91.856-169.517,160.752-238.411c68.895-68.895,149.107-122.98,238.41-160.752C600.513,69.823,698.729,50,800,50
		c101.271,0,199.486,19.823,291.918,58.918c89.304,37.772,169.518,91.857,238.412,160.752s122.979,149.108,160.752,238.411
		C1530.176,600.513,1550,698.729,1550,800s-19.824,199.487-58.918,291.918c-37.772,89.304-91.857,169.517-160.752,238.411
		c-68.896,68.894-149.108,122.979-238.412,160.752C999.486,1530.176,901.271,1550,800,1550z"/>
	<path fill="#3499CD" d="M800,100c94.543,0,186.205,18.494,272.44,54.968c41.456,17.535,81.448,39.243,118.866,64.521
		c37.087,25.056,71.966,53.834,103.667,85.536c31.701,31.701,60.479,66.58,85.536,103.667
		c25.277,37.417,46.986,77.409,64.521,118.865C1481.506,613.794,1500,705.457,1500,800s-18.494,186.206-54.97,272.441
		c-17.534,41.456-39.242,81.447-64.521,118.864c-25.057,37.089-53.836,71.968-85.537,103.668
		c-31.701,31.701-66.58,60.479-103.666,85.535c-37.418,25.279-77.41,46.987-118.867,64.521C986.205,1481.505,894.543,1500,800,1500
		c-94.545,0-186.207-18.494-272.441-54.969c-41.456-17.534-81.447-39.242-118.866-64.521
		c-37.087-25.056-71.966-53.834-103.667-85.535c-31.702-31.701-60.48-66.58-85.536-103.668
		c-25.278-37.417-46.985-77.408-64.521-118.864C118.494,986.206,100,894.543,100,800s18.494-186.206,54.967-272.441
		c17.535-41.456,39.244-81.448,64.521-118.865c25.057-37.087,53.834-71.966,85.536-103.667
		c31.701-31.702,66.58-60.479,103.667-85.536c37.418-25.279,77.41-46.987,118.866-64.521C613.793,118.494,705.455,100,800,100
		 M800,0C358.172,0,0,358.172,0,800s358.172,800,800,800s800-358.172,800-800S1241.828,0,800,0L800,0z"/>
</g>
<g>
	<path fill="#3499CD" d="M675.5,293.719c41.355,0,75,33.645,75,75c0,41.355-33.645,75-75,75c-41.354,0-75-33.645-75-75
		C600.5,327.364,634.146,293.719,675.5,293.719 M675.5,253.719c-63.513,0-115,51.487-115,115c0,63.514,51.487,115,115,115
		c63.514,0,115-51.486,115-115C790.5,305.206,739.014,253.719,675.5,253.719L675.5,253.719z"/>
</g>
<g>
	<path fill="#3499CD" d="M551,509.359c41.354,0,75,33.645,75,75c0,41.354-33.646,75-75,75c-41.355,0-75-33.646-75-75
		C476,543.004,509.645,509.359,551,509.359 M551,469.359c-63.514,0-115,51.486-115,115c0,63.513,51.486,115,115,115
		c63.513,0,115-51.487,115-115C666,520.846,614.513,469.359,551,469.359L551,469.359z"/>
</g>
<g>
	<path fill="#3499CD" d="M426.498,725c41.355,0,75,33.645,75,75s-33.645,75-75,75c-41.354,0-75-33.645-75-75
		S385.144,725,426.498,725 M426.498,685c-63.513,0-115,51.487-115,115s51.487,115,115,115c63.514,0,115-51.486,115-115
		C541.498,736.487,490.012,685,426.498,685L426.498,685z"/>
</g>
<g>
	<path fill="#3499CD" d="M675.5,725c41.354,0,75,33.645,75,75s-33.646,75-75,75c-41.355,0-75-33.645-75-75S634.145,725,675.5,725
		 M675.5,685c-63.514,0-115,51.487-115,115s51.486,115,115,115c63.513,0,115-51.486,115-115C790.5,736.487,739.013,685,675.5,685
		L675.5,685z"/>
</g>
<g>
	<path fill="#3499CD" d="M924.5,725c41.355,0,75,33.645,75,75s-33.645,75-75,75c-41.354,0-75-33.645-75-75S883.146,725,924.5,725
		 M924.5,685c-63.513,0-115,51.487-115,115s51.487,115,115,115c63.514,0,115-51.486,115-115C1039.5,736.487,988.014,685,924.5,685
		L924.5,685z"/>
</g>
<g>
	<path fill="#3499CD" d="M1173.502,725c41.354,0,75,33.645,75,75s-33.646,75-75,75c-41.355,0-75-33.645-75-75
		S1132.146,725,1173.502,725 M1173.502,685c-63.514,0-115,51.487-115,115s51.486,115,115,115c63.513,0,115-51.486,115-115
		C1288.502,736.487,1237.015,685,1173.502,685L1173.502,685z"/>
</g>
<g>
	<path fill="#3499CD" d="M550.998,940.64c41.355,0,75,33.646,75,75c0,41.355-33.645,75-75,75c-41.354,0-75-33.645-75-75
		C475.998,974.285,509.644,940.64,550.998,940.64 M550.998,900.64c-63.513,0-115,51.488-115,115c0,63.515,51.487,115,115,115
		c63.514,0,115-51.485,115-115C665.998,952.128,614.512,900.64,550.998,900.64L550.998,900.64z"/>
</g>
<g>
	<path fill="#3499CD" d="M675.498,1156.281c41.355,0,75,33.645,75,75c0,41.354-33.645,75-75,75c-41.354,0-75-33.646-75-75
		C600.498,1189.926,634.144,1156.281,675.498,1156.281 M675.498,1116.281c-63.513,0-115,51.488-115,115c0,63.514,51.487,115,115,115
		c63.514,0,115-51.486,115-115C790.498,1167.77,739.012,1116.281,675.498,1116.281L675.498,1116.281z"/>
</g>
</svg>
