<?xml version="1.0" encoding="utf-8"?>
<!-- Generator: Adobe Illustrator 16.0.4, SVG Export Plug-In . SVG Version: 6.00 Build 0)  -->
<!DOCTYPE svg PUBLIC "-//W3C//DTD SVG 1.1//EN" "http://www.w3.org/Graphics/SVG/1.1/DTD/svg11.dtd">
<svg version="1.1" id="Layer_1" xmlns="http://www.w3.org/2000/svg" xmlns:xlink="http://www.w3.org/1999/xlink" x="0px" y="0px"
	 width="1600px" height="1600px" viewBox="0 0 1600 1600" enable-background="new 0 0 1600 1600" xml:space="preserve">
<g>
	<path fill="#3399CC" d="M800,1550c-101.271,0-199.487-19.823-291.918-58.918c-89.304-37.772-169.517-91.857-238.412-160.752
		c-68.895-68.895-122.979-149.108-160.752-238.411C69.823,999.487,50,901.271,50,800s19.823-199.487,58.918-291.918
		c37.772-89.304,91.857-169.517,160.752-238.412c68.895-68.895,149.108-122.979,238.412-160.752C600.513,69.823,698.729,50,800,50
		s199.487,19.823,291.919,58.918c89.303,37.772,169.517,91.857,238.411,160.752c68.895,68.895,122.979,149.108,160.752,238.412
		C1530.177,600.513,1550,698.729,1550,800s-19.823,199.487-58.918,291.919c-37.772,89.303-91.857,169.517-160.752,238.411
		s-149.108,122.979-238.411,160.752C999.487,1530.177,901.271,1550,800,1550z"/>
	<path fill="#3399CC" d="M800,100c94.544,0,186.206,18.494,272.441,54.968c41.456,17.535,81.448,39.243,118.866,64.521
		c37.087,25.056,71.966,53.834,103.667,85.535c31.702,31.702,60.479,66.581,85.536,103.668
		c25.278,37.417,46.986,77.41,64.521,118.866C1481.506,613.794,1500,705.457,1500,800c0,94.544-18.494,186.206-54.968,272.441
		c-17.535,41.456-39.243,81.448-64.521,118.866c-25.057,37.087-53.834,71.966-85.536,103.667
		c-31.701,31.702-66.58,60.479-103.667,85.536c-37.418,25.278-77.41,46.986-118.866,64.521C986.206,1481.506,894.544,1500,800,1500
		c-94.543,0-186.206-18.494-272.441-54.968c-41.457-17.535-81.449-39.243-118.866-64.521
		c-37.087-25.057-71.966-53.834-103.668-85.536c-31.701-31.701-60.479-66.58-85.535-103.667
		c-25.279-37.418-46.987-77.41-64.521-118.866C118.494,986.206,100,894.544,100,800c0-94.543,18.494-186.206,54.968-272.441
		c17.535-41.457,39.243-81.449,64.521-118.866c25.056-37.087,53.834-71.966,85.535-103.668
		c31.702-31.701,66.581-60.479,103.668-85.535c37.417-25.279,77.41-46.987,118.866-64.521C613.794,118.494,705.457,100,800,100
		 M800,0C358.172,0,0,358.172,0,800s358.172,800,800,800s800-358.172,800-800S1241.828,0,800,0L800,0z"/>
</g>
<g>
	<path fill="#FFFFFF" d="M675.501,293.719c41.355,0,75,33.645,75,75s-33.645,75-75,75s-75-33.645-75-75
		S634.146,293.719,675.501,293.719 M675.501,253.719c-63.513,0-115,51.487-115,115s51.487,115,115,115s115-51.487,115-115
		S739.014,253.719,675.501,253.719L675.501,253.719z"/>
</g>
<g>
	<path fill="#FFFFFF" d="M551,509.359c41.355,0,75,33.645,75,75s-33.645,75-75,75s-75-33.645-75-75S509.645,509.359,551,509.359
		 M551,469.359c-63.513,0-115,51.487-115,115s51.487,115,115,115s115-51.487,115-115S614.513,469.359,551,469.359L551,469.359z"/>
</g>
<g>
	<path fill="#FFFFFF" d="M426.499,725c41.355,0,75,33.645,75,75c0,41.355-33.645,75-75,75s-75-33.645-75-75
		C351.499,758.645,385.144,725,426.499,725 M426.499,685c-63.513,0-115,51.487-115,115c0,63.514,51.487,115,115,115
		s115-51.486,115-115C541.499,736.487,490.012,685,426.499,685L426.499,685z"/>
</g>
<g>
	<path fill="#FFFFFF" d="M675.5,725c41.355,0,75,33.645,75,75c0,41.355-33.645,75-75,75s-75-33.645-75-75
		C600.5,758.645,634.145,725,675.5,725 M675.5,685c-63.513,0-115,51.487-115,115c0,63.514,51.487,115,115,115s115-51.486,115-115
		C790.5,736.487,739.013,685,675.5,685L675.5,685z"/>
</g>
<g>
	<path fill="#FFFFFF" d="M924.501,725c41.355,0,75,33.645,75,75c0,41.355-33.645,75-75,75s-75-33.645-75-75
		C849.501,758.645,883.146,725,924.501,725 M924.501,685c-63.513,0-115,51.487-115,115c0,63.514,51.487,115,115,115
		s115-51.486,115-115C1039.501,736.487,988.014,685,924.501,685L924.501,685z"/>
</g>
<g>
	<path fill="#FFFFFF" d="M1173.502,725c41.355,0,75,33.645,75,75c0,41.355-33.645,75-75,75s-75-33.645-75-75
		C1098.502,758.645,1132.146,725,1173.502,725 M1173.502,685c-63.513,0-115,51.487-115,115c0,63.514,51.487,115,115,115
		s115-51.486,115-115C1288.502,736.487,1237.015,685,1173.502,685L1173.502,685z"/>
</g>
<g>
	<path fill="#FFFFFF" d="M550.999,940.641c41.355,0,75,33.645,75,75s-33.645,75-75,75s-75-33.645-75-75
		S509.644,940.641,550.999,940.641 M550.999,900.641c-63.513,0-115,51.488-115,115c0,63.514,51.487,115,115,115s115-51.486,115-115
		C665.999,952.129,614.512,900.641,550.999,900.641L550.999,900.641z"/>
</g>
<g>
	<path fill="#FFFFFF" d="M675.499,1156.281c41.355,0,75,33.645,75,75s-33.645,75-75,75s-75-33.645-75-75
		S634.144,1156.281,675.499,1156.281 M675.499,1116.281c-63.513,0-115,51.488-115,115c0,63.514,51.487,115,115,115
		s115-51.486,115-115C790.499,1167.77,739.012,1116.281,675.499,1116.281L675.499,1116.281z"/>
</g>
</svg>
