<?xml version="1.0" encoding="utf-8"?>
<!-- Generator: Adobe Illustrator 16.0.4, SVG Export Plug-In . SVG Version: 6.00 Build 0)  -->
<!DOCTYPE svg PUBLIC "-//W3C//DTD SVG 1.1//EN" "http://www.w3.org/Graphics/SVG/1.1/DTD/svg11.dtd">
<svg version="1.1" id="Layer_1" xmlns="http://www.w3.org/2000/svg" xmlns:xlink="http://www.w3.org/1999/xlink" x="0px" y="0px"
	 width="1600px" height="1600px" viewBox="0 0 1600 1600" enable-background="new 0 0 1600 1600" xml:space="preserve">
<g>
	<path fill="#3399CC" d="M800,1550c-101.271,0-199.487-19.823-291.918-58.918c-89.304-37.772-169.517-91.857-238.412-160.752
		c-68.895-68.895-122.979-149.108-160.751-238.411C69.823,999.487,50,901.271,50,800s19.823-199.487,58.918-291.918
		c37.772-89.304,91.856-169.517,160.751-238.412c68.895-68.895,149.108-122.979,238.412-160.751C600.513,69.823,698.729,50,800,50
		s199.487,19.823,291.919,58.918c89.303,37.772,169.517,91.856,238.411,160.751c68.895,68.895,122.979,149.108,160.752,238.412
		C1530.177,600.513,1550,698.729,1550,800s-19.823,199.487-58.918,291.919c-37.772,89.303-91.857,169.517-160.752,238.411
		s-149.108,122.979-238.411,160.752C999.487,1530.177,901.271,1550,800,1550z"/>
	<path fill="#3399CC" d="M800,100c94.544,0,186.206,18.494,272.441,54.969c41.456,17.535,81.448,39.242,118.866,64.521
		c37.087,25.056,71.966,53.834,103.667,85.536c31.702,31.701,60.479,66.58,85.536,103.668
		c25.278,37.417,46.986,77.409,64.521,118.866C1481.506,613.794,1500,705.457,1500,800c0,94.544-18.494,186.206-54.968,272.441
		c-17.535,41.456-39.243,81.448-64.521,118.866c-25.057,37.087-53.834,71.966-85.536,103.667
		c-31.701,31.702-66.58,60.479-103.667,85.536c-37.418,25.278-77.41,46.986-118.866,64.521C986.206,1481.506,894.544,1500,800,1500
		c-94.543,0-186.206-18.494-272.441-54.968c-41.457-17.535-81.449-39.243-118.866-64.521
		c-37.088-25.057-71.967-53.834-103.668-85.536c-31.701-31.701-60.479-66.58-85.536-103.667
		c-25.279-37.418-46.987-77.41-64.521-118.866C118.494,986.206,100,894.544,100,800c0-94.543,18.494-186.206,54.969-272.441
		c17.534-41.457,39.242-81.449,64.521-118.866c25.056-37.088,53.834-71.967,85.536-103.668s66.58-60.479,103.668-85.536
		c37.417-25.279,77.409-46.986,118.866-64.521C613.794,118.494,705.457,100,800,100 M800,0C358.172,0,0,358.172,0,800
		c0,441.828,358.172,800,800,800c441.828,0,800-358.172,800-800C1600,358.172,1241.828,0,800,0L800,0z"/>
</g>
<polygon fill="none" points="1162.462,968.558 1104.337,789.673 1256.507,679.115 1408.675,789.673 1350.552,968.558 "/>
<line fill="none" stroke="#FFFFFF" stroke-width="3.880000e-05" stroke-miterlimit="10" x1="1381.886" y1="745.273" x2="1381.886" y2="745.273"/>
<polygon fill="none" points="1001.058,968.558 1256.507,526.107 1511.956,968.558 "/>
<g>
	<path fill="#FFFFFF" d="M1162.462,938.558c16.542,0,30,13.458,30,30s-13.458,30-30,30s-30-13.458-30-30
		S1145.92,938.558,1162.462,938.558 M1162.462,922.558c-25.406,0-46,20.595-46,46s20.594,46,46,46c25.404,0,46-20.595,46-46
		S1187.866,922.558,1162.462,922.558L1162.462,922.558z"/>
</g>
<g>
	<path fill="#FFFFFF" d="M1350.552,938.558c16.542,0,30,13.458,30,30s-13.458,30-30,30s-30-13.458-30-30
		S1334.01,938.558,1350.552,938.558 M1350.552,922.558c-25.404,0-46,20.595-46,46s20.596,46,46,46c25.406,0,46-20.595,46-46
		S1375.958,922.558,1350.552,922.558L1350.552,922.558z"/>
</g>
<g>
	<path fill="#FFFFFF" d="M1408.675,770.173c10.752,0,19.5,8.748,19.5,19.5s-8.748,19.5-19.5,19.5s-19.5-8.748-19.5-19.5
		S1397.923,770.173,1408.675,770.173 M1408.675,762.173c-15.188,0-27.5,12.312-27.5,27.5c0,15.188,12.312,27.5,27.5,27.5
		c15.189,0,27.5-12.312,27.5-27.5C1436.175,774.484,1423.864,762.173,1408.675,762.173L1408.675,762.173z"/>
</g>
<g>
	<path fill="#FFFFFF" d="M1104.337,770.173c10.752,0,19.5,8.748,19.5,19.5s-8.748,19.5-19.5,19.5s-19.5-8.748-19.5-19.5
		S1093.585,770.173,1104.337,770.173 M1104.337,762.173c-15.188,0-27.5,12.312-27.5,27.5c0,15.188,12.312,27.5,27.5,27.5
		c15.189,0,27.5-12.312,27.5-27.5C1131.837,774.484,1119.526,762.173,1104.337,762.173L1104.337,762.173z"/>
</g>
<g>
	<path fill="#FFFFFF" d="M1256.507,603.115c41.906,0,76,34.094,76,76s-34.094,76-76,76s-76-34.094-76-76
		S1214.601,603.115,1256.507,603.115 M1256.507,575.115c-57.438,0-104,46.562-104,104s46.562,104,104,104s104-46.562,104-104
		S1313.944,575.115,1256.507,575.115L1256.507,575.115z"/>
</g>
<polygon fill="none" points="611.908,1147.443 495.662,789.673 800.001,568.557 1104.337,789.673 988.091,1147.443 "/>
<line fill="none" stroke="#FFFFFF" stroke-width="7.760000e-05" stroke-miterlimit="10" x1="1050.759" y1="700.875" x2="1050.759" y2="700.875"/>
<g>
	<path fill="#FFFFFF" d="M611.908,1087.443c33.084,0,60,26.916,60,60s-26.916,60-60,60s-60-26.916-60-60
		S578.824,1087.443,611.908,1087.443 M611.908,1055.443c-50.81,0-92,41.188-92,92c0,50.81,41.19,92,92,92s92-41.19,92-92
		C703.908,1096.632,662.718,1055.443,611.908,1055.443L611.908,1055.443z"/>
</g>
<g>
	<path fill="#FFFFFF" d="M988.091,1087.443c33.084,0,60,26.916,60,60s-26.916,60-60,60s-60-26.916-60-60
		S955.007,1087.443,988.091,1087.443 M988.091,1055.443c-50.811,0-92,41.188-92,92c0,50.81,41.189,92,92,92s92-41.19,92-92
		C1080.091,1096.632,1038.901,1055.443,988.091,1055.443L988.091,1055.443z"/>
</g>
<g>
	<path fill="#FFFFFF" d="M1104.337,750.673c21.505,0,39,17.495,39,39s-17.495,39-39,39s-39-17.495-39-39
		S1082.832,750.673,1104.337,750.673 M1104.337,734.673c-30.375,0-55,24.623-55,55c0,30.375,24.625,55,55,55
		c30.377,0,55-24.625,55-55C1159.337,759.296,1134.714,734.673,1104.337,734.673L1104.337,734.673z"/>
</g>
<g>
	<path fill="#FFFFFF" d="M495.662,750.673c21.505,0,39,17.495,39,39s-17.495,39-39,39s-39-17.495-39-39
		S474.157,750.673,495.662,750.673 M495.662,734.673c-30.376,0-55,24.623-55,55c0,30.375,24.624,55,55,55c30.375,0,55-24.625,55-55
		C550.662,759.296,526.037,734.673,495.662,734.673L495.662,734.673z"/>
</g>
<g>
	<path fill="#FFFFFF" d="M800.001,416.557c40.601,0,78.771,15.811,107.48,44.52c28.709,28.709,44.52,66.879,44.52,107.48
		c0,40.601-15.811,78.772-44.52,107.481s-66.88,44.52-107.48,44.52c-40.601,0-78.772-15.811-107.481-44.52S648,609.158,648,568.557
		c0-40.601,15.811-78.771,44.52-107.48S759.4,416.557,800.001,416.557 M800.001,360.557c-114.876,0-208,93.125-208,208
		c0,114.877,93.124,208.001,208,208.001c114.875,0,208-93.124,208-208.001C1008.001,453.682,914.876,360.557,800.001,360.557
		L800.001,360.557z"/>
</g>
<polygon fill="none" points="249.447,968.558 191.323,789.673 343.493,679.115 495.662,789.673 437.538,968.558 "/>
<line fill="none" stroke="#FFFFFF" stroke-width="3.880000e-05" stroke-miterlimit="10" x1="468.873" y1="745.273" x2="468.873" y2="745.273"/>
<polygon fill="none" points="88.044,968.558 343.493,526.107 598.941,968.558 "/>
<g>
	<path fill="#FFFFFF" d="M249.447,938.558c16.542,0,30,13.458,30,30s-13.458,30-30,30s-30-13.458-30-30
		S232.905,938.558,249.447,938.558 M249.447,922.558c-25.405,0-46,20.595-46,46s20.595,46,46,46s46-20.595,46-46
		S274.852,922.558,249.447,922.558L249.447,922.558z"/>
</g>
<g>
	<path fill="#FFFFFF" d="M437.538,938.558c16.542,0,30,13.458,30,30s-13.458,30-30,30s-30-13.458-30-30
		S420.996,938.558,437.538,938.558 M437.538,922.558c-25.405,0-46,20.595-46,46s20.595,46,46,46c25.405,0,46-20.595,46-46
		S462.943,922.558,437.538,922.558L437.538,922.558z"/>
</g>
<g>
	<path fill="#FFFFFF" d="M495.662,770.173c10.752,0,19.5,8.748,19.5,19.5s-8.748,19.5-19.5,19.5s-19.5-8.748-19.5-19.5
		S484.909,770.173,495.662,770.173 M495.662,762.173c-15.188,0-27.5,12.312-27.5,27.5c0,15.188,12.312,27.5,27.5,27.5
		c15.188,0,27.5-12.312,27.5-27.5C523.162,774.484,510.85,762.173,495.662,762.173L495.662,762.173z"/>
</g>
<g>
	<path fill="#FFFFFF" d="M191.323,770.173c10.752,0,19.5,8.748,19.5,19.5s-8.748,19.5-19.5,19.5s-19.5-8.748-19.5-19.5
		S180.571,770.173,191.323,770.173 M191.323,762.173c-15.188,0-27.5,12.312-27.5,27.5c0,15.188,12.312,27.5,27.5,27.5
		s27.5-12.312,27.5-27.5C218.823,774.484,206.511,762.173,191.323,762.173L191.323,762.173z"/>
</g>
<g>
	<path fill="#FFFFFF" d="M343.493,603.115c41.907,0,76,34.094,76,76s-34.093,76-76,76s-76-34.094-76-76
		S301.586,603.115,343.493,603.115 M343.493,575.115c-57.438,0-104,46.562-104,104s46.562,104,104,104c57.438,0,104-46.562,104-104
		S400.931,575.115,343.493,575.115L343.493,575.115z"/>
</g>
<line fill="none" stroke="#FFFFFF" stroke-width="1.940000e-05" stroke-miterlimit="10" x1="177.929" y1="767.474" x2="177.929" y2="767.474"/>
</svg>
