<?xml version="1.0" encoding="utf-8"?>
<!-- Generator: Adobe Illustrator 16.0.4, SVG Export Plug-In . SVG Version: 6.00 Build 0)  -->
<!DOCTYPE svg PUBLIC "-//W3C//DTD SVG 1.1//EN" "http://www.w3.org/Graphics/SVG/1.1/DTD/svg11.dtd">
<svg version="1.1" id="Layer_1" xmlns="http://www.w3.org/2000/svg" xmlns:xlink="http://www.w3.org/1999/xlink" x="0px" y="0px"
	 width="1600px" height="1600px" viewBox="0 0 1600 1600" enable-background="new 0 0 1600 1600" xml:space="preserve">
<g>
	<path fill="#FFFFFF" d="M800,1550c-101.271,0-199.487-19.823-291.92-58.918c-89.303-37.771-169.517-91.857-238.41-160.752
		c-68.895-68.895-122.979-149.107-160.752-238.411C69.822,999.487,50,901.271,50,800s19.822-199.487,58.918-291.919
		c37.771-89.303,91.856-169.517,160.752-238.411c68.895-68.895,149.107-122.98,238.41-160.752C600.513,69.823,698.729,50,800,50
		c101.271,0,199.486,19.823,291.918,58.918c89.304,37.772,169.518,91.857,238.412,160.752s122.979,149.108,160.752,238.411
		C1530.176,600.513,1550,698.729,1550,800s-19.824,199.487-58.918,291.918c-37.772,89.304-91.857,169.517-160.752,238.411
		c-68.896,68.894-149.108,122.979-238.412,160.752C999.486,1530.176,901.271,1550,800,1550z"/>
	<path fill="#3499CD" d="M800,100c94.543,0,186.205,18.494,272.44,54.968c41.456,17.535,81.448,39.243,118.866,64.521
		c37.087,25.056,71.966,53.834,103.667,85.536c31.701,31.701,60.479,66.58,85.536,103.667
		c25.277,37.417,46.986,77.409,64.521,118.865C1481.506,613.794,1500,705.457,1500,800s-18.494,186.206-54.97,272.441
		c-17.534,41.456-39.242,81.447-64.521,118.864c-25.057,37.089-53.836,71.968-85.537,103.668
		c-31.701,31.701-66.58,60.479-103.666,85.535c-37.418,25.279-77.41,46.987-118.867,64.521C986.205,1481.505,894.543,1500,800,1500
		c-94.545,0-186.207-18.494-272.441-54.969c-41.456-17.534-81.447-39.242-118.866-64.521
		c-37.087-25.056-71.966-53.834-103.667-85.535s-60.48-66.58-85.536-103.668c-25.278-37.417-46.985-77.408-64.521-118.864
		C118.494,986.206,100,894.543,100,800s18.494-186.206,54.969-272.441c17.534-41.456,39.242-81.448,64.521-118.865
		c25.056-37.087,53.834-71.966,85.535-103.667c31.701-31.702,66.58-60.479,103.668-85.536
		c37.418-25.279,77.41-46.987,118.865-64.521C613.793,118.494,705.455,100,800,100 M800,0C358.172,0,0,358.172,0,800
		s358.172,800,800,800s800-358.172,800-800S1241.828,0,800,0L800,0z"/>
</g>
<polygon fill="none" points="1062.865,1017.152 990.211,793.546 1180.424,655.349 1370.635,793.546 1297.979,1017.152 "/>
<line fill="none" stroke="#3C99CD" stroke-width="4.850000e-05" stroke-miterlimit="10" x1="1337.147" y1="738.046" x2="1337.147" y2="738.046"/>
<g>
	<path fill="#3499CD" d="M1062.865,979.652c20.679,0,37.5,16.821,37.5,37.5c0,20.678-16.821,37.5-37.5,37.5
		c-20.678,0-37.5-16.822-37.5-37.5C1025.365,996.474,1042.188,979.652,1062.865,979.652 M1062.865,959.652
		c-31.756,0-57.5,25.744-57.5,57.5s25.744,57.5,57.5,57.5c31.758,0,57.5-25.744,57.5-57.5S1094.623,959.652,1062.865,959.652
		L1062.865,959.652z"/>
</g>
<g>
	<path fill="#3499CD" d="M1297.979,979.652c20.679,0,37.5,16.821,37.5,37.5c0,20.678-16.821,37.5-37.5,37.5s-37.5-16.822-37.5-37.5
		C1260.479,996.474,1277.303,979.652,1297.979,979.652 M1297.979,959.652c-31.756,0-57.5,25.744-57.5,57.5s25.744,57.5,57.5,57.5
		s57.5-25.744,57.5-57.5S1329.735,959.652,1297.979,959.652L1297.979,959.652z"/>
</g>
<g>
	<path fill="#3499CD" d="M1370.635,774.17c10.684,0,19.375,8.692,19.375,19.376s-8.691,19.375-19.375,19.375
		c-10.685,0-19.375-8.69-19.375-19.375C1351.26,782.862,1359.951,774.17,1370.635,774.17 M1370.635,759.17
		c-18.984,0-34.375,15.39-34.375,34.376c0,18.985,15.391,34.375,34.375,34.375c18.983,0,34.375-15.391,34.375-34.375
		C1405.01,774.56,1389.619,759.17,1370.635,759.17L1370.635,759.17z"/>
</g>
<g>
	<path fill="#3499CD" d="M990.211,774.17c10.685,0,19.375,8.692,19.375,19.376s-8.69,19.375-19.375,19.375
		c-10.684,0-19.375-8.69-19.375-19.375C970.836,782.862,979.527,774.17,990.211,774.17 M990.211,759.17
		c-18.984,0-34.375,15.39-34.375,34.376c0,18.985,15.391,34.375,34.375,34.375c18.985,0,34.375-15.391,34.375-34.375
		C1024.586,774.56,1009.196,759.17,990.211,759.17L990.211,759.17z"/>
</g>
<g>
	<path fill="#3499CD" d="M1180.424,560.349c52.383,0,95,42.617,95,95c0,52.384-42.617,95-95,95s-95-42.616-95-95
		C1085.424,602.966,1128.041,560.349,1180.424,560.349 M1180.424,525.349c-71.797,0-130,58.202-130,130s58.203,130,130,130
		s130-58.202,130-130S1252.221,525.349,1180.424,525.349L1180.424,525.349z"/>
</g>
<polygon fill="none" points="682.442,1017.152 609.789,793.546 800,655.349 990.211,793.546 917.558,1017.152 "/>
<line fill="none" stroke="#3C99CD" stroke-width="4.850000e-05" stroke-miterlimit="10" x1="956.726" y1="738.046" x2="956.726" y2="738.046"/>
<g>
	<path fill="#3499CD" d="M682.442,979.652c20.679,0,37.5,16.821,37.5,37.5c0,20.678-16.821,37.5-37.5,37.5s-37.5-16.822-37.5-37.5
		C644.942,996.474,661.766,979.652,682.442,979.652 M682.442,959.652c-31.756,0-57.5,25.744-57.5,57.5s25.744,57.5,57.5,57.5
		s57.5-25.744,57.5-57.5S714.199,959.652,682.442,959.652L682.442,959.652z"/>
</g>
<g>
	<path fill="#3499CD" d="M917.558,979.652c20.679,0,37.5,16.821,37.5,37.5c0,20.678-16.821,37.5-37.5,37.5s-37.5-16.822-37.5-37.5
		C880.058,996.474,896.879,979.652,917.558,979.652 M917.558,959.652c-31.757,0-57.5,25.744-57.5,57.5s25.743,57.5,57.5,57.5
		s57.5-25.744,57.5-57.5S949.313,959.652,917.558,959.652L917.558,959.652z"/>
</g>
<g>
	<path fill="#3499CD" d="M609.789,774.17c10.684,0,19.375,8.692,19.375,19.376s-8.691,19.375-19.375,19.375
		c-10.685,0-19.375-8.69-19.375-19.375C590.414,782.862,599.104,774.17,609.789,774.17 M609.789,759.17
		c-18.984,0-34.375,15.39-34.375,34.376c0,18.985,15.391,34.375,34.375,34.375c18.983,0,34.375-15.391,34.375-34.375
		C644.164,774.56,628.772,759.17,609.789,759.17L609.789,759.17z"/>
</g>
<g>
	<path fill="#3499CD" d="M800,560.349c52.383,0,95,42.617,95,95c0,52.384-42.617,95-95,95s-95-42.616-95-95
		C705,602.966,747.617,560.349,800,560.349 M800,525.349c-71.797,0-130,58.202-130,130s58.203,130,130,130
		c71.799,0,130-58.202,130-130S871.799,525.349,800,525.349L800,525.349z"/>
</g>
<polygon fill="none" points="302.021,1017.152 229.365,793.546 419.578,655.349 609.789,793.546 537.135,1017.152 "/>
<line fill="none" stroke="#3C99CD" stroke-width="4.850000e-05" stroke-miterlimit="10" x1="576.303" y1="738.046" x2="576.303" y2="738.046"/>
<g>
	<path fill="#3499CD" d="M302.021,979.652c20.679,0,37.5,16.821,37.5,37.5c0,20.678-16.821,37.5-37.5,37.5s-37.5-16.822-37.5-37.5
		C264.521,996.474,281.342,979.652,302.021,979.652 M302.021,959.652c-31.757,0-57.5,25.744-57.5,57.5s25.743,57.5,57.5,57.5
		s57.5-25.744,57.5-57.5S333.776,959.652,302.021,959.652L302.021,959.652z"/>
</g>
<g>
	<path fill="#3499CD" d="M537.135,979.652c20.678,0,37.5,16.821,37.5,37.5c0,20.678-16.822,37.5-37.5,37.5
		c-20.679,0-37.5-16.822-37.5-37.5C499.635,996.474,516.457,979.652,537.135,979.652 M537.135,959.652
		c-31.756,0-57.5,25.744-57.5,57.5s25.744,57.5,57.5,57.5s57.5-25.744,57.5-57.5S568.891,959.652,537.135,959.652L537.135,959.652z"
		/>
</g>
<g>
	<path fill="#3499CD" d="M229.365,774.17c10.685,0,19.375,8.692,19.375,19.376s-8.69,19.375-19.375,19.375
		c-10.684,0-19.375-8.69-19.375-19.375C209.99,782.862,218.683,774.17,229.365,774.17 M229.365,759.17
		c-18.984,0-34.375,15.39-34.375,34.376c0,18.985,15.391,34.375,34.375,34.375c18.985,0,34.375-15.391,34.375-34.375
		C263.74,774.56,248.352,759.17,229.365,759.17L229.365,759.17z"/>
</g>
<g>
	<path fill="#3499CD" d="M419.578,560.349c52.383,0,95,42.617,95,95c0,52.384-42.617,95-95,95s-95-42.616-95-95
		C324.578,602.966,367.194,560.349,419.578,560.349 M419.578,525.349c-71.797,0-130,58.202-130,130s58.203,130,130,130
		s130-58.202,130-130S491.375,525.349,419.578,525.349L419.578,525.349z"/>
</g>
</svg>
