<?xml version="1.0" encoding="utf-8"?>
<!-- Generator: Adobe Illustrator 16.0.4, SVG Export Plug-In . SVG Version: 6.00 Build 0)  -->
<!DOCTYPE svg PUBLIC "-//W3C//DTD SVG 1.1//EN" "http://www.w3.org/Graphics/SVG/1.1/DTD/svg11.dtd">
<svg version="1.1" id="Layer_1" xmlns="http://www.w3.org/2000/svg" xmlns:xlink="http://www.w3.org/1999/xlink" x="0px" y="0px"
	 width="1600px" height="1600px" viewBox="0 0 1600 1600" enable-background="new 0 0 1600 1600" xml:space="preserve">
<g>
	<path fill="#3399CC" d="M800,1550c-101.271,0-199.487-19.823-291.918-58.918c-89.304-37.772-169.517-91.857-238.412-160.752
		c-68.895-68.895-122.979-149.108-160.752-238.411C69.823,999.487,50,901.271,50,800s19.823-199.487,58.918-291.918
		c37.772-89.304,91.857-169.517,160.752-238.412c68.895-68.895,149.108-122.979,238.412-160.752C600.513,69.823,698.729,50,800,50
		s199.487,19.823,291.919,58.918c89.303,37.772,169.517,91.857,238.411,160.752c68.895,68.895,122.979,149.108,160.752,238.412
		C1530.177,600.513,1550,698.729,1550,800s-19.823,199.487-58.918,291.919c-37.772,89.303-91.857,169.517-160.752,238.411
		s-149.108,122.979-238.411,160.752C999.487,1530.177,901.271,1550,800,1550z"/>
	<path fill="#3399CC" d="M800,100c94.544,0,186.206,18.494,272.441,54.968c41.456,17.535,81.448,39.243,118.866,64.521
		c37.087,25.056,71.966,53.834,103.667,85.535c31.702,31.702,60.479,66.581,85.536,103.668
		c25.278,37.417,46.986,77.41,64.521,118.866C1481.506,613.794,1500,705.457,1500,800c0,94.544-18.494,186.206-54.968,272.441
		c-17.535,41.456-39.243,81.448-64.521,118.866c-25.057,37.087-53.834,71.966-85.536,103.667
		c-31.701,31.702-66.58,60.479-103.667,85.536c-37.418,25.278-77.41,46.986-118.866,64.521C986.206,1481.506,894.544,1500,800,1500
		c-94.543,0-186.206-18.494-272.441-54.968c-41.457-17.535-81.449-39.243-118.866-64.521
		c-37.087-25.057-71.966-53.834-103.668-85.536c-31.701-31.701-60.479-66.58-85.535-103.667
		c-25.279-37.418-46.987-77.41-64.521-118.866C118.494,986.206,100,894.544,100,800c0-94.543,18.494-186.206,54.968-272.441
		c17.535-41.457,39.243-81.449,64.521-118.866c25.056-37.087,53.834-71.966,85.535-103.668
		c31.702-31.701,66.581-60.479,103.668-85.535c37.417-25.279,77.41-46.987,118.866-64.521C613.794,118.494,705.457,100,800,100
		 M800,0C358.172,0,0,358.172,0,800s358.172,800,800,800s800-358.172,800-800S1241.828,0,800,0L800,0z"/>
</g>
<polygon fill="none" points="1062.866,1017.152 990.212,793.546 1180.424,655.349 1370.635,793.546 1297.98,1017.152 "/>
<line fill="none" stroke="#3C99CD" stroke-width="4.850000e-05" stroke-miterlimit="10" x1="1337.148" y1="738.046" x2="1337.148" y2="738.046"/>
<g>
	<path fill="#FFFFFF" d="M1062.866,979.652c20.678,0,37.5,16.822,37.5,37.5s-16.822,37.5-37.5,37.5s-37.5-16.822-37.5-37.5
		S1042.188,979.652,1062.866,979.652 M1062.866,959.652c-31.757,0-57.5,25.744-57.5,57.5s25.743,57.5,57.5,57.5
		s57.5-25.744,57.5-57.5S1094.623,959.652,1062.866,959.652L1062.866,959.652z"/>
</g>
<g>
	<path fill="#FFFFFF" d="M1297.98,979.652c20.678,0,37.5,16.822,37.5,37.5s-16.822,37.5-37.5,37.5s-37.5-16.822-37.5-37.5
		S1277.303,979.652,1297.98,979.652 M1297.98,959.652c-31.756,0-57.5,25.744-57.5,57.5s25.744,57.5,57.5,57.5s57.5-25.744,57.5-57.5
		S1329.736,959.652,1297.98,959.652L1297.98,959.652z"/>
</g>
<g>
	<path fill="#FFFFFF" d="M1370.635,774.17c10.684,0,19.375,8.692,19.375,19.376c0,10.684-8.691,19.376-19.375,19.376
		s-19.375-8.692-19.375-19.376C1351.26,782.862,1359.951,774.17,1370.635,774.17 M1370.635,759.17
		c-18.984,0-34.375,15.39-34.375,34.376c0,18.985,15.391,34.376,34.375,34.376s34.375-15.391,34.375-34.376
		C1405.01,774.56,1389.619,759.17,1370.635,759.17L1370.635,759.17z"/>
</g>
<g>
	<path fill="#FFFFFF" d="M990.212,774.17c10.684,0,19.375,8.692,19.375,19.376c0,10.684-8.691,19.376-19.375,19.376
		s-19.375-8.692-19.375-19.376C970.837,782.862,979.528,774.17,990.212,774.17 M990.212,759.17
		c-18.985,0-34.375,15.39-34.375,34.376c0,18.985,15.39,34.376,34.375,34.376s34.375-15.391,34.375-34.376
		C1024.587,774.56,1009.197,759.17,990.212,759.17L990.212,759.17z"/>
</g>
<g>
	<path fill="#FFFFFF" d="M1180.424,560.349c52.383,0,95,42.617,95,95s-42.617,95-95,95s-95-42.617-95-95
		S1128.041,560.349,1180.424,560.349 M1180.424,525.349c-71.797,0-130,58.202-130,130c0,71.797,58.203,130,130,130
		s130-58.203,130-130C1310.424,583.551,1252.221,525.349,1180.424,525.349L1180.424,525.349z"/>
</g>
<polygon fill="none" points="682.443,1017.152 609.789,793.546 800.001,655.349 990.212,793.546 917.558,1017.152 "/>
<line fill="none" stroke="#3C99CD" stroke-width="4.850000e-05" stroke-miterlimit="10" x1="956.726" y1="738.046" x2="956.726" y2="738.046"/>
<g>
	<path fill="#FFFFFF" d="M682.443,979.652c20.678,0,37.5,16.822,37.5,37.5s-16.822,37.5-37.5,37.5s-37.5-16.822-37.5-37.5
		S661.766,979.652,682.443,979.652 M682.443,959.652c-31.756,0-57.5,25.744-57.5,57.5s25.744,57.5,57.5,57.5s57.5-25.744,57.5-57.5
		S714.199,959.652,682.443,959.652L682.443,959.652z"/>
</g>
<g>
	<path fill="#FFFFFF" d="M917.558,979.652c20.678,0,37.5,16.822,37.5,37.5s-16.822,37.5-37.5,37.5s-37.5-16.822-37.5-37.5
		S896.88,979.652,917.558,979.652 M917.558,959.652c-31.757,0-57.5,25.744-57.5,57.5s25.743,57.5,57.5,57.5s57.5-25.744,57.5-57.5
		S949.314,959.652,917.558,959.652L917.558,959.652z"/>
</g>
<g>
	<path fill="#FFFFFF" d="M609.789,774.17c10.684,0,19.375,8.692,19.375,19.376c0,10.684-8.691,19.376-19.375,19.376
		s-19.375-8.692-19.375-19.376C590.414,782.862,599.105,774.17,609.789,774.17 M609.789,759.17
		c-18.984,0-34.375,15.39-34.375,34.376c0,18.985,15.391,34.376,34.375,34.376s34.375-15.391,34.375-34.376
		C644.164,774.56,628.773,759.17,609.789,759.17L609.789,759.17z"/>
</g>
<g>
	<path fill="#FFFFFF" d="M800.001,560.349c52.383,0,95,42.617,95,95s-42.617,95-95,95c-52.383,0-95-42.617-95-95
		S747.618,560.349,800.001,560.349 M800.001,525.349c-71.797,0-130,58.202-130,130c0,71.797,58.203,130,130,130
		c71.798,0,130-58.203,130-130C930.001,583.551,871.799,525.349,800.001,525.349L800.001,525.349z"/>
</g>
<polygon fill="none" points="302.021,1017.152 229.366,793.546 419.578,655.349 609.789,793.546 537.135,1017.152 "/>
<line fill="none" stroke="#3C99CD" stroke-width="4.850000e-05" stroke-miterlimit="10" x1="576.303" y1="738.046" x2="576.303" y2="738.046"/>
<g>
	<path fill="#FFFFFF" d="M302.021,979.652c20.678,0,37.5,16.822,37.5,37.5s-16.822,37.5-37.5,37.5s-37.5-16.822-37.5-37.5
		S281.343,979.652,302.021,979.652 M302.021,959.652c-31.757,0-57.5,25.744-57.5,57.5s25.743,57.5,57.5,57.5s57.5-25.744,57.5-57.5
		S333.777,959.652,302.021,959.652L302.021,959.652z"/>
</g>
<g>
	<path fill="#FFFFFF" d="M537.135,979.652c20.678,0,37.5,16.822,37.5,37.5s-16.822,37.5-37.5,37.5s-37.5-16.822-37.5-37.5
		S516.457,979.652,537.135,979.652 M537.135,959.652c-31.756,0-57.5,25.744-57.5,57.5s25.744,57.5,57.5,57.5s57.5-25.744,57.5-57.5
		S568.891,959.652,537.135,959.652L537.135,959.652z"/>
</g>
<g>
	<path fill="#FFFFFF" d="M229.366,774.17c10.684,0,19.375,8.692,19.375,19.376c0,10.684-8.691,19.376-19.375,19.376
		s-19.375-8.692-19.375-19.376C209.991,782.862,218.683,774.17,229.366,774.17 M229.366,759.17
		c-18.985,0-34.375,15.39-34.375,34.376c0,18.985,15.39,34.376,34.375,34.376s34.375-15.391,34.375-34.376
		C263.741,774.56,248.352,759.17,229.366,759.17L229.366,759.17z"/>
</g>
<g>
	<path fill="#FFFFFF" d="M419.578,560.349c52.383,0,95,42.617,95,95s-42.617,95-95,95s-95-42.617-95-95
		S367.195,560.349,419.578,560.349 M419.578,525.349c-71.797,0-130,58.202-130,130c0,71.797,58.203,130,130,130s130-58.203,130-130
		C549.578,583.551,491.375,525.349,419.578,525.349L419.578,525.349z"/>
</g>
</svg>
