<?xml version="1.0" encoding="utf-8"?>
<!-- Generator: Adobe Illustrator 16.0.4, SVG Export Plug-In . SVG Version: 6.00 Build 0)  -->
<!DOCTYPE svg PUBLIC "-//W3C//DTD SVG 1.1//EN" "http://www.w3.org/Graphics/SVG/1.1/DTD/svg11.dtd">
<svg version="1.1" id="Layer_1" xmlns="http://www.w3.org/2000/svg" xmlns:xlink="http://www.w3.org/1999/xlink" x="0px" y="0px"
	 width="38.001px" height="38px" viewBox="0 0 38.001 38" enable-background="new 0 0 38.001 38" xml:space="preserve">
<path d="M9.625,15.461c0.031-0.031,0.062-0.062,0.094-0.094c2.562-2.562,5.656-3.844,9.281-3.844s6.719,1.281,9.281,3.844
	s3.844,5.657,3.844,9.282s-1.281,6.719-3.844,9.281S22.625,37.774,19,37.774s-6.719-1.281-9.281-3.844s-3.844-5.656-3.844-9.281
	V2.102c0-0.516,0.184-0.957,0.551-1.324S7.234,0.227,7.75,0.227S8.707,0.41,9.074,0.777s0.551,0.809,0.551,1.324V15.461z M19,34.024
	c2.594,0,4.805-0.914,6.633-2.742s2.742-4.039,2.742-6.633s-0.914-4.805-2.742-6.633c-1.828-1.828-4.039-2.742-6.633-2.742
	s-4.805,0.914-6.633,2.742c-1.828,1.829-2.742,4.04-2.742,6.633s0.914,4.805,2.742,6.633S16.406,34.024,19,34.024z"/>
<g>
	<path fill="#FFFFFF" d="M19.083,35.821c-6.203,0-11.249-5.047-11.249-11.25s5.046-11.25,11.249-11.25
		c6.204,0,11.25,5.047,11.25,11.25S25.286,35.821,19.083,35.821z"/>
	<path fill="#3399CC" d="M19.083,15.321c5.101,0,9.25,4.149,9.25,9.25s-4.149,9.25-9.25,9.25c-5.1,0-9.249-4.149-9.249-9.25
		S13.982,15.321,19.083,15.321 M19.083,11.321c-7.317,0-13.249,5.932-13.249,13.25c0,7.318,5.932,13.25,13.249,13.25
		c7.319,0,13.25-5.932,13.25-13.25C32.333,17.253,26.401,11.321,19.083,11.321L19.083,11.321z"/>
</g>
<g>
	<path fill="#3399CC" d="M19.083,21.946c1.447,0,2.625,1.178,2.625,2.625s-1.178,2.625-2.625,2.625
		c-1.447,0-2.625-1.178-2.625-2.625S17.636,21.946,19.083,21.946 M19.083,17.946c-3.659,0-6.625,2.967-6.625,6.625
		c0,3.66,2.966,6.625,6.625,6.625c3.66,0,6.625-2.965,6.625-6.625C25.708,20.913,22.743,17.946,19.083,17.946L19.083,17.946z"/>
</g>
<rect fill="none" width="38" height="38"/>
</svg>
