<?xml version="1.0" encoding="utf-8"?>
<!-- Generator: Adobe Illustrator 16.0.4, SVG Export Plug-In . SVG Version: 6.00 Build 0)  -->
<!DOCTYPE svg PUBLIC "-//W3C//DTD SVG 1.1//EN" "http://www.w3.org/Graphics/SVG/1.1/DTD/svg11.dtd">
<svg version="1.1" id="Layer_1" xmlns="http://www.w3.org/2000/svg" xmlns:xlink="http://www.w3.org/1999/xlink" x="0px" y="0px"
	 width="246.758px" height="423.604px" viewBox="0 0 246.758 423.604" enable-background="new 0 0 246.758 423.604"
	 xml:space="preserve">
<g>
	<path d="M32.109,15c0,8.296-6.687,15-14.976,15C8.823,30,2.109,23.296,2.109,15c0-8.286,6.714-15,15.024-15
		C25.423,0,32.109,6.714,32.109,15z"/>
</g>
<g>
	<path d="M32.109,285c0,8.296-6.687,15-14.976,15c-8.311,0-15.024-6.704-15.024-15c0-8.286,6.714-15,15.024-15
		C25.423,270,32.109,276.714,32.109,285z"/>
</g>
<g>
	<rect x="2.109" y="15" width="30" height="270"/>
</g>
<g>
	<path fill="#2D99D5" d="M129.609,105c45.49,0,82.5,37.009,82.5,82.5c0,45.49-37.01,82.5-82.5,82.5c-45.491,0-82.5-37.01-82.5-82.5
		C47.109,142.009,84.119,105,129.609,105 M129.609,75c-62.109,0-112.5,50.428-112.5,112.5c0,62.183,50.391,112.5,112.5,112.5
		s112.5-50.317,112.5-112.5C242.109,125.428,191.719,75,129.609,75L129.609,75z"/>
</g>
<g>
	<rect x="0.039" y="313.75" fill="none" width="246.719" height="44.082"/>
	<path d="M6.633,331.591c0.037-0.036,0.073-0.073,0.11-0.11c3.003-3.002,6.628-4.504,10.876-4.504c4.248,0,7.873,1.502,10.876,4.504
		c3.003,3.004,4.504,6.629,4.504,10.877s-1.501,7.874-4.504,10.877c-3.003,3.003-6.629,4.504-10.876,4.504
		c-4.248,0-7.874-1.501-10.876-4.504c-3.003-3.003-4.504-6.629-4.504-10.877v-26.422c0-0.604,0.215-1.122,0.646-1.552
		c0.43-0.431,0.947-0.646,1.552-0.646s1.122,0.215,1.552,0.646c0.43,0.43,0.646,0.947,0.646,1.552V331.591z M17.619,353.344
		c3.039,0,5.63-1.071,7.773-3.214c2.142-2.142,3.213-4.732,3.213-7.772c0-3.039-1.071-5.631-3.213-7.772
		c-2.143-2.143-4.734-3.214-7.773-3.214c-3.04,0-5.63,1.071-7.773,3.214c-2.142,2.142-3.213,4.733-3.213,7.772
		c0,3.04,1.071,5.631,3.213,7.772C11.989,352.272,14.58,353.344,17.619,353.344z"/>
	<path d="M40.036,320.385c0,0.751-0.271,1.396-0.81,1.937c-0.541,0.54-1.186,0.81-1.937,0.81c-0.751,0-1.396-0.27-1.937-0.81
		s-0.81-1.186-0.81-1.937s0.27-1.396,0.81-1.937s1.186-0.81,1.937-0.81c0.75,0,1.396,0.27,1.937,0.81
		C39.765,318.988,40.036,319.634,40.036,320.385z M35.092,329.174c0-0.604,0.215-1.121,0.646-1.552
		c0.43-0.43,0.947-0.646,1.552-0.646s1.122,0.216,1.552,0.646c0.43,0.431,0.646,0.947,0.646,1.552v26.367
		c0,0.604-0.215,1.122-0.646,1.552c-0.43,0.431-0.947,0.646-1.552,0.646s-1.122-0.215-1.552-0.646
		c-0.431-0.43-0.646-0.947-0.646-1.552V329.174z"/>
	<path d="M56.959,353.344c0.604,0,1.122,0.216,1.552,0.646c0.43,0.431,0.646,0.947,0.646,1.552s-0.215,1.122-0.646,1.552
		c-0.43,0.431-0.947,0.646-1.552,0.646c-7.324,0-10.986-3.662-10.986-10.986v-15.381h-2.197c-0.604,0-1.122-0.215-1.552-0.646
		c-0.431-0.43-0.646-0.947-0.646-1.552s0.215-1.121,0.646-1.552c0.43-0.43,0.947-0.646,1.552-0.646h2.197V315.99
		c0-0.604,0.215-1.121,0.646-1.552c0.43-0.43,0.947-0.646,1.552-0.646s1.122,0.216,1.552,0.646c0.43,0.431,0.646,0.947,0.646,1.552
		v10.986h4.422c0.604,0,1.122,0.216,1.552,0.646c0.43,0.431,0.646,0.947,0.646,1.552s-0.215,1.122-0.646,1.552
		c-0.43,0.431-0.947,0.646-1.552,0.646h-4.422v15.381C50.367,351.146,52.564,353.344,56.959,353.344z"/>
	<path d="M80.475,350.213c0.604,0,1.121,0.215,1.552,0.646c0.43,0.43,0.646,0.947,0.646,1.552c0,0.604-0.229,1.145-0.687,1.62
		c-2.838,2.472-6.18,3.708-10.025,3.708c-4.248,0-7.874-1.501-10.876-4.504c-3.003-3.003-4.504-6.629-4.504-10.877
		s1.501-7.873,4.504-10.877c3.003-3.002,6.628-4.504,10.876-4.504c3.845,0,7.187,1.236,10.025,3.708
		c0.513,0.458,0.769,1.025,0.769,1.703c0,0.604-0.215,1.121-0.646,1.552c-0.43,0.43-0.947,0.646-1.552,0.646
		c-0.531,0-0.998-0.165-1.4-0.495c-2.051-1.812-4.45-2.719-7.196-2.719c-3.04,0-5.63,1.071-7.773,3.214
		c-2.142,2.142-3.213,4.733-3.213,7.772c0,3.04,1.071,5.631,3.213,7.772c2.143,2.143,4.733,3.214,7.773,3.214
		c2.747,0,5.136-0.896,7.168-2.691C79.513,350.359,79.961,350.213,80.475,350.213z"/>
	<path fill="#3399CC" d="M113.603,342.357c0,4.248-1.501,7.874-4.504,10.877c-3.003,3.003-6.629,4.504-10.876,4.504
		c-4.248,0-7.874-1.501-10.876-4.504c-3.003-3.003-4.504-6.629-4.504-10.877s1.501-7.873,4.504-10.877
		c3.003-3.002,6.628-4.504,10.876-4.504c4.248,0,7.873,1.502,10.876,4.504C112.101,334.484,113.603,338.109,113.603,342.357z
		 M98.222,331.371c-3.04,0-5.63,1.071-7.773,3.214c-2.142,2.142-3.213,4.733-3.213,7.772c0,3.04,1.071,5.631,3.213,7.772
		c2.143,2.143,4.733,3.214,7.773,3.214c3.039,0,5.63-1.071,7.773-3.214c2.142-2.142,3.213-4.732,3.213-7.772
		c0-3.039-1.071-5.631-3.213-7.772C103.852,332.442,101.261,331.371,98.222,331.371z"/>
	<path d="M115.185,329.174c0-0.604,0.215-1.121,0.646-1.552c0.43-0.43,0.947-0.646,1.552-0.646s1.122,0.216,1.552,0.646
		c0.43,0.431,0.646,0.947,0.646,1.552v1.785c2.747-2.654,6.042-3.982,9.888-3.982c3.937,0,7.301,1.396,10.094,4.188
		c2.792,2.793,4.188,6.157,4.188,10.094v14.282c0,0.604-0.216,1.122-0.646,1.552c-0.431,0.431-0.947,0.646-1.552,0.646
		s-1.122-0.215-1.552-0.646c-0.431-0.43-0.646-0.947-0.646-1.552v-14.282c0-2.729-0.966-5.058-2.897-6.99
		c-1.933-1.932-4.262-2.897-6.99-2.897s-5.059,0.966-6.99,2.897c-1.932,1.933-2.897,4.262-2.897,6.99v14.282
		c0,0.604-0.215,1.122-0.646,1.552c-0.43,0.431-0.947,0.646-1.552,0.646s-1.122-0.215-1.552-0.646
		c-0.431-0.43-0.646-0.947-0.646-1.552V329.174z"/>
	<path d="M145.331,329.174c0-0.604,0.215-1.121,0.646-1.552c0.43-0.43,0.947-0.646,1.552-0.646s1.121,0.216,1.552,0.646
		c0.43,0.431,0.646,0.947,0.646,1.552v1.785c2.746-2.654,6.043-3.982,9.888-3.982c3.937,0,7.301,1.396,10.094,4.188
		c2.792,2.793,4.188,6.157,4.188,10.094v14.282c0,0.604-0.216,1.122-0.646,1.552c-0.431,0.431-0.947,0.646-1.552,0.646
		s-1.122-0.215-1.552-0.646c-0.431-0.43-0.646-0.947-0.646-1.552v-14.282c0-2.729-0.966-5.058-2.897-6.99
		c-1.933-1.932-4.262-2.897-6.99-2.897s-5.059,0.966-6.99,2.897c-1.932,1.933-2.897,4.262-2.897,6.99v14.282
		c0,0.604-0.216,1.122-0.646,1.552c-0.431,0.431-0.947,0.646-1.552,0.646s-1.122-0.215-1.552-0.646
		c-0.431-0.43-0.646-0.947-0.646-1.552V329.174z"/>
	<path d="M195.942,350.268c0.604,0,1.122,0.216,1.553,0.646c0.43,0.431,0.645,0.947,0.645,1.552s-0.21,1.126-0.631,1.565
		c-2.839,2.472-6.18,3.708-10.025,3.708c-4.248,0-7.874-1.501-10.877-4.504s-4.504-6.629-4.504-10.877s1.501-7.873,4.504-10.877
		c3.003-3.002,6.629-4.504,10.877-4.504s7.873,1.502,10.877,4.504c3.002,3.004,4.504,6.629,4.504,10.877
		c0,0.604-0.216,1.122-0.646,1.552c-0.431,0.431-0.947,0.646-1.552,0.646h-23.978c0.402,2.105,1.409,3.965,3.021,5.575
		c2.142,2.143,4.732,3.214,7.772,3.214c2.746,0,5.108-0.869,7.086-2.609C194.972,350.424,195.43,350.268,195.942,350.268z
		 M198.277,340.16c-0.403-2.105-1.41-3.964-3.021-5.575c-2.142-2.143-4.733-3.214-7.772-3.214c-3.04,0-5.631,1.071-7.772,3.214
		c-1.612,1.611-2.619,3.47-3.021,5.575H198.277z"/>
	<path d="M224.967,350.213c0.604,0,1.121,0.215,1.552,0.646c0.43,0.43,0.646,0.947,0.646,1.552c0,0.604-0.229,1.145-0.687,1.62
		c-2.839,2.472-6.18,3.708-10.025,3.708c-4.248,0-7.874-1.501-10.877-4.504s-4.504-6.629-4.504-10.877s1.501-7.873,4.504-10.877
		c3.003-3.002,6.629-4.504,10.877-4.504c3.846,0,7.187,1.236,10.025,3.708c0.512,0.458,0.769,1.025,0.769,1.703
		c0,0.604-0.215,1.121-0.646,1.552c-0.431,0.43-0.947,0.646-1.552,0.646c-0.531,0-0.998-0.165-1.4-0.495
		c-2.051-1.812-4.45-2.719-7.196-2.719c-3.04,0-5.631,1.071-7.772,3.214c-2.143,2.142-3.214,4.733-3.214,7.772
		c0,3.04,1.071,5.631,3.214,7.772c2.142,2.143,4.732,3.214,7.772,3.214c2.746,0,5.136-0.896,7.169-2.691
		C224.005,350.359,224.454,350.213,224.967,350.213z"/>
	<path d="M239.901,353.344c0.604,0,1.121,0.216,1.552,0.646c0.43,0.431,0.646,0.947,0.646,1.552s-0.216,1.122-0.646,1.552
		c-0.431,0.431-0.947,0.646-1.552,0.646c-7.324,0-10.986-3.662-10.986-10.986v-15.381h-2.197c-0.604,0-1.122-0.215-1.552-0.646
		c-0.431-0.43-0.646-0.947-0.646-1.552s0.215-1.121,0.646-1.552c0.43-0.43,0.947-0.646,1.552-0.646h2.197V315.99
		c0-0.604,0.215-1.121,0.646-1.552c0.43-0.43,0.947-0.646,1.552-0.646s1.121,0.216,1.552,0.646c0.43,0.431,0.646,0.947,0.646,1.552
		v10.986h4.422c0.604,0,1.121,0.216,1.552,0.646c0.431,0.431,0.646,0.947,0.646,1.552s-0.215,1.122-0.646,1.552
		c-0.431,0.431-0.947,0.646-1.552,0.646h-4.422v15.381C233.31,351.146,235.507,353.344,239.901,353.344z"/>
</g>
<line fill="none" stroke="#000000" stroke-width="4.425" stroke-miterlimit="10" x1="4.487" y1="343.301" x2="4.487" y2="355.854"/>
<g>
	<path d="M4.487,353.408c-1.223,0-2.212,0.988-2.212,2.212s0.989,2.212,2.212,2.212c1.221,0,2.212-0.988,2.212-2.212
		S5.708,353.408,4.487,353.408L4.487,353.408z"/>
</g>
<g>
	<rect y="371.418" fill="none" width="246.714" height="52.186"/>
	<path d="M8.03,385.148c-0.8-0.299-1.358-0.61-1.674-0.936c-0.624-0.615-0.936-1.358-0.936-2.229s0.325-1.63,0.976-2.281
		c1.266-1.291,2.918-1.938,4.957-1.938c2.206,0,4.096,0.883,5.669,2.65c0.141,0.167,0.207,0.373,0.198,0.619
		c0,0.29-0.104,0.538-0.31,0.745c-0.207,0.206-0.455,0.31-0.745,0.31s-0.523-0.092-0.699-0.277
		c-0.176-0.184-0.303-0.316-0.382-0.395c-1.028-1.029-2.272-1.543-3.731-1.543s-2.624,0.457-3.494,1.371
		c-0.211,0.255-0.316,0.559-0.316,0.91c0.026,0.413,0.242,0.694,0.646,0.844l6.486,2.148c0.8,0.299,1.358,0.611,1.674,0.936
		c0.624,0.616,0.936,1.358,0.936,2.229s-0.325,1.631-0.976,2.281c-1.266,1.291-2.918,1.938-4.957,1.938
		c-2.215,0-4.104-0.883-5.669-2.65c-0.132-0.184-0.198-0.391-0.198-0.619c0-0.29,0.103-0.538,0.31-0.745
		c0.206-0.206,0.455-0.31,0.745-0.31s0.523,0.092,0.699,0.277c0.176,0.184,0.303,0.316,0.382,0.395
		c1.028,1.029,2.272,1.543,3.731,1.543s2.624-0.457,3.494-1.371c0.211-0.255,0.316-0.558,0.316-0.91
		c-0.026-0.412-0.242-0.693-0.646-0.844L8.03,385.148z"/>
	<path fill="#3399CC" d="M33.35,385.148c0,2.039-0.721,3.779-2.162,5.221s-3.182,2.162-5.221,2.162s-3.779-0.721-5.221-2.162
		s-2.162-3.182-2.162-5.221s0.721-3.779,2.162-5.221s3.182-2.162,5.221-2.162s3.779,0.721,5.221,2.162S33.35,383.109,33.35,385.148z
		 M25.967,379.875c-1.459,0-2.703,0.514-3.731,1.543c-1.028,1.027-1.542,2.271-1.542,3.73s0.514,2.703,1.542,3.73
		c1.028,1.029,2.272,1.543,3.731,1.543s2.703-0.514,3.731-1.543c1.028-1.027,1.542-2.271,1.542-3.73s-0.514-2.703-1.542-3.73
		C28.669,380.389,27.426,379.875,25.967,379.875z"/>
	<path d="M46.119,388.919c0.29,0,0.538,0.104,0.745,0.31c0.206,0.207,0.31,0.455,0.31,0.745s-0.11,0.55-0.33,0.778
		c-1.362,1.186-2.966,1.779-4.812,1.779c-2.039,0-3.779-0.721-5.221-2.162s-2.162-3.182-2.162-5.221s0.721-3.779,2.162-5.221
		s3.182-2.162,5.221-2.162c1.846,0,3.45,0.594,4.812,1.779c0.246,0.221,0.369,0.493,0.369,0.818c0,0.289-0.104,0.538-0.31,0.744
		c-0.207,0.207-0.455,0.311-0.745,0.311c-0.255,0-0.479-0.08-0.672-0.238c-0.984-0.869-2.136-1.305-3.454-1.305
		c-1.459,0-2.703,0.514-3.731,1.543c-1.028,1.027-1.542,2.271-1.542,3.73s0.514,2.703,1.542,3.73
		c1.028,1.029,2.272,1.543,3.731,1.543c1.318,0,2.465-0.431,3.441-1.292C45.657,388.989,45.873,388.919,46.119,388.919z"/>
	<path d="M52.032,374.602c0,0.36-0.13,0.67-0.389,0.93c-0.26,0.259-0.569,0.389-0.93,0.389s-0.67-0.13-0.93-0.389
		c-0.259-0.26-0.389-0.569-0.389-0.93s0.129-0.67,0.389-0.93c0.259-0.259,0.569-0.389,0.93-0.389s0.67,0.13,0.93,0.389
		C51.902,373.932,52.032,374.241,52.032,374.602z M49.659,378.82c0-0.29,0.103-0.538,0.31-0.745c0.207-0.206,0.455-0.31,0.745-0.31
		s0.538,0.104,0.745,0.31c0.206,0.207,0.31,0.455,0.31,0.745v12.656c0,0.29-0.104,0.538-0.31,0.745
		c-0.207,0.206-0.455,0.31-0.745,0.31s-0.539-0.104-0.745-0.31c-0.207-0.207-0.31-0.455-0.31-0.745V378.82z"/>
	<path d="M66.779,390.316c-1.477,1.477-3.234,2.215-5.273,2.215s-3.779-0.721-5.221-2.162s-2.162-3.182-2.162-5.221
		s0.721-3.779,2.162-5.221s3.182-2.162,5.221-2.162s3.779,0.721,5.221,2.162s2.162,3.182,2.162,5.221v6.328
		c0,0.29-0.104,0.538-0.31,0.745c-0.207,0.206-0.455,0.31-0.745,0.31s-0.539-0.104-0.745-0.31c-0.207-0.207-0.31-0.455-0.31-0.745
		V390.316z M61.505,379.875c-1.459,0-2.703,0.514-3.731,1.543c-1.028,1.027-1.542,2.271-1.542,3.73s0.514,2.703,1.542,3.73
		c1.028,1.029,2.272,1.543,3.731,1.543s2.703-0.514,3.731-1.543c1.028-1.027,1.542-2.271,1.542-3.73s-0.514-2.703-1.542-3.73
		C64.208,380.389,62.964,379.875,61.505,379.875z"/>
	<path d="M70.188,372.492c0-0.29,0.103-0.538,0.31-0.745c0.207-0.206,0.455-0.31,0.745-0.31s0.538,0.104,0.745,0.31
		c0.206,0.207,0.31,0.455,0.31,0.745v17.93h1.055c0.29,0,0.538,0.104,0.745,0.31c0.206,0.207,0.31,0.455,0.31,0.745
		s-0.104,0.538-0.31,0.745c-0.207,0.206-0.455,0.31-0.745,0.31h-2.109c-0.29,0-0.539-0.104-0.745-0.31
		c-0.207-0.207-0.31-0.455-0.31-0.745V372.492z"/>
	<path d="M84.916,379.98c0.018-0.018,0.035-0.035,0.053-0.053c1.441-1.441,3.182-2.162,5.221-2.162s3.779,0.721,5.221,2.162
		s2.162,3.182,2.162,5.221s-0.721,3.779-2.162,5.221s-3.182,2.162-5.221,2.162s-3.779-0.721-5.221-2.162s-2.162-3.182-2.162-5.221
		v-12.683c0-0.29,0.103-0.538,0.31-0.745c0.207-0.206,0.455-0.31,0.745-0.31s0.538,0.104,0.745,0.31
		c0.206,0.207,0.31,0.455,0.31,0.745V379.98z M90.189,390.422c1.459,0,2.703-0.514,3.731-1.543c1.028-1.027,1.542-2.271,1.542-3.73
		s-0.514-2.703-1.542-3.73c-1.028-1.029-2.272-1.543-3.731-1.543s-2.703,0.514-3.731,1.543c-1.028,1.027-1.542,2.271-1.542,3.73
		s0.514,2.703,1.542,3.73C87.486,389.908,88.73,390.422,90.189,390.422z"/>
	<path d="M102.299,374.602c0,0.36-0.13,0.67-0.389,0.93c-0.26,0.259-0.569,0.389-0.93,0.389s-0.67-0.13-0.93-0.389
		c-0.259-0.26-0.389-0.569-0.389-0.93s0.129-0.67,0.389-0.93c0.259-0.259,0.569-0.389,0.93-0.389s0.67,0.13,0.93,0.389
		C102.169,373.932,102.299,374.241,102.299,374.602z M99.926,378.82c0-0.29,0.103-0.538,0.31-0.745
		c0.207-0.206,0.455-0.31,0.745-0.31s0.538,0.104,0.745,0.31c0.206,0.207,0.31,0.455,0.31,0.745v12.656
		c0,0.29-0.104,0.538-0.31,0.745c-0.207,0.206-0.455,0.31-0.745,0.31s-0.539-0.104-0.745-0.31c-0.207-0.207-0.31-0.455-0.31-0.745
		V378.82z"/>
	<path d="M111.772,390.422c0.29,0,0.538,0.104,0.745,0.31c0.206,0.207,0.31,0.455,0.31,0.745s-0.104,0.538-0.31,0.745
		c-0.207,0.206-0.455,0.31-0.745,0.31c-3.516,0-5.273-1.758-5.273-5.273v-7.383h-1.055c-0.29,0-0.539-0.104-0.745-0.31
		c-0.207-0.207-0.31-0.455-0.31-0.745s0.103-0.538,0.31-0.745c0.207-0.206,0.455-0.31,0.745-0.31h1.055v-5.273
		c0-0.29,0.103-0.538,0.31-0.745c0.207-0.206,0.455-0.31,0.745-0.31s0.538,0.104,0.745,0.31c0.206,0.207,0.31,0.455,0.31,0.745
		v5.273h2.123c0.29,0,0.538,0.104,0.745,0.31c0.207,0.207,0.31,0.455,0.31,0.745s-0.104,0.538-0.31,0.745
		c-0.207,0.206-0.455,0.31-0.745,0.31h-2.123v7.383C108.608,389.367,109.663,390.422,111.772,390.422z"/>
	<path d="M124.409,388.919c0.29,0,0.538,0.104,0.745,0.31c0.206,0.207,0.31,0.455,0.31,0.745s-0.11,0.55-0.33,0.778
		c-1.362,1.186-2.966,1.779-4.812,1.779c-2.039,0-3.779-0.721-5.221-2.162s-2.162-3.182-2.162-5.221s0.721-3.779,2.162-5.221
		s3.182-2.162,5.221-2.162c1.846,0,3.45,0.594,4.812,1.779c0.246,0.221,0.37,0.493,0.37,0.818c0,0.289-0.104,0.538-0.311,0.744
		c-0.207,0.207-0.455,0.311-0.745,0.311c-0.255,0-0.479-0.08-0.672-0.238c-0.984-0.869-2.136-1.305-3.454-1.305
		c-1.459,0-2.703,0.514-3.731,1.543c-1.028,1.027-1.542,2.271-1.542,3.73s0.514,2.703,1.542,3.73
		c1.028,1.029,2.272,1.543,3.731,1.543c1.318,0,2.465-0.431,3.441-1.292C123.948,388.989,124.163,388.919,124.409,388.919z"/>
	<path fill="#3399CC" d="M141.661,385.148c0,2.039-0.721,3.779-2.162,5.221s-3.182,2.162-5.221,2.162s-3.779-0.721-5.221-2.162
		s-2.162-3.182-2.162-5.221s0.721-3.779,2.162-5.221s3.182-2.162,5.221-2.162s3.779,0.721,5.221,2.162
		S141.661,383.109,141.661,385.148z M134.278,379.875c-1.459,0-2.703,0.514-3.73,1.543c-1.029,1.027-1.543,2.271-1.543,3.73
		s0.514,2.703,1.543,3.73c1.027,1.029,2.271,1.543,3.73,1.543s2.703-0.514,3.73-1.543c1.029-1.027,1.543-2.271,1.543-3.73
		s-0.514-2.703-1.543-3.73C136.981,380.389,135.737,379.875,134.278,379.875z"/>
	<path d="M146.389,374.602c0,0.36-0.13,0.67-0.389,0.93c-0.26,0.259-0.569,0.389-0.93,0.389s-0.67-0.13-0.93-0.389
		c-0.259-0.26-0.389-0.569-0.389-0.93s0.13-0.67,0.389-0.93c0.26-0.259,0.569-0.389,0.93-0.389s0.67,0.13,0.93,0.389
		C146.259,373.932,146.389,374.241,146.389,374.602z M144.016,378.82c0-0.29,0.104-0.538,0.31-0.745
		c0.207-0.206,0.455-0.31,0.745-0.31s0.538,0.104,0.745,0.31c0.206,0.207,0.31,0.455,0.31,0.745v12.656
		c0,0.29-0.104,0.538-0.31,0.745c-0.207,0.206-0.455,0.31-0.745,0.31s-0.538-0.104-0.745-0.31c-0.206-0.207-0.31-0.455-0.31-0.745
		V378.82z"/>
	<path d="M148.479,378.82c0-0.29,0.104-0.538,0.31-0.745c0.207-0.206,0.455-0.31,0.745-0.31s0.538,0.104,0.745,0.31
		c0.206,0.207,0.31,0.455,0.31,0.745v0.857c1.318-1.274,2.9-1.912,4.746-1.912c1.89,0,3.505,0.67,4.845,2.011
		c1.341,1.34,2.011,2.955,2.011,4.845v6.855c0,0.29-0.104,0.538-0.31,0.745c-0.207,0.206-0.455,0.31-0.745,0.31
		s-0.538-0.104-0.745-0.31c-0.206-0.207-0.31-0.455-0.31-0.745v-6.855c0-1.31-0.464-2.428-1.391-3.355
		c-0.928-0.927-2.046-1.391-3.355-1.391s-2.428,0.464-3.355,1.391c-0.927,0.928-1.391,2.046-1.391,3.355v6.855
		c0,0.29-0.104,0.538-0.31,0.745c-0.207,0.206-0.455,0.31-0.745,0.31s-0.538-0.104-0.745-0.31c-0.206-0.207-0.31-0.455-0.31-0.745
		V378.82z"/>
	<path d="M179.343,378.068c0.202-0.201,0.448-0.303,0.738-0.303s0.541,0.102,0.752,0.303c0.131,0.142,0.224,0.304,0.276,0.488
		l3.19,9.584l3.256-9.769c0.053-0.105,0.128-0.206,0.225-0.304c0.202-0.201,0.448-0.303,0.738-0.303s0.538,0.104,0.745,0.31
		c0.206,0.207,0.31,0.455,0.31,0.745c0,0.141-0.026,0.277-0.079,0.408l-4.206,12.631c-0.053,0.131-0.131,0.259-0.236,0.382
		c-0.211,0.193-0.462,0.29-0.752,0.29s-0.536-0.097-0.738-0.29c-0.114-0.123-0.197-0.251-0.25-0.382l-3.23-9.703l-3.23,9.703
		c-0.053,0.131-0.131,0.259-0.236,0.382c-0.211,0.193-0.462,0.29-0.752,0.29s-0.536-0.097-0.738-0.29
		c-0.114-0.123-0.197-0.251-0.25-0.382l-4.206-12.631c-0.053-0.131-0.079-0.268-0.079-0.408c0-0.29,0.104-0.538,0.31-0.745
		c0.207-0.206,0.455-0.31,0.745-0.31s0.541,0.102,0.752,0.303c0.087,0.098,0.158,0.198,0.211,0.304l3.256,9.769l3.19-9.584
		C179.114,378.372,179.211,378.21,179.343,378.068z"/>
	<path d="M203.529,390.316c-1.477,1.477-3.234,2.215-5.273,2.215s-3.779-0.721-5.221-2.162s-2.162-3.182-2.162-5.221
		s0.721-3.779,2.162-5.221s3.182-2.162,5.221-2.162s3.779,0.721,5.221,2.162s2.162,3.182,2.162,5.221v6.328
		c0,0.29-0.104,0.538-0.31,0.745c-0.207,0.206-0.455,0.31-0.745,0.31s-0.538-0.104-0.745-0.31c-0.206-0.207-0.31-0.455-0.31-0.745
		V390.316z M198.256,379.875c-1.459,0-2.703,0.514-3.73,1.543c-1.029,1.027-1.543,2.271-1.543,3.73s0.514,2.703,1.543,3.73
		c1.027,1.029,2.271,1.543,3.73,1.543s2.703-0.514,3.73-1.543c1.029-1.027,1.543-2.271,1.543-3.73s-0.514-2.703-1.543-3.73
		C200.959,380.389,199.715,379.875,198.256,379.875z"/>
	<path d="M206.938,372.492c0-0.29,0.104-0.538,0.31-0.745c0.207-0.206,0.455-0.31,0.745-0.31s0.538,0.104,0.745,0.31
		c0.206,0.207,0.31,0.455,0.31,0.745v17.93h1.055c0.29,0,0.538,0.104,0.745,0.31c0.206,0.207,0.31,0.455,0.31,0.745
		s-0.104,0.538-0.31,0.745c-0.207,0.206-0.455,0.31-0.745,0.31h-2.109c-0.29,0-0.538-0.104-0.745-0.31
		c-0.206-0.207-0.31-0.455-0.31-0.745V372.492z"/>
	<path d="M212.456,372.492c0-0.29,0.104-0.538,0.31-0.745c0.207-0.206,0.455-0.31,0.745-0.31s0.538,0.104,0.745,0.31
		c0.206,0.207,0.31,0.455,0.31,0.745v17.93h1.055c0.29,0,0.538,0.104,0.745,0.31c0.206,0.207,0.31,0.455,0.31,0.745
		s-0.104,0.538-0.31,0.745c-0.207,0.206-0.455,0.31-0.745,0.31h-2.109c-0.29,0-0.538-0.104-0.745-0.31
		c-0.206-0.207-0.31-0.455-0.31-0.745V372.492z"/>
	<path d="M229.418,388.945c0.29,0,0.538,0.104,0.745,0.31c0.206,0.207,0.31,0.455,0.31,0.745s-0.102,0.541-0.303,0.752
		c-1.363,1.186-2.967,1.779-4.812,1.779c-2.039,0-3.779-0.721-5.221-2.162s-2.162-3.182-2.162-5.221s0.721-3.779,2.162-5.221
		s3.182-2.162,5.221-2.162s3.779,0.721,5.221,2.162s2.162,3.182,2.162,5.221c0,0.29-0.104,0.538-0.31,0.745
		c-0.207,0.206-0.455,0.31-0.745,0.31h-11.51c0.193,1.011,0.677,1.903,1.451,2.676c1.027,1.029,2.271,1.543,3.73,1.543
		c1.318,0,2.452-0.417,3.401-1.252C228.952,389.021,229.172,388.945,229.418,388.945z M230.539,384.094
		c-0.194-1.011-0.678-1.902-1.451-2.676c-1.027-1.029-2.271-1.543-3.73-1.543s-2.703,0.514-3.73,1.543
		c-0.774,0.773-1.258,1.665-1.451,2.676H230.539z"/>
	<path d="M240.235,390.422c0.29,0,0.538,0.104,0.745,0.31c0.206,0.207,0.31,0.455,0.31,0.745s-0.104,0.538-0.31,0.745
		c-0.207,0.206-0.455,0.31-0.745,0.31c-3.516,0-5.273-1.758-5.273-5.273v-7.383h-1.055c-0.29,0-0.538-0.104-0.745-0.31
		c-0.206-0.207-0.31-0.455-0.31-0.745s0.104-0.538,0.31-0.745c0.207-0.206,0.455-0.31,0.745-0.31h1.055v-5.273
		c0-0.29,0.104-0.538,0.31-0.745c0.207-0.206,0.455-0.31,0.745-0.31s0.538,0.104,0.745,0.31c0.206,0.207,0.31,0.455,0.31,0.745
		v5.273h2.123c0.289,0,0.538,0.104,0.744,0.31c0.207,0.207,0.311,0.455,0.311,0.745s-0.104,0.538-0.311,0.745
		c-0.206,0.206-0.455,0.31-0.744,0.31h-2.123v7.383C237.071,389.367,238.126,390.422,240.235,390.422z"/>
	<path d="M29.2,412.559c0.01-0.01,0.02-0.02,0.029-0.029c0.801-0.801,1.768-1.201,2.9-1.201s2.1,0.4,2.9,1.201
		s1.201,1.768,1.201,2.9s-0.4,2.1-1.201,2.9s-1.768,1.201-2.9,1.201s-2.1-0.4-2.9-1.201s-1.201-1.768-1.201-2.9v-7.046
		c0-0.161,0.057-0.299,0.172-0.414c0.115-0.114,0.253-0.172,0.414-0.172s0.299,0.058,0.414,0.172
		c0.114,0.115,0.172,0.253,0.172,0.414V412.559z M32.129,418.359c0.811,0,1.501-0.285,2.073-0.857
		c0.571-0.57,0.857-1.262,0.857-2.072s-0.286-1.502-0.857-2.072c-0.571-0.572-1.262-0.857-2.073-0.857s-1.501,0.285-2.073,0.857
		c-0.571,0.57-0.857,1.262-0.857,2.072s0.286,1.502,0.857,2.072C30.628,418.074,31.319,418.359,32.129,418.359z"/>
	<path d="M39.384,418.938l-2.812-6.752c-0.044-0.083-0.066-0.174-0.066-0.271c0-0.161,0.057-0.299,0.172-0.414
		c0.115-0.114,0.253-0.172,0.414-0.172s0.3,0.057,0.417,0.168c0.063,0.069,0.11,0.143,0.139,0.221l2.373,5.69l2.373-5.69
		c0.029-0.078,0.078-0.151,0.146-0.221c0.112-0.111,0.249-0.168,0.41-0.168s0.299,0.058,0.414,0.172
		c0.114,0.115,0.172,0.253,0.172,0.414c0,0.098-0.022,0.188-0.066,0.271l-4.365,10.473c-0.029,0.078-0.076,0.149-0.139,0.213
		c-0.117,0.117-0.256,0.176-0.417,0.176s-0.299-0.058-0.414-0.172c-0.115-0.115-0.172-0.253-0.172-0.414
		c0-0.098,0.022-0.188,0.066-0.271L39.384,418.938z"/>
	<path d="M55.235,418.301c-0.82,0.82-1.797,1.23-2.93,1.23s-2.1-0.4-2.9-1.201s-1.201-1.768-1.201-2.9s0.4-2.1,1.201-2.9
		s1.768-1.201,2.9-1.201s2.1,0.4,2.9,1.201s1.201,1.768,1.201,2.9v3.516c0,0.161-0.058,0.299-0.172,0.414
		c-0.115,0.114-0.253,0.172-0.414,0.172s-0.299-0.058-0.414-0.172c-0.115-0.115-0.172-0.253-0.172-0.414V418.301z M52.305,412.5
		c-0.811,0-1.501,0.285-2.073,0.857c-0.571,0.57-0.857,1.262-0.857,2.072s0.286,1.502,0.857,2.072
		c0.571,0.572,1.262,0.857,2.073,0.857s1.501-0.285,2.073-0.857c0.571-0.57,0.857-1.262,0.857-2.072s-0.286-1.502-0.857-2.072
		C53.807,412.785,53.116,412.5,52.305,412.5z"/>
	<path d="M64.746,418.945c0,0.161-0.058,0.299-0.172,0.414c-0.115,0.114-0.253,0.172-0.414,0.172s-0.299-0.058-0.414-0.172
		c-0.115-0.115-0.172-0.253-0.172-0.414v-0.477c-0.732,0.709-1.611,1.062-2.637,1.062c-1.05,0-1.947-0.372-2.691-1.117
		c-0.745-0.744-1.117-1.642-1.117-2.691v-3.809c0-0.161,0.057-0.299,0.172-0.414c0.115-0.114,0.253-0.172,0.414-0.172
		s0.299,0.058,0.414,0.172c0.114,0.115,0.172,0.253,0.172,0.414v3.809c0,0.728,0.257,1.349,0.772,1.864
		c0.515,0.515,1.137,0.772,1.864,0.772s1.349-0.258,1.864-0.772c0.515-0.516,0.772-1.137,0.772-1.864v-3.809
		c0-0.161,0.057-0.299,0.172-0.414c0.115-0.114,0.253-0.172,0.414-0.172s0.299,0.058,0.414,0.172
		c0.114,0.115,0.172,0.253,0.172,0.414V418.945z"/>
	<path d="M69.569,418.359c0.161,0,0.299,0.058,0.414,0.172c0.114,0.115,0.172,0.253,0.172,0.414s-0.058,0.299-0.172,0.414
		c-0.115,0.114-0.253,0.172-0.414,0.172c-1.953,0-2.93-0.977-2.93-2.93V412.5h-0.586c-0.161,0-0.299-0.058-0.414-0.172
		c-0.115-0.115-0.172-0.253-0.172-0.414s0.057-0.299,0.172-0.414c0.115-0.114,0.253-0.172,0.414-0.172h0.586v-2.93
		c0-0.161,0.057-0.299,0.172-0.414c0.115-0.114,0.253-0.172,0.414-0.172s0.299,0.058,0.414,0.172
		c0.114,0.115,0.172,0.253,0.172,0.414v2.93h1.179c0.161,0,0.299,0.058,0.414,0.172c0.115,0.115,0.172,0.253,0.172,0.414
		s-0.058,0.299-0.172,0.414c-0.115,0.114-0.252,0.172-0.414,0.172h-1.179v4.102C67.812,417.773,68.397,418.359,69.569,418.359z"/>
	<path fill="#3399CC" d="M78.633,415.43c0,1.133-0.4,2.1-1.201,2.9s-1.768,1.201-2.9,1.201s-2.1-0.4-2.9-1.201
		s-1.201-1.768-1.201-2.9s0.4-2.1,1.201-2.9s1.768-1.201,2.9-1.201s2.1,0.4,2.9,1.201S78.633,414.297,78.633,415.43z M74.532,412.5
		c-0.811,0-1.501,0.285-2.073,0.857c-0.571,0.57-0.857,1.262-0.857,2.072s0.286,1.502,0.857,2.072
		c0.571,0.572,1.262,0.857,2.073,0.857s1.501-0.285,2.073-0.857c0.571-0.57,0.857-1.262,0.857-2.072s-0.286-1.502-0.857-2.072
		C76.033,412.785,75.342,412.5,74.532,412.5z"/>
	<path d="M80.527,418.945c0,0.161-0.058,0.299-0.172,0.414c-0.115,0.114-0.253,0.172-0.414,0.172s-0.299-0.058-0.414-0.172
		c-0.115-0.115-0.172-0.253-0.172-0.414v-7.031c0-0.161,0.057-0.299,0.172-0.414c0.115-0.114,0.253-0.172,0.414-0.172
		s0.299,0.058,0.414,0.172c0.114,0.115,0.172,0.253,0.172,0.414v0.154c0.581-0.493,1.265-0.74,2.051-0.74
		c0.889,0,1.648,0.314,2.278,0.945c0.132,0.131,0.251,0.271,0.359,0.417c0.107-0.146,0.227-0.286,0.359-0.417
		c0.63-0.631,1.389-0.945,2.278-0.945s1.648,0.314,2.278,0.945c0.63,0.629,0.945,1.389,0.945,2.277v4.395
		c0,0.161-0.058,0.299-0.172,0.414c-0.115,0.114-0.253,0.172-0.414,0.172s-0.299-0.058-0.414-0.172
		c-0.115-0.115-0.172-0.253-0.172-0.414v-4.395c0-0.566-0.2-1.05-0.601-1.45s-0.884-0.601-1.45-0.601s-1.05,0.2-1.45,0.601
		s-0.601,0.884-0.601,1.45v4.395c0,0.161-0.058,0.299-0.172,0.414c-0.115,0.114-0.253,0.172-0.414,0.172s-0.299-0.058-0.414-0.172
		c-0.115-0.115-0.172-0.253-0.172-0.414v-4.395c0-0.566-0.2-1.05-0.601-1.45s-0.884-0.601-1.45-0.601s-1.05,0.2-1.45,0.601
		s-0.601,0.884-0.601,1.45V418.945z"/>
	<path d="M98.827,418.301c-0.82,0.82-1.797,1.23-2.93,1.23s-2.1-0.4-2.9-1.201s-1.201-1.768-1.201-2.9s0.4-2.1,1.201-2.9
		s1.768-1.201,2.9-1.201s2.1,0.4,2.9,1.201s1.201,1.768,1.201,2.9v3.516c0,0.161-0.058,0.299-0.172,0.414
		c-0.115,0.114-0.253,0.172-0.414,0.172s-0.299-0.058-0.414-0.172c-0.115-0.115-0.172-0.253-0.172-0.414V418.301z M95.897,412.5
		c-0.811,0-1.501,0.285-2.073,0.857c-0.571,0.57-0.857,1.262-0.857,2.072s0.286,1.502,0.857,2.072
		c0.571,0.572,1.262,0.857,2.073,0.857s1.501-0.285,2.073-0.857c0.571-0.57,0.857-1.262,0.857-2.072s-0.286-1.502-0.857-2.072
		C97.399,412.785,96.708,412.5,95.897,412.5z"/>
	<path d="M104.164,418.359c0.161,0,0.299,0.058,0.414,0.172c0.114,0.115,0.172,0.253,0.172,0.414s-0.058,0.299-0.172,0.414
		c-0.115,0.114-0.253,0.172-0.414,0.172c-1.953,0-2.93-0.977-2.93-2.93V412.5h-0.586c-0.161,0-0.299-0.058-0.414-0.172
		c-0.115-0.115-0.172-0.253-0.172-0.414s0.057-0.299,0.172-0.414c0.115-0.114,0.253-0.172,0.414-0.172h0.586v-2.93
		c0-0.161,0.057-0.299,0.172-0.414c0.115-0.114,0.253-0.172,0.414-0.172s0.299,0.058,0.414,0.172
		c0.114,0.115,0.172,0.253,0.172,0.414v2.93h1.179c0.161,0,0.299,0.058,0.414,0.172c0.115,0.115,0.172,0.253,0.172,0.414
		s-0.058,0.299-0.172,0.414c-0.115,0.114-0.252,0.172-0.414,0.172h-1.179v4.102C102.406,417.773,102.992,418.359,104.164,418.359z"
		/>
	<path d="M107.375,409.57c0,0.2-0.072,0.372-0.216,0.517c-0.145,0.144-0.316,0.216-0.517,0.216s-0.373-0.072-0.517-0.216
		c-0.144-0.145-0.216-0.316-0.216-0.517s0.072-0.372,0.216-0.517c0.144-0.144,0.316-0.216,0.517-0.216s0.372,0.072,0.517,0.216
		C107.303,409.198,107.375,409.37,107.375,409.57z M106.057,411.914c0-0.161,0.057-0.299,0.172-0.414
		c0.115-0.114,0.253-0.172,0.414-0.172s0.299,0.058,0.414,0.172c0.114,0.115,0.172,0.253,0.172,0.414v7.031
		c0,0.161-0.058,0.299-0.172,0.414c-0.115,0.114-0.253,0.172-0.414,0.172s-0.299-0.058-0.414-0.172
		c-0.115-0.115-0.172-0.253-0.172-0.414V411.914z"/>
	<path d="M114.909,417.524c0.161,0,0.299,0.058,0.414,0.172c0.114,0.115,0.172,0.253,0.172,0.414s-0.061,0.306-0.183,0.433
		c-0.757,0.658-1.648,0.988-2.673,0.988c-1.133,0-2.1-0.4-2.9-1.201s-1.201-1.768-1.201-2.9s0.4-2.1,1.201-2.9
		s1.768-1.201,2.9-1.201c1.025,0,1.917,0.33,2.673,0.988c0.137,0.123,0.205,0.274,0.205,0.455c0,0.16-0.058,0.299-0.172,0.413
		c-0.115,0.115-0.252,0.173-0.414,0.173c-0.142,0-0.266-0.045-0.374-0.133c-0.547-0.482-1.187-0.725-1.919-0.725
		c-0.811,0-1.501,0.285-2.073,0.857c-0.571,0.57-0.857,1.262-0.857,2.072s0.286,1.502,0.857,2.072
		c0.571,0.572,1.262,0.857,2.073,0.857c0.732,0,1.37-0.239,1.912-0.718C114.652,417.563,114.772,417.524,114.909,417.524z"/>
	<path d="M124.921,407.812c0.161,0,0.299,0.058,0.414,0.172c0.114,0.115,0.172,0.253,0.172,0.414s-0.059,0.299-0.172,0.414
		c-0.115,0.114-0.253,0.172-0.414,0.172c-1.562,0-2.344,0.781-2.344,2.344v0.439h1.765c0.161,0,0.299,0.058,0.414,0.172
		c0.115,0.115,0.172,0.253,0.172,0.414s-0.058,0.299-0.172,0.414c-0.115,0.114-0.252,0.172-0.414,0.172h-1.765v6.006
		c0,0.161-0.058,0.299-0.172,0.414c-0.115,0.114-0.253,0.172-0.414,0.172s-0.299-0.058-0.414-0.172
		c-0.115-0.115-0.172-0.253-0.172-0.414v-6.006h-0.586c-0.161,0-0.299-0.058-0.414-0.172c-0.115-0.115-0.172-0.253-0.172-0.414
		s0.057-0.299,0.172-0.414c0.115-0.114,0.253-0.172,0.414-0.172h0.586v-0.439C121.406,408.984,122.578,407.812,124.921,407.812z"/>
	<path fill="#3399CC" d="M133.847,415.43c0,1.133-0.4,2.1-1.201,2.9s-1.768,1.201-2.9,1.201s-2.1-0.4-2.9-1.201
		s-1.201-1.768-1.201-2.9s0.4-2.1,1.201-2.9s1.768-1.201,2.9-1.201s2.1,0.4,2.9,1.201S133.847,414.297,133.847,415.43z
		 M129.745,412.5c-0.811,0-1.502,0.285-2.072,0.857c-0.572,0.57-0.857,1.262-0.857,2.072s0.285,1.502,0.857,2.072
		c0.57,0.572,1.262,0.857,2.072,0.857s1.502-0.285,2.072-0.857c0.572-0.57,0.857-1.262,0.857-2.072s-0.285-1.502-0.857-2.072
		C131.247,412.785,130.556,412.5,129.745,412.5z"/>
	<path d="M134.568,411.914c0-0.161,0.058-0.299,0.172-0.414c0.115-0.114,0.253-0.172,0.414-0.172s0.299,0.058,0.414,0.172
		c0.114,0.115,0.172,0.253,0.172,0.414v0.645c0.82-0.82,1.797-1.23,2.93-1.23c0.571,0,1.096,0.098,1.574,0.293
		c0.088,0.034,0.169,0.086,0.242,0.154c0.112,0.117,0.168,0.256,0.168,0.417s-0.057,0.299-0.172,0.414
		c-0.114,0.114-0.252,0.172-0.414,0.172c-0.093,0-0.178-0.02-0.256-0.059c-0.347-0.146-0.728-0.22-1.143-0.22
		c-0.811,0-1.502,0.285-2.072,0.857c-0.572,0.57-0.857,1.262-0.857,2.072v3.516c0,0.161-0.058,0.299-0.172,0.414
		c-0.115,0.114-0.253,0.172-0.414,0.172s-0.299-0.058-0.414-0.172c-0.114-0.115-0.172-0.253-0.172-0.414V411.914z"/>
	<path d="M149.195,418.359c0.161,0,0.299,0.058,0.414,0.172c0.114,0.115,0.172,0.253,0.172,0.414s-0.058,0.299-0.172,0.414
		c-0.115,0.114-0.253,0.172-0.414,0.172c-1.953,0-2.93-0.977-2.93-2.93V412.5h-0.586c-0.161,0-0.299-0.058-0.414-0.172
		c-0.114-0.115-0.172-0.253-0.172-0.414s0.058-0.299,0.172-0.414c0.115-0.114,0.253-0.172,0.414-0.172h0.586v-2.93
		c0-0.161,0.058-0.299,0.172-0.414c0.115-0.114,0.253-0.172,0.414-0.172s0.299,0.058,0.414,0.172
		c0.114,0.115,0.172,0.253,0.172,0.414v2.93h1.18c0.16,0,0.299,0.058,0.413,0.172c0.115,0.115,0.173,0.253,0.173,0.414
		s-0.058,0.299-0.173,0.414c-0.114,0.114-0.253,0.172-0.413,0.172h-1.18v4.102C147.438,417.773,148.023,418.359,149.195,418.359z"/>
	<path d="M150.504,408.398c0-0.161,0.058-0.299,0.172-0.414c0.115-0.114,0.253-0.172,0.414-0.172s0.299,0.058,0.414,0.172
		c0.114,0.115,0.172,0.253,0.172,0.414v3.992c0.732-0.708,1.611-1.062,2.637-1.062c1.05,0,1.947,0.372,2.691,1.117
		c0.745,0.744,1.117,1.642,1.117,2.691v3.809c0,0.161-0.058,0.299-0.172,0.414c-0.115,0.114-0.253,0.172-0.414,0.172
		s-0.299-0.058-0.414-0.172c-0.114-0.115-0.172-0.253-0.172-0.414v-3.809c0-0.728-0.258-1.349-0.772-1.864
		c-0.516-0.515-1.137-0.772-1.864-0.772s-1.349,0.258-1.864,0.772c-0.515,0.516-0.772,1.137-0.772,1.864v3.809
		c0,0.161-0.058,0.299-0.172,0.414c-0.115,0.114-0.253,0.172-0.414,0.172s-0.299-0.058-0.414-0.172
		c-0.114-0.115-0.172-0.253-0.172-0.414V408.398z"/>
	<path d="M165.2,417.539c0.161,0,0.299,0.058,0.414,0.172c0.114,0.115,0.172,0.253,0.172,0.414s-0.057,0.301-0.168,0.418
		c-0.758,0.658-1.648,0.988-2.674,0.988c-1.133,0-2.1-0.4-2.9-1.201s-1.201-1.768-1.201-2.9s0.4-2.1,1.201-2.9
		s1.768-1.201,2.9-1.201s2.1,0.4,2.9,1.201s1.201,1.768,1.201,2.9c0,0.161-0.058,0.299-0.172,0.414
		c-0.115,0.114-0.253,0.172-0.414,0.172h-6.395c0.107,0.562,0.376,1.058,0.807,1.486c0.57,0.572,1.262,0.857,2.072,0.857
		c0.732,0,1.362-0.231,1.89-0.695C164.941,417.581,165.063,417.539,165.2,417.539z M165.823,414.844
		c-0.108-0.562-0.377-1.057-0.807-1.486c-0.57-0.572-1.262-0.857-2.072-0.857s-1.502,0.285-2.072,0.857
		c-0.431,0.43-0.699,0.925-0.807,1.486H165.823z"/>
	<path d="M172.884,422.461c0,0.161-0.058,0.299-0.172,0.414c-0.115,0.114-0.253,0.172-0.414,0.172s-0.299-0.058-0.414-0.172
		c-0.114-0.115-0.172-0.253-0.172-0.414v-7.031c0-1.133,0.4-2.1,1.201-2.9s1.768-1.201,2.9-1.201s2.1,0.4,2.9,1.201
		s1.201,1.768,1.201,2.9s-0.4,2.1-1.201,2.9s-1.768,1.201-2.9,1.201s-2.1-0.4-2.9-1.201c-0.01-0.01-0.02-0.02-0.029-0.029V422.461z
		 M172.884,415.43c0,0.811,0.285,1.502,0.857,2.072c0.57,0.572,1.262,0.857,2.072,0.857s1.502-0.285,2.072-0.857
		c0.572-0.57,0.857-1.262,0.857-2.072s-0.285-1.502-0.857-2.072c-0.57-0.572-1.262-0.857-2.072-0.857s-1.502,0.285-2.072,0.857
		C173.169,413.928,172.884,414.619,172.884,415.43z"/>
	<path d="M186.994,417.539c0.161,0,0.299,0.058,0.414,0.172c0.114,0.115,0.172,0.253,0.172,0.414s-0.057,0.301-0.168,0.418
		c-0.758,0.658-1.648,0.988-2.674,0.988c-1.133,0-2.1-0.4-2.9-1.201s-1.201-1.768-1.201-2.9s0.4-2.1,1.201-2.9
		s1.768-1.201,2.9-1.201s2.1,0.4,2.9,1.201s1.201,1.768,1.201,2.9c0,0.161-0.058,0.299-0.172,0.414
		c-0.115,0.114-0.253,0.172-0.414,0.172h-6.395c0.107,0.562,0.376,1.058,0.807,1.486c0.57,0.572,1.262,0.857,2.072,0.857
		c0.732,0,1.362-0.231,1.89-0.695C186.735,417.581,186.857,417.539,186.994,417.539z M187.617,414.844
		c-0.108-0.562-0.377-1.057-0.807-1.486c-0.57-0.572-1.262-0.857-2.072-0.857s-1.502,0.285-2.072,0.857
		c-0.431,0.43-0.699,0.925-0.807,1.486H187.617z"/>
	<path fill="#3399CC" d="M197.766,415.43c0,1.133-0.4,2.1-1.201,2.9s-1.768,1.201-2.9,1.201s-2.1-0.4-2.9-1.201
		s-1.201-1.768-1.201-2.9s0.4-2.1,1.201-2.9s1.768-1.201,2.9-1.201s2.1,0.4,2.9,1.201S197.766,414.297,197.766,415.43z
		 M193.664,412.5c-0.811,0-1.502,0.285-2.072,0.857c-0.572,0.57-0.857,1.262-0.857,2.072s0.285,1.502,0.857,2.072
		c0.57,0.572,1.262,0.857,2.072,0.857s1.502-0.285,2.072-0.857c0.572-0.57,0.857-1.262,0.857-2.072s-0.285-1.502-0.857-2.072
		C195.166,412.785,194.475,412.5,193.664,412.5z"/>
	<path d="M199.659,422.461c0,0.161-0.058,0.299-0.172,0.414c-0.115,0.114-0.253,0.172-0.414,0.172s-0.299-0.058-0.414-0.172
		c-0.114-0.115-0.172-0.253-0.172-0.414v-7.031c0-1.133,0.4-2.1,1.201-2.9s1.768-1.201,2.9-1.201s2.1,0.4,2.9,1.201
		s1.201,1.768,1.201,2.9s-0.4,2.1-1.201,2.9s-1.768,1.201-2.9,1.201s-2.1-0.4-2.9-1.201c-0.01-0.01-0.02-0.02-0.029-0.029V422.461z
		 M199.659,415.43c0,0.811,0.285,1.502,0.857,2.072c0.57,0.572,1.262,0.857,2.072,0.857s1.502-0.285,2.072-0.857
		c0.572-0.57,0.857-1.262,0.857-2.072s-0.285-1.502-0.857-2.072c-0.57-0.572-1.262-0.857-2.072-0.857s-1.502,0.285-2.072,0.857
		C199.944,413.928,199.659,414.619,199.659,415.43z"/>
	<path d="M207.412,408.398c0-0.161,0.058-0.299,0.172-0.414c0.115-0.114,0.253-0.172,0.414-0.172s0.299,0.058,0.414,0.172
		c0.114,0.115,0.172,0.253,0.172,0.414v9.961h0.586c0.161,0,0.299,0.058,0.414,0.172c0.114,0.115,0.172,0.253,0.172,0.414
		s-0.058,0.299-0.172,0.414c-0.115,0.114-0.253,0.172-0.414,0.172h-1.172c-0.161,0-0.299-0.058-0.414-0.172
		c-0.114-0.115-0.172-0.253-0.172-0.414V408.398z"/>
	<path d="M216.835,417.539c0.161,0,0.299,0.058,0.414,0.172c0.114,0.115,0.172,0.253,0.172,0.414s-0.057,0.301-0.168,0.418
		c-0.758,0.658-1.648,0.988-2.674,0.988c-1.133,0-2.1-0.4-2.9-1.201s-1.201-1.768-1.201-2.9s0.4-2.1,1.201-2.9
		s1.768-1.201,2.9-1.201s2.1,0.4,2.9,1.201s1.201,1.768,1.201,2.9c0,0.161-0.058,0.299-0.172,0.414
		c-0.115,0.114-0.253,0.172-0.414,0.172H211.7c0.107,0.562,0.376,1.058,0.807,1.486c0.57,0.572,1.262,0.857,2.072,0.857
		c0.732,0,1.362-0.231,1.89-0.695C216.576,417.581,216.698,417.539,216.835,417.539z M217.458,414.844
		c-0.108-0.562-0.377-1.057-0.807-1.486c-0.57-0.572-1.262-0.857-2.072-0.857s-1.502,0.285-2.072,0.857
		c-0.431,0.43-0.699,0.925-0.807,1.486H217.458z"/>
</g>
<g>
</g>
<g>
</g>
<g>
</g>
<g>
</g>
<g>
</g>
<g>
</g>
</svg>
