<?xml version="1.0" encoding="utf-8"?>
<!-- Generator: Adobe Illustrator 16.0.4, SVG Export Plug-In . SVG Version: 6.00 Build 0)  -->
<!DOCTYPE svg PUBLIC "-//W3C//DTD SVG 1.1//EN" "http://www.w3.org/Graphics/SVG/1.1/DTD/svg11.dtd">
<svg version="1.1" id="Layer_1" xmlns="http://www.w3.org/2000/svg" xmlns:xlink="http://www.w3.org/1999/xlink" x="0px" y="0px"
	 width="344px" height="344px" viewBox="0 0 344 344" enable-background="new 0 0 344 344" xml:space="preserve">
<g>
	<path fill="#3399CC" d="M172,18c41.136,0,79.809,16.019,108.895,45.105C309.981,92.192,326,130.865,326,172
		c0,41.136-16.019,79.809-45.105,108.895C251.809,309.981,213.136,326,172,326c-41.135,0-79.809-16.019-108.895-45.105
		C34.019,251.809,18,213.136,18,172c0-41.135,16.019-79.808,45.105-108.895C92.192,34.019,130.865,18,172,18 M172,0
		C77.006,0,0,77.007,0,172c0,94.994,77.006,172,172,172s172-77.006,172-172C344,77.007,266.994,0,172,0L172,0z"/>
</g>
<path d="M54.93,162.89c0.031-0.031,0.062-0.062,0.094-0.094c2.562-2.562,5.656-3.844,9.281-3.844s6.719,1.281,9.281,3.844
	s3.844,5.656,3.844,9.281c0,3.625-1.281,6.719-3.844,9.282s-5.656,3.844-9.281,3.844s-6.719-1.281-9.281-3.844
	s-3.844-5.656-3.844-9.282v-22.547c0-0.516,0.184-0.957,0.551-1.324s0.809-0.551,1.324-0.551s0.957,0.184,1.324,0.551
	s0.551,0.809,0.551,1.324V162.89z M64.305,181.453c2.594,0,4.805-0.914,6.633-2.742s2.742-4.039,2.742-6.633
	c0-2.594-0.914-4.805-2.742-6.633s-4.039-2.742-6.633-2.742s-4.805,0.914-6.633,2.742s-2.742,4.039-2.742,6.633
	c0,2.594,0.914,4.805,2.742,6.633S61.711,181.453,64.305,181.453z"/>
<path d="M87.274,155.328c0,0.641-0.23,1.191-0.691,1.652s-1.012,0.691-1.652,0.691s-1.191-0.23-1.652-0.691
	s-0.691-1.012-0.691-1.652s0.23-1.191,0.691-1.652s1.012-0.691,1.652-0.691s1.191,0.23,1.652,0.691S87.274,154.687,87.274,155.328z
	 M83.055,160.828c0-0.516,0.184-0.957,0.551-1.324s0.809-0.551,1.324-0.551s0.957,0.184,1.324,0.551s0.551,0.809,0.551,1.324v22.5
	c0,0.516-0.184,0.957-0.551,1.324s-0.809,0.551-1.324,0.551s-0.957-0.184-1.324-0.551s-0.551-0.809-0.551-1.324V160.828z"/>
<path d="M105.555,181.453c0.516,0,0.957,0.184,1.324,0.551s0.551,0.809,0.551,1.324s-0.184,0.957-0.551,1.324
	s-0.809,0.551-1.324,0.551c-6.25,0-9.375-3.125-9.375-9.375v-13.125h-1.875c-0.516,0-0.957-0.184-1.324-0.551
	s-0.551-0.809-0.551-1.324s0.184-0.957,0.551-1.324s0.809-0.551,1.324-0.551h1.875v-9.375c0-0.516,0.184-0.957,0.551-1.324
	s0.809-0.551,1.324-0.551s0.957,0.184,1.324,0.551s0.551,0.809,0.551,1.324v9.375h3.773c0.516,0,0.957,0.184,1.324,0.551
	s0.551,0.809,0.551,1.324s-0.184,0.957-0.551,1.324s-0.809,0.551-1.324,0.551H99.93v13.125
	C99.93,179.578,101.805,181.453,105.555,181.453z"/>
<path d="M129.461,178.781c0.516,0,0.957,0.184,1.324,0.551s0.551,0.809,0.551,1.324s-0.195,0.977-0.586,1.383
	c-2.422,2.109-5.273,3.164-8.555,3.164c-3.625,0-6.719-1.281-9.281-3.844s-3.844-5.656-3.844-9.282c0-3.625,1.281-6.719,3.844-9.281
	s5.656-3.844,9.281-3.844c3.281,0,6.133,1.055,8.555,3.164c0.438,0.391,0.656,0.875,0.656,1.453c0,0.516-0.184,0.957-0.551,1.324
	s-0.809,0.551-1.324,0.551c-0.453,0-0.852-0.141-1.195-0.422c-1.75-1.547-3.797-2.32-6.141-2.32c-2.594,0-4.805,0.914-6.633,2.742
	s-2.742,4.039-2.742,6.633c0,2.594,0.914,4.805,2.742,6.633s4.039,2.742,6.633,2.742c2.344,0,4.383-0.766,6.117-2.297
	C128.641,178.906,129.024,178.781,129.461,178.781z"/>
<path d="M161.571,172.078c0,3.625-1.281,6.719-3.844,9.282s-5.656,3.844-9.281,3.844s-6.719-1.281-9.281-3.844
	s-3.844-5.656-3.844-9.282c0-3.625,1.281-6.719,3.844-9.281s5.656-3.844,9.281-3.844s6.719,1.281,9.281,3.844
	S161.571,168.453,161.571,172.078z M148.446,162.703c-2.594,0-4.805,0.914-6.633,2.742s-2.742,4.039-2.742,6.633
	c0,2.594,0.914,4.805,2.742,6.633s4.039,2.742,6.633,2.742s4.805-0.914,6.633-2.742s2.742-4.039,2.742-6.633
	c0-2.594-0.914-4.805-2.742-6.633S151.04,162.703,148.446,162.703z"/>
<path d="M165.321,160.828c0-0.516,0.184-0.957,0.551-1.324s0.809-0.551,1.324-0.551s0.957,0.184,1.324,0.551
	s0.551,0.809,0.551,1.324v1.523c2.344-2.266,5.156-3.398,8.437-3.398c3.359,0,6.23,1.191,8.613,3.574s3.574,5.254,3.574,8.613
	v12.188c0,0.516-0.184,0.957-0.551,1.324s-0.809,0.551-1.324,0.551s-0.957-0.184-1.324-0.551s-0.551-0.809-0.551-1.324V171.14
	c0-2.328-0.824-4.316-2.473-5.965s-3.637-2.473-5.965-2.473s-4.316,0.824-5.964,2.473c-1.648,1.648-2.473,3.637-2.473,5.965v12.188
	c0,0.516-0.184,0.957-0.551,1.324s-0.809,0.551-1.324,0.551s-0.957-0.184-1.324-0.551s-0.551-0.809-0.551-1.324V160.828z"/>
<path d="M193.445,160.828c0-0.516,0.184-0.957,0.551-1.324s0.809-0.551,1.324-0.551s0.957,0.184,1.324,0.551
	s0.551,0.809,0.551,1.324v1.523c2.344-2.266,5.156-3.398,8.438-3.398c3.359,0,6.23,1.191,8.613,3.574s3.574,5.254,3.574,8.613
	v12.188c0,0.516-0.184,0.957-0.551,1.324s-0.809,0.551-1.324,0.551s-0.957-0.184-1.324-0.551s-0.551-0.809-0.551-1.324V171.14
	c0-2.328-0.824-4.316-2.473-5.965s-3.637-2.473-5.965-2.473s-4.316,0.824-5.965,2.473s-2.473,3.637-2.473,5.965v12.188
	c0,0.516-0.184,0.957-0.551,1.324s-0.809,0.551-1.324,0.551s-0.957-0.184-1.324-0.551s-0.551-0.809-0.551-1.324V160.828z"/>
<path d="M241.914,178.828c0.516,0,0.957,0.184,1.324,0.551s0.551,0.809,0.551,1.324s-0.18,0.961-0.539,1.336
	c-2.422,2.109-5.273,3.164-8.555,3.164c-3.625,0-6.719-1.281-9.281-3.844s-3.844-5.656-3.844-9.282c0-3.625,1.281-6.719,3.844-9.281
	s5.656-3.844,9.281-3.844s6.719,1.281,9.281,3.844s3.844,5.656,3.844,9.281c0,0.516-0.184,0.958-0.551,1.325
	s-0.809,0.551-1.324,0.551h-20.461c0.344,1.797,1.203,3.383,2.578,4.758c1.828,1.828,4.039,2.742,6.633,2.742
	c2.344,0,4.359-0.742,6.047-2.227C241.086,178.961,241.477,178.828,241.914,178.828z M243.906,170.203
	c-0.344-1.797-1.203-3.383-2.578-4.758c-1.828-1.828-4.039-2.742-6.633-2.742s-4.805,0.914-6.633,2.742
	c-1.375,1.375-2.234,2.961-2.578,4.758H243.906z"/>
<path d="M271.961,178.781c0.516,0,0.957,0.184,1.324,0.551s0.551,0.809,0.551,1.324s-0.195,0.977-0.586,1.383
	c-2.422,2.109-5.273,3.164-8.555,3.164c-3.625,0-6.719-1.281-9.281-3.844s-3.844-5.656-3.844-9.282c0-3.625,1.281-6.719,3.844-9.281
	s5.656-3.844,9.281-3.844c3.281,0,6.133,1.055,8.555,3.164c0.438,0.391,0.656,0.875,0.656,1.453c0,0.516-0.184,0.957-0.551,1.324
	s-0.809,0.551-1.324,0.551c-0.453,0-0.852-0.141-1.195-0.422c-1.75-1.547-3.797-2.32-6.141-2.32c-2.594,0-4.805,0.914-6.633,2.742
	s-2.742,4.039-2.742,6.633c0,2.594,0.914,4.805,2.742,6.633s4.039,2.742,6.633,2.742c2.344,0,4.383-0.766,6.117-2.297
	C271.141,178.906,271.523,178.781,271.961,178.781z"/>
<path d="M290.945,181.453c0.516,0,0.957,0.184,1.324,0.551s0.551,0.809,0.551,1.324s-0.184,0.957-0.551,1.324
	s-0.809,0.551-1.324,0.551c-6.25,0-9.375-3.125-9.375-9.375v-13.125h-1.875c-0.516,0-0.957-0.184-1.324-0.551
	s-0.551-0.809-0.551-1.324s0.184-0.957,0.551-1.324s0.809-0.551,1.324-0.551h1.875v-9.375c0-0.516,0.184-0.957,0.551-1.324
	s0.809-0.551,1.324-0.551s0.957,0.184,1.324,0.551s0.551,0.809,0.551,1.324v9.375h3.773c0.516,0,0.957,0.184,1.324,0.551
	s0.551,0.809,0.551,1.324s-0.184,0.957-0.551,1.324s-0.809,0.551-1.324,0.551h-3.773v13.125
	C285.32,179.578,287.195,181.453,290.945,181.453z"/>
<g>
	<path fill="#3399CC" d="M148.426,162.75c5.101,0,9.251,4.15,9.251,9.25c0,5.1-4.15,9.25-9.251,9.25c-5.1,0-9.249-4.149-9.249-9.25
		C139.177,166.9,143.326,162.75,148.426,162.75 M148.426,158.75c-7.317,0-13.249,5.932-13.249,13.25
		c0,7.318,5.932,13.25,13.249,13.25c7.319,0,13.251-5.932,13.251-13.25C161.677,164.682,155.745,158.75,148.426,158.75
		L148.426,158.75z"/>
</g>
<g>
	<path fill="#3399CC" d="M64.388,162.75c5.101,0,9.251,4.15,9.251,9.25c0,5.1-4.15,9.25-9.251,9.25c-5.1,0-9.249-4.149-9.249-9.25
		C55.139,166.9,59.288,162.75,64.388,162.75 M64.388,158.75c-7.317,0-13.249,5.932-13.249,13.25c0,7.318,5.932,13.25,13.249,13.25
		c7.319,0,13.251-5.932,13.251-13.25C77.639,164.682,71.707,158.75,64.388,158.75L64.388,158.75z"/>
</g>
<g>
	<path fill="#3399CC" d="M148.427,169.375c1.447,0,2.625,1.178,2.625,2.625s-1.178,2.625-2.625,2.625s-2.625-1.178-2.625-2.625
		S146.98,169.375,148.427,169.375 M148.427,165.375c-3.66,0-6.625,2.966-6.625,6.625c0,3.66,2.965,6.625,6.625,6.625
		c3.659,0,6.625-2.965,6.625-6.625C155.052,168.341,152.086,165.375,148.427,165.375L148.427,165.375z"/>
</g>
<g>
	<path fill="none" d="M155.052,172c0,28.701-23.268,51.957-51.957,51.957c-28.705,0-51.957-23.256-51.957-51.957
		c0-28.693,23.252-51.957,51.957-51.957C131.785,120.043,155.052,143.307,155.052,172z"/>
</g>
<g>
	<path fill="none" d="M141.802,172c0,17.723-14.367,32.082-32.082,32.082c-17.724,0-32.082-14.359-32.082-32.082
		c0-17.717,14.357-32.082,32.082-32.082C127.435,139.918,141.802,154.283,141.802,172z"/>
</g>
<g>
	<path fill="#3399CC" d="M141.427,145.684c1.737,0,3.15,1.413,3.15,3.15s-1.413,3.15-3.15,3.15s-3.15-1.413-3.15-3.15
		S139.69,145.684,141.427,145.684 M141.427,141.684c-3.949,0-7.15,3.202-7.15,7.15c0,3.949,3.201,7.15,7.15,7.15
		c3.949,0,7.15-3.201,7.15-7.15C148.577,144.886,145.376,141.684,141.427,141.684L141.427,141.684z"/>
</g>
<g>
	<path fill="#3399CC" d="M126.865,131.046c2.398,0,4.35,1.952,4.35,4.35s-1.952,4.35-4.35,4.35s-4.35-1.952-4.35-4.35
		S124.466,131.046,126.865,131.046 M126.865,127.046c-4.612,0-8.35,3.74-8.35,8.35c0,4.612,3.738,8.35,8.35,8.35
		c4.612,0,8.35-3.738,8.35-8.35C135.215,130.787,131.477,127.046,126.865,127.046L126.865,127.046z"/>
</g>
<g>
	<path fill="#3399CC" d="M103.095,124.029c3.419,0,6.2,2.781,6.2,6.2s-2.781,6.2-6.2,6.2s-6.2-2.781-6.2-6.2
		S99.676,124.029,103.095,124.029 M103.095,120.029c-5.634,0-10.2,4.569-10.2,10.2c0,5.634,4.566,10.2,10.2,10.2
		c5.633,0,10.2-4.566,10.2-10.2C113.295,124.599,108.729,120.029,103.095,120.029L103.095,120.029z"/>
</g>
<g>
	<path fill="#3399CC" d="M77.095,133.729c4.549,0,8.25,3.701,8.25,8.25s-3.701,8.25-8.25,8.25s-8.25-3.701-8.25-8.25
		S72.546,133.729,77.095,133.729 M77.095,129.729c-6.766,0-12.25,5.487-12.25,12.25c0,6.766,5.484,12.25,12.25,12.25
		s12.25-5.484,12.25-12.25C89.345,135.217,83.861,129.729,77.095,129.729L77.095,129.729z"/>
</g>
<g>
	<path fill="none" d="M277.928,172c0,37.598-30.479,68.062-68.062,68.062c-37.604,0-68.063-30.465-68.063-68.062
		c0-37.588,30.459-68.062,68.063-68.062C247.449,103.938,277.928,134.412,277.928,172z"/>
</g>
<g>
	<circle fill="none" cx="264.678" cy="172" r="13.25"/>
</g>
<g>
	<path fill="none" d="M251.428,172c0,26.619-21.578,48.188-48.189,48.188c-26.621,0-48.186-21.568-48.186-48.188
		c0-26.612,21.565-48.188,48.186-48.188C229.85,123.812,251.428,145.388,251.428,172z"/>
</g>
<g>
	<path fill="#3399CC" d="M153.761,193.517c1.599,0,2.9,1.301,2.9,2.899c0,1.6-1.301,2.9-2.9,2.9s-2.9-1.301-2.9-2.9
		C150.861,194.817,152.162,193.517,153.761,193.517 M153.761,189.517c-3.812,0-6.9,3.09-6.9,6.899c0,3.812,3.088,6.9,6.9,6.9
		c3.811,0,6.9-3.088,6.9-6.9C160.661,192.606,157.571,189.517,153.761,189.517L153.761,189.517z"/>
</g>
<g>
	<path fill="#3399CC" d="M165.51,209.454c1.986,0,3.601,1.615,3.601,3.601c0,1.984-1.615,3.6-3.601,3.6c-1.985,0-3.6-1.615-3.6-3.6
		C161.91,211.069,163.525,209.454,165.51,209.454 M165.51,205.454c-4.198,0-7.6,3.403-7.6,7.601s3.402,7.6,7.6,7.6
		c4.198,0,7.601-3.402,7.601-7.6S169.708,205.454,165.51,205.454L165.51,205.454z"/>
</g>
<g>
	<path fill="#3399CC" d="M256.408,193.15c4.825,0,8.75,3.925,8.75,8.75s-3.925,8.75-8.75,8.75s-8.75-3.925-8.75-8.75
		S251.583,193.15,256.408,193.15 M256.408,189.15c-7.041,0-12.75,5.711-12.75,12.75c0,7.041,5.709,12.75,12.75,12.75
		s12.75-5.709,12.75-12.75C269.158,194.861,263.449,189.15,256.408,189.15L256.408,189.15z"/>
</g>
<g>
	<path fill="#3399CC" d="M236.096,214.379c4.19,0,7.6,3.409,7.6,7.601s-3.409,7.601-7.6,7.601s-7.6-3.409-7.6-7.601
		S231.905,214.379,236.096,214.379 M236.096,210.379c-6.406,0-11.6,5.197-11.6,11.601c0,6.407,5.193,11.601,11.6,11.601
		s11.6-5.193,11.6-11.601C247.695,215.576,242.502,210.379,236.096,210.379L236.096,210.379z"/>
</g>
<g>
	<path fill="#3399CC" d="M184.516,221.083c2.564,0,4.65,2.086,4.65,4.649c0,2.564-2.086,4.65-4.65,4.65s-4.65-2.086-4.65-4.65
		C179.865,223.169,181.951,221.083,184.516,221.083 M184.516,217.083c-4.777,0-8.65,3.874-8.65,8.649c0,4.778,3.873,8.65,8.65,8.65
		s8.65-3.872,8.65-8.65C193.166,220.957,189.293,217.083,184.516,217.083L184.516,217.083z"/>
</g>
<g>
	<path fill="#3399CC" d="M209.865,223.812c3.377,0,6.125,2.748,6.125,6.125s-2.748,6.125-6.125,6.125s-6.125-2.748-6.125-6.125
		S206.488,223.812,209.865,223.812 M209.865,219.812c-5.594,0-10.125,4.535-10.125,10.125c0,5.592,4.531,10.125,10.125,10.125
		c5.592,0,10.125-4.533,10.125-10.125C219.99,224.348,215.457,219.812,209.865,219.812L209.865,219.812z"/>
</g>
<g>
	<path fill="#3399CC" d="M64.389,169.375c1.447,0,2.625,1.178,2.625,2.625s-1.178,2.625-2.625,2.625s-2.625-1.178-2.625-2.625
		S62.941,169.375,64.389,169.375 M64.389,165.375c-3.659,0-6.625,2.966-6.625,6.625c0,3.66,2.966,6.625,6.625,6.625
		s6.625-2.965,6.625-6.625C71.014,168.341,68.048,165.375,64.389,165.375L64.389,165.375z"/>
</g>
</svg>
