<?xml version="1.0" encoding="utf-8"?>
<!-- Generator: Adobe Illustrator 16.0.4, SVG Export Plug-In . SVG Version: 6.00 Build 0)  -->
<!DOCTYPE svg PUBLIC "-//W3C//DTD SVG 1.1//EN" "http://www.w3.org/Graphics/SVG/1.1/DTD/svg11.dtd">
<svg version="1.1" id="Layer_1" xmlns="http://www.w3.org/2000/svg" xmlns:xlink="http://www.w3.org/1999/xlink" x="0px" y="0px"
	 viewBox="0 0 420.817 457" enable-background="new 0 0 420.817 457" xml:space="preserve">
<g>
	<path fill="#3399CC" d="M210.409,18c41.136,0,79.809,16.019,108.895,45.105C348.39,92.192,364.409,130.865,364.409,172
		s-16.019,79.809-45.105,108.895C290.217,309.981,251.544,326,210.409,326c-41.135,0-79.809-16.019-108.895-45.105
		C72.427,251.809,56.409,213.135,56.409,172s16.019-79.808,45.105-108.895C130.601,34.019,169.273,18,210.409,18 M210.409,0
		c-94.994,0-172,77.007-172,172c0,94.994,77.006,172,172,172s172-77.006,172-172C382.409,77.007,305.403,0,210.409,0L210.409,0z"/>
</g>
<path d="M93.339,162.89c0.031-0.031,0.062-0.062,0.094-0.094c2.562-2.562,5.656-3.844,9.281-3.844s6.719,1.281,9.281,3.844
	s3.844,5.656,3.844,9.281c0,3.625-1.281,6.719-3.844,9.282s-5.656,3.844-9.281,3.844s-6.719-1.281-9.281-3.844
	s-3.844-5.656-3.844-9.282v-22.547c0-0.516,0.184-0.957,0.551-1.324s0.809-0.551,1.324-0.551s0.957,0.184,1.324,0.551
	s0.551,0.809,0.551,1.324V162.89z M102.714,181.453c2.594,0,4.805-0.914,6.633-2.742s2.742-4.039,2.742-6.633
	c0-2.594-0.914-4.805-2.742-6.633s-4.039-2.742-6.633-2.742s-4.805,0.914-6.633,2.742s-2.742,4.039-2.742,6.633
	c0,2.594,0.914,4.805,2.742,6.633S100.12,181.453,102.714,181.453z"/>
<path d="M125.683,155.328c0,0.641-0.23,1.191-0.691,1.652s-1.012,0.691-1.652,0.691s-1.191-0.23-1.652-0.691
	s-0.691-1.012-0.691-1.652s0.23-1.191,0.691-1.652s1.012-0.691,1.652-0.691s1.191,0.23,1.652,0.691S125.683,154.687,125.683,155.328
	z M121.464,160.828c0-0.516,0.184-0.957,0.551-1.324s0.809-0.551,1.324-0.551s0.957,0.184,1.324,0.551s0.551,0.809,0.551,1.324v22.5
	c0,0.516-0.184,0.957-0.551,1.324s-0.809,0.551-1.324,0.551s-0.957-0.184-1.324-0.551s-0.551-0.809-0.551-1.324V160.828z"/>
<path d="M143.964,181.453c0.516,0,0.957,0.184,1.324,0.551s0.551,0.809,0.551,1.324s-0.184,0.957-0.551,1.324
	s-0.809,0.551-1.324,0.551c-6.25,0-9.375-3.125-9.375-9.375v-13.125h-1.875c-0.516,0-0.957-0.184-1.324-0.551
	s-0.551-0.809-0.551-1.324s0.184-0.957,0.551-1.324s0.809-0.551,1.324-0.551h1.875v-9.375c0-0.516,0.184-0.957,0.551-1.324
	s0.809-0.551,1.324-0.551s0.957,0.184,1.324,0.551s0.551,0.809,0.551,1.324v9.375h3.773c0.516,0,0.957,0.184,1.324,0.551
	s0.551,0.809,0.551,1.324s-0.184,0.957-0.551,1.324s-0.809,0.551-1.324,0.551h-3.773v13.125
	C138.339,179.578,140.214,181.453,143.964,181.453z"/>
<path d="M167.87,178.781c0.516,0,0.957,0.184,1.324,0.551s0.551,0.809,0.551,1.324s-0.195,0.977-0.586,1.383
	c-2.422,2.109-5.273,3.164-8.555,3.164c-3.625,0-6.719-1.281-9.281-3.844s-3.844-5.656-3.844-9.282c0-3.625,1.281-6.719,3.844-9.281
	s5.656-3.844,9.281-3.844c3.281,0,6.133,1.055,8.555,3.164c0.438,0.391,0.656,0.875,0.656,1.453c0,0.516-0.184,0.957-0.551,1.324
	s-0.809,0.551-1.324,0.551c-0.453,0-0.852-0.141-1.195-0.422c-1.75-1.547-3.797-2.32-6.141-2.32c-2.594,0-4.805,0.914-6.633,2.742
	s-2.742,4.039-2.742,6.633c0,2.594,0.914,4.805,2.742,6.633s4.039,2.742,6.633,2.742c2.344,0,4.383-0.766,6.117-2.297
	C167.05,178.906,167.433,178.781,167.87,178.781z"/>
<path d="M199.979,172.078c0,3.625-1.281,6.719-3.844,9.282s-5.656,3.844-9.281,3.844s-6.719-1.281-9.281-3.844
	s-3.844-5.656-3.844-9.282c0-3.625,1.281-6.719,3.844-9.281s5.656-3.844,9.281-3.844s6.719,1.281,9.281,3.844
	S199.979,168.453,199.979,172.078z M186.854,162.703c-2.594,0-4.805,0.914-6.633,2.742s-2.742,4.039-2.742,6.633
	c0,2.594,0.914,4.805,2.742,6.633s4.039,2.742,6.633,2.742s4.805-0.914,6.633-2.742s2.742-4.039,2.742-6.633
	c0-2.594-0.914-4.805-2.742-6.633S189.448,162.703,186.854,162.703z"/>
<path d="M203.729,160.828c0-0.516,0.184-0.957,0.551-1.324s0.809-0.551,1.324-0.551s0.957,0.184,1.324,0.551
	s0.551,0.809,0.551,1.324v1.523c2.344-2.266,5.156-3.398,8.438-3.398c3.359,0,6.23,1.191,8.613,3.574s3.574,5.254,3.574,8.613
	v12.188c0,0.516-0.184,0.957-0.551,1.324s-0.809,0.551-1.324,0.551s-0.957-0.184-1.324-0.551s-0.551-0.809-0.551-1.324V171.14
	c0-2.328-0.824-4.316-2.473-5.965s-3.636-2.473-5.964-2.473s-4.316,0.824-5.965,2.473s-2.473,3.637-2.473,5.965v12.188
	c0,0.516-0.184,0.957-0.551,1.324s-0.809,0.551-1.324,0.551s-0.957-0.184-1.324-0.551s-0.551-0.809-0.551-1.324V160.828z"/>
<path d="M231.854,160.828c0-0.516,0.184-0.957,0.551-1.324s0.809-0.551,1.324-0.551s0.957,0.184,1.324,0.551
	s0.551,0.809,0.551,1.324v1.523c2.344-2.266,5.156-3.398,8.438-3.398c3.359,0,6.23,1.191,8.613,3.574s3.574,5.254,3.574,8.613
	v12.188c0,0.516-0.184,0.957-0.551,1.324s-0.809,0.551-1.324,0.551s-0.957-0.184-1.324-0.551s-0.551-0.809-0.551-1.324V171.14
	c0-2.328-0.824-4.316-2.473-5.965s-3.637-2.473-5.965-2.473s-4.316,0.824-5.965,2.473s-2.473,3.637-2.473,5.965v12.188
	c0,0.516-0.184,0.957-0.551,1.324s-0.809,0.551-1.324,0.551s-0.957-0.184-1.324-0.551s-0.551-0.809-0.551-1.324V160.828z"/>
<path d="M280.323,178.828c0.516,0,0.957,0.184,1.324,0.551s0.551,0.809,0.551,1.324s-0.18,0.961-0.539,1.336
	c-2.422,2.109-5.273,3.164-8.555,3.164c-3.625,0-6.719-1.281-9.281-3.844s-3.844-5.656-3.844-9.282c0-3.625,1.281-6.719,3.844-9.281
	s5.656-3.844,9.281-3.844s6.719,1.281,9.281,3.844s3.844,5.656,3.844,9.281c0,0.516-0.184,0.958-0.551,1.325
	s-0.809,0.551-1.324,0.551h-20.461c0.344,1.797,1.203,3.383,2.578,4.758c1.828,1.828,4.039,2.742,6.633,2.742
	c2.344,0,4.359-0.742,6.047-2.227C279.495,178.961,279.885,178.828,280.323,178.828z M282.315,170.203
	c-0.344-1.797-1.203-3.383-2.578-4.758c-1.828-1.828-4.039-2.742-6.633-2.742s-4.805,0.914-6.633,2.742
	c-1.375,1.375-2.234,2.961-2.578,4.758H282.315z"/>
<path d="M310.37,178.781c0.516,0,0.957,0.184,1.324,0.551s0.551,0.809,0.551,1.324s-0.195,0.977-0.586,1.383
	c-2.422,2.109-5.273,3.164-8.555,3.164c-3.625,0-6.719-1.281-9.281-3.844s-3.844-5.656-3.844-9.282c0-3.625,1.281-6.719,3.844-9.281
	s5.656-3.844,9.281-3.844c3.281,0,6.133,1.055,8.555,3.164c0.438,0.391,0.656,0.875,0.656,1.453c0,0.516-0.184,0.957-0.551,1.324
	s-0.809,0.551-1.324,0.551c-0.453,0-0.852-0.141-1.195-0.422c-1.75-1.547-3.797-2.32-6.141-2.32c-2.594,0-4.805,0.914-6.633,2.742
	s-2.742,4.039-2.742,6.633c0,2.594,0.914,4.805,2.742,6.633s4.039,2.742,6.633,2.742c2.344,0,4.383-0.766,6.117-2.297
	C309.549,178.906,309.932,178.781,310.37,178.781z"/>
<path d="M329.354,181.453c0.516,0,0.957,0.184,1.324,0.551s0.551,0.809,0.551,1.324s-0.184,0.957-0.551,1.324
	s-0.809,0.551-1.324,0.551c-6.25,0-9.375-3.125-9.375-9.375v-13.125h-1.875c-0.516,0-0.957-0.184-1.324-0.551
	s-0.551-0.809-0.551-1.324s0.184-0.957,0.551-1.324s0.809-0.551,1.324-0.551h1.875v-9.375c0-0.516,0.184-0.957,0.551-1.324
	s0.809-0.551,1.324-0.551s0.957,0.184,1.324,0.551s0.551,0.809,0.551,1.324v9.375h3.773c0.516,0,0.957,0.184,1.324,0.551
	s0.551,0.809,0.551,1.324s-0.184,0.957-0.551,1.324s-0.809,0.551-1.324,0.551h-3.773v13.125
	C323.729,179.578,325.604,181.453,329.354,181.453z"/>
<g>
	<path fill="#3399CC" d="M186.835,162.75c5.101,0,9.251,4.15,9.251,9.25c0,5.1-4.15,9.25-9.251,9.25c-5.1,0-9.249-4.149-9.249-9.25
		C177.586,166.9,181.735,162.75,186.835,162.75 M186.835,158.75c-7.317,0-13.249,5.932-13.249,13.25
		c0,7.318,5.932,13.25,13.249,13.25c7.319,0,13.251-5.932,13.251-13.25C200.086,164.682,194.154,158.75,186.835,158.75
		L186.835,158.75z"/>
</g>
<g>
	<path fill="#3399CC" d="M102.796,162.75c5.101,0,9.251,4.15,9.251,9.25c0,5.1-4.15,9.25-9.251,9.25c-5.1,0-9.249-4.149-9.249-9.25
		C93.547,166.9,97.696,162.75,102.796,162.75 M102.796,158.75c-7.317,0-13.249,5.932-13.249,13.25c0,7.318,5.932,13.25,13.249,13.25
		c7.319,0,13.251-5.932,13.251-13.25C116.047,164.682,110.115,158.75,102.796,158.75L102.796,158.75z"/>
</g>
<g>
	<path fill="#3399CC" d="M186.836,169.375c1.447,0,2.625,1.178,2.625,2.625s-1.178,2.625-2.625,2.625s-2.625-1.178-2.625-2.625
		S185.389,169.375,186.836,169.375 M186.836,165.375c-3.66,0-6.625,2.966-6.625,6.625c0,3.66,2.965,6.625,6.625,6.625
		c3.659,0,6.625-2.965,6.625-6.625C193.461,168.341,190.495,165.375,186.836,165.375L186.836,165.375z"/>
</g>
<g>
	<path fill="none" d="M193.461,172c0,28.701-23.268,51.957-51.957,51.957c-28.705,0-51.957-23.256-51.957-51.957
		c0-28.693,23.252-51.957,51.957-51.957C170.193,120.043,193.461,143.307,193.461,172z"/>
</g>
<g>
	<path fill="none" d="M180.211,172c0,17.723-14.367,32.082-32.082,32.082c-17.724,0-32.082-14.359-32.082-32.082
		c0-17.717,14.357-32.082,32.082-32.082C165.844,139.918,180.211,154.283,180.211,172z"/>
</g>
<g>
	<path fill="#3399CC" d="M179.836,145.684c1.737,0,3.15,1.413,3.15,3.15s-1.413,3.15-3.15,3.15s-3.15-1.413-3.15-3.15
		S178.099,145.684,179.836,145.684 M179.836,141.684c-3.949,0-7.15,3.202-7.15,7.15c0,3.949,3.201,7.15,7.15,7.15
		c3.949,0,7.15-3.201,7.15-7.15C186.986,144.886,183.785,141.684,179.836,141.684L179.836,141.684z"/>
</g>
<g>
	<path fill="#3399CC" d="M165.273,131.046c2.398,0,4.35,1.952,4.35,4.35s-1.952,4.35-4.35,4.35s-4.35-1.952-4.35-4.35
		S162.875,131.046,165.273,131.046 M165.273,127.046c-4.612,0-8.35,3.74-8.35,8.35c0,4.612,3.738,8.35,8.35,8.35
		c4.612,0,8.35-3.738,8.35-8.35C173.624,130.787,169.885,127.046,165.273,127.046L165.273,127.046z"/>
</g>
<g>
	<path fill="#3399CC" d="M141.504,124.029c3.419,0,6.2,2.781,6.2,6.2s-2.781,6.2-6.2,6.2s-6.2-2.781-6.2-6.2
		S138.085,124.029,141.504,124.029 M141.504,120.029c-5.634,0-10.2,4.569-10.2,10.2c0,5.634,4.566,10.2,10.2,10.2
		c5.633,0,10.2-4.566,10.2-10.2C151.704,124.599,147.137,120.029,141.504,120.029L141.504,120.029z"/>
</g>
<g>
	<path fill="#3399CC" d="M115.504,133.729c4.549,0,8.25,3.701,8.25,8.25s-3.701,8.25-8.25,8.25s-8.25-3.701-8.25-8.25
		S110.955,133.729,115.504,133.729 M115.504,129.729c-6.766,0-12.25,5.487-12.25,12.25c0,6.766,5.484,12.25,12.25,12.25
		s12.25-5.484,12.25-12.25C127.754,135.217,122.27,129.729,115.504,129.729L115.504,129.729z"/>
</g>
<g>
	<path fill="none" d="M316.336,172c0,37.598-30.479,68.062-68.062,68.062c-37.604,0-68.063-30.465-68.063-68.062
		c0-37.588,30.459-68.062,68.063-68.062C285.858,103.938,316.336,134.412,316.336,172z"/>
</g>
<g>
	<circle fill="none" cx="303.086" cy="172" r="13.25"/>
</g>
<g>
	<path fill="none" d="M289.836,172c0,26.619-21.578,48.188-48.189,48.188c-26.621,0-48.186-21.568-48.186-48.188
		c0-26.612,21.565-48.188,48.186-48.188C268.258,123.812,289.836,145.388,289.836,172z"/>
</g>
<g>
	<path fill="#3399CC" d="M192.169,193.517c1.599,0,2.9,1.301,2.9,2.899c0,1.599-1.301,2.9-2.9,2.9s-2.9-1.301-2.9-2.9
		C189.27,194.817,190.57,193.517,192.169,193.517 M192.169,189.517c-3.812,0-6.9,3.09-6.9,6.899c0,3.812,3.088,6.9,6.9,6.9
		c3.811,0,6.9-3.088,6.9-6.9C199.069,192.606,195.98,189.517,192.169,189.517L192.169,189.517z"/>
</g>
<g>
	<path fill="#3399CC" d="M203.919,209.454c1.985,0,3.601,1.615,3.601,3.601c0,1.985-1.615,3.6-3.601,3.6c-1.985,0-3.6-1.615-3.6-3.6
		C200.319,211.069,201.934,209.454,203.919,209.454 M203.919,205.454c-4.198,0-7.6,3.403-7.6,7.601s3.402,7.6,7.6,7.6
		c4.198,0,7.601-3.402,7.601-7.6S208.117,205.454,203.919,205.454L203.919,205.454z"/>
</g>
<g>
	<path fill="#3399CC" d="M294.817,193.15c4.825,0,8.75,3.925,8.75,8.75s-3.925,8.75-8.75,8.75s-8.75-3.925-8.75-8.75
		S289.992,193.15,294.817,193.15 M294.817,189.15c-7.041,0-12.75,5.711-12.75,12.75c0,7.041,5.709,12.75,12.75,12.75
		s12.75-5.709,12.75-12.75C307.567,194.861,301.858,189.15,294.817,189.15L294.817,189.15z"/>
</g>
<g>
	<path fill="#3399CC" d="M274.504,214.379c4.19,0,7.6,3.41,7.6,7.601c0,4.191-3.409,7.601-7.6,7.601s-7.6-3.409-7.6-7.601
		C266.905,217.789,270.314,214.379,274.504,214.379 M274.504,210.379c-6.406,0-11.6,5.197-11.6,11.601
		c0,6.407,5.193,11.601,11.6,11.601s11.6-5.193,11.6-11.601C286.104,215.576,280.911,210.379,274.504,210.379L274.504,210.379z"/>
</g>
<g>
	<path fill="#3399CC" d="M222.924,221.083c2.564,0,4.65,2.086,4.65,4.649c0,2.564-2.086,4.65-4.65,4.65s-4.65-2.086-4.65-4.65
		C218.274,223.169,220.36,221.083,222.924,221.083 M222.924,217.083c-4.778,0-8.65,3.874-8.65,8.649c0,4.778,3.872,8.65,8.65,8.65
		c4.777,0,8.65-3.872,8.65-8.65C231.575,220.957,227.702,217.083,222.924,217.083L222.924,217.083z"/>
</g>
<g>
	<path fill="#3399CC" d="M248.274,223.812c3.377,0,6.125,2.748,6.125,6.125s-2.748,6.125-6.125,6.125s-6.125-2.748-6.125-6.125
		S244.897,223.812,248.274,223.812 M248.274,219.812c-5.594,0-10.125,4.535-10.125,10.125c0,5.592,4.531,10.125,10.125,10.125
		c5.592,0,10.125-4.533,10.125-10.125C258.399,224.348,253.866,219.812,248.274,219.812L248.274,219.812z"/>
</g>
<g>
	<path fill="#3399CC" d="M102.797,169.375c1.447,0,2.625,1.178,2.625,2.625s-1.178,2.625-2.625,2.625s-2.625-1.178-2.625-2.625
		S101.35,169.375,102.797,169.375 M102.797,165.375c-3.659,0-6.625,2.966-6.625,6.625c0,3.66,2.966,6.625,6.625,6.625
		s6.625-2.965,6.625-6.625C109.422,168.341,106.457,165.375,102.797,165.375L102.797,165.375z"/>
</g>
<g>
	<path d="M9.272,379.793c-1.304-0.486-2.213-0.995-2.729-1.525c-1.017-1.002-1.525-2.213-1.525-3.631s0.53-2.656,1.59-3.717
		c2.062-2.105,4.755-3.158,8.078-3.158c3.595,0,6.674,1.439,9.238,4.318c0.229,0.272,0.336,0.609,0.322,1.01
		c0,0.473-0.168,0.878-0.505,1.214c-0.337,0.337-0.741,0.505-1.214,0.505s-0.853-0.15-1.139-0.451
		c-0.287-0.301-0.494-0.516-0.623-0.645c-1.676-1.676-3.703-2.514-6.08-2.514c-2.378,0-4.275,0.745-5.693,2.234
		c-0.344,0.416-0.516,0.91-0.516,1.482c0.043,0.674,0.394,1.132,1.053,1.375l10.57,3.502c1.303,0.487,2.213,0.996,2.729,1.525
		c1.017,1.003,1.525,2.213,1.525,3.631s-0.53,2.657-1.59,3.717c-2.062,2.105-4.755,3.158-8.078,3.158
		c-3.609,0-6.689-1.439-9.238-4.318c-0.215-0.301-0.322-0.637-0.322-1.01c0-0.473,0.168-0.877,0.505-1.214
		c0.336-0.336,0.741-0.505,1.214-0.505s0.852,0.15,1.139,0.451c0.286,0.301,0.494,0.516,0.623,0.645
		c1.676,1.676,3.702,2.514,6.08,2.514c2.377,0,4.275-0.744,5.693-2.234c0.344-0.415,0.516-0.909,0.516-1.482
		c-0.043-0.673-0.394-1.131-1.053-1.375L9.272,379.793z"/>
	<path fill="#3399CC" d="M51.854,379.793c0,3.352-1.175,6.188-3.523,8.508c-2.378,2.35-5.214,3.523-8.508,3.523
		c-3.323,0-6.159-1.174-8.508-3.523c-2.349-2.349-3.523-5.185-3.523-8.508c0-3.322,1.174-6.158,3.523-8.508
		c2.349-2.349,5.185-3.523,8.508-3.523c3.294,0,6.13,1.175,8.508,3.523c1.174,1.175,2.052,2.471,2.632,3.889
		S51.839,378.132,51.854,379.793z M39.823,372.252c-1.06,0-2.048,0.201-2.965,0.602c-0.917,0.401-1.712,0.942-2.385,1.622
		c-0.673,0.681-1.207,1.479-1.601,2.396c-0.394,0.917-0.591,1.891-0.591,2.922s0.197,2.006,0.591,2.922
		c0.394,0.917,0.927,1.716,1.601,2.396c0.673,0.681,1.468,1.222,2.385,1.622c0.917,0.401,1.905,0.602,2.965,0.602
		c1.045,0,2.026-0.2,2.943-0.602c0.917-0.4,1.715-0.945,2.396-1.633c0.68-0.688,1.217-1.485,1.611-2.396
		c0.394-0.909,0.591-1.88,0.591-2.911s-0.197-2.001-0.591-2.911c-0.394-0.909-0.931-1.708-1.611-2.396
		c-0.681-0.688-1.479-1.231-2.396-1.633C41.849,372.453,40.868,372.252,39.823,372.252z"/>
	<path d="M73.983,385.938c0.473,0,0.877,0.169,1.214,0.505c0.336,0.337,0.505,0.741,0.505,1.214s-0.179,0.896-0.537,1.268
		c-2.22,1.934-4.834,2.9-7.842,2.9c-3.323,0-6.159-1.174-8.508-3.523c-2.349-2.349-3.523-5.185-3.523-8.508
		c0-3.322,1.174-6.158,3.523-8.508c2.349-2.349,5.185-3.523,8.508-3.523c3.008,0,5.622,0.967,7.842,2.9
		c0.401,0.358,0.602,0.803,0.602,1.332c0,0.473-0.168,0.878-0.505,1.214c-0.337,0.337-0.741,0.505-1.214,0.505
		c-0.416,0-0.781-0.129-1.096-0.387c-1.604-1.418-3.48-2.127-5.629-2.127c-2.378,0-4.404,0.838-6.08,2.514s-2.514,3.703-2.514,6.08
		c0,2.378,0.838,4.404,2.514,6.08s3.702,2.514,6.08,2.514c2.148,0,4.018-0.701,5.607-2.105
		C73.231,386.053,73.582,385.938,73.983,385.938z"/>
	<path d="M84.94,362.605c0,0.588-0.211,1.093-0.634,1.515c-0.423,0.423-0.928,0.634-1.515,0.634c-0.587,0-1.092-0.211-1.515-0.634
		c-0.423-0.422-0.634-0.927-0.634-1.515c0-0.587,0.211-1.092,0.634-1.515c0.422-0.422,0.927-0.634,1.515-0.634
		c0.587,0,1.092,0.212,1.515,0.634C84.729,361.514,84.94,362.019,84.94,362.605z M81.073,369.48c0-0.473,0.168-0.877,0.505-1.214
		c0.336-0.336,0.741-0.505,1.214-0.505s0.877,0.169,1.214,0.505c0.336,0.337,0.505,0.741,0.505,1.214v20.625
		c0,0.473-0.168,0.878-0.505,1.214c-0.337,0.337-0.741,0.505-1.214,0.505s-0.877-0.168-1.214-0.505
		c-0.337-0.336-0.505-0.741-0.505-1.214V369.48z"/>
	<path d="M110.292,388.215c-2.406,2.406-5.271,3.609-8.594,3.609c-3.323,0-6.159-1.174-8.508-3.523
		c-2.349-2.349-3.523-5.185-3.523-8.508c0-3.322,1.174-6.158,3.523-8.508c2.349-2.349,5.185-3.523,8.508-3.523
		c3.323,0,6.159,1.175,8.508,3.523c2.349,2.35,3.523,5.186,3.523,8.508v10.312c0,0.473-0.168,0.878-0.505,1.214
		c-0.337,0.337-0.741,0.505-1.214,0.505s-0.877-0.168-1.214-0.505c-0.337-0.336-0.505-0.741-0.505-1.214V388.215z M101.698,371.199
		c-2.378,0-4.404,0.838-6.08,2.514s-2.514,3.703-2.514,6.08c0,2.378,0.838,4.404,2.514,6.08s3.702,2.514,6.08,2.514
		c2.377,0,4.404-0.838,6.08-2.514s2.514-3.702,2.514-6.08c0-2.377-0.838-4.404-2.514-6.08S104.075,371.199,101.698,371.199z"/>
	<path d="M117.167,359.168c0-0.473,0.168-0.877,0.505-1.214c0.336-0.336,0.741-0.505,1.214-0.505s0.877,0.169,1.214,0.505
		c0.336,0.337,0.505,0.741,0.505,1.214v29.219h1.719c0.473,0,0.877,0.169,1.214,0.505c0.336,0.337,0.505,0.741,0.505,1.214
		s-0.168,0.878-0.505,1.214c-0.337,0.337-0.741,0.505-1.214,0.505h-3.438c-0.473,0-0.877-0.168-1.214-0.505
		c-0.337-0.336-0.505-0.741-0.505-1.214V359.168z"/>
	<path d="M143.807,371.371c0.028-0.028,0.057-0.057,0.086-0.086c2.349-2.349,5.185-3.523,8.508-3.523
		c3.323,0,6.159,1.175,8.508,3.523c2.349,2.35,3.523,5.186,3.523,8.508c0,3.323-1.175,6.159-3.523,8.508
		c-2.349,2.35-5.185,3.523-8.508,3.523c-3.323,0-6.159-1.174-8.508-3.523c-2.349-2.349-3.523-5.185-3.523-8.508v-20.668
		c0-0.473,0.168-0.877,0.505-1.214c0.336-0.336,0.741-0.505,1.214-0.505s0.877,0.169,1.214,0.505
		c0.336,0.337,0.505,0.741,0.505,1.214V371.371z M152.401,388.387c2.377,0,4.404-0.838,6.08-2.514s2.514-3.702,2.514-6.08
		c0-2.377-0.838-4.404-2.514-6.08s-3.703-2.514-6.08-2.514c-2.378,0-4.404,0.838-6.08,2.514s-2.514,3.703-2.514,6.08
		c0,2.378,0.838,4.404,2.514,6.08S150.023,388.387,152.401,388.387z"/>
	<path d="M173.456,362.605c0,0.588-0.211,1.093-0.634,1.515c-0.423,0.423-0.928,0.634-1.515,0.634c-0.587,0-1.092-0.211-1.515-0.634
		c-0.423-0.422-0.634-0.927-0.634-1.515c0-0.587,0.211-1.092,0.634-1.515c0.422-0.422,0.927-0.634,1.515-0.634
		c0.587,0,1.092,0.212,1.515,0.634C173.244,361.514,173.456,362.019,173.456,362.605z M169.588,369.48
		c0-0.473,0.168-0.877,0.505-1.214c0.336-0.336,0.741-0.505,1.214-0.505s0.877,0.169,1.214,0.505
		c0.336,0.337,0.505,0.741,0.505,1.214v20.625c0,0.473-0.168,0.878-0.505,1.214c-0.337,0.337-0.741,0.505-1.214,0.505
		s-0.877-0.168-1.214-0.505c-0.337-0.336-0.505-0.741-0.505-1.214V369.48z"/>
	<path d="M190.213,388.387c0.473,0,0.877,0.169,1.214,0.505c0.336,0.337,0.505,0.741,0.505,1.214s-0.168,0.878-0.505,1.214
		c-0.337,0.337-0.741,0.505-1.214,0.505c-5.729,0-8.594-2.864-8.594-8.594v-12.031h-1.719c-0.473,0-0.877-0.168-1.214-0.505
		c-0.337-0.336-0.505-0.741-0.505-1.214s0.168-0.877,0.505-1.214c0.336-0.336,0.741-0.505,1.214-0.505h1.719v-8.594
		c0-0.473,0.168-0.877,0.505-1.214c0.336-0.336,0.741-0.505,1.214-0.505s0.877,0.169,1.214,0.505
		c0.336,0.337,0.505,0.741,0.505,1.214v8.594h3.459c0.473,0,0.877,0.169,1.214,0.505c0.336,0.337,0.505,0.741,0.505,1.214
		s-0.168,0.878-0.505,1.214c-0.337,0.337-0.741,0.505-1.214,0.505h-3.459v12.031C185.057,386.668,186.776,388.387,190.213,388.387z"
		/>
	<path d="M212.127,385.938c0.473,0,0.877,0.169,1.214,0.505c0.336,0.337,0.505,0.741,0.505,1.214s-0.179,0.896-0.537,1.268
		c-2.22,1.934-4.834,2.9-7.842,2.9c-3.323,0-6.159-1.174-8.508-3.523c-2.349-2.349-3.523-5.185-3.523-8.508
		c0-3.322,1.174-6.158,3.523-8.508c2.349-2.349,5.185-3.523,8.508-3.523c3.008,0,5.622,0.967,7.842,2.9
		c0.401,0.358,0.602,0.803,0.602,1.332c0,0.473-0.168,0.878-0.505,1.214c-0.337,0.337-0.741,0.505-1.214,0.505
		c-0.416,0-0.781-0.129-1.096-0.387c-1.604-1.418-3.48-2.127-5.629-2.127c-2.378,0-4.404,0.838-6.08,2.514s-2.514,3.703-2.514,6.08
		c0,2.378,0.838,4.404,2.514,6.08s3.702,2.514,6.08,2.514c2.148,0,4.018-0.701,5.607-2.105
		C211.375,386.053,211.726,385.938,212.127,385.938z"/>
	<path fill="#3399CC" d="M241.561,379.793c0,3.352-1.175,6.188-3.523,8.508c-2.378,2.35-5.214,3.523-8.508,3.523
		c-3.323,0-6.159-1.174-8.508-3.523c-2.349-2.349-3.523-5.185-3.523-8.508c0-3.322,1.174-6.158,3.523-8.508
		c2.349-2.349,5.185-3.523,8.508-3.523c3.294,0,6.13,1.175,8.508,3.523c1.174,1.175,2.052,2.471,2.632,3.889
		S241.546,378.132,241.561,379.793z M229.53,372.252c-1.061,0-2.048,0.201-2.965,0.602c-0.917,0.401-1.712,0.942-2.385,1.622
		c-0.674,0.681-1.207,1.479-1.601,2.396c-0.394,0.917-0.591,1.891-0.591,2.922s0.197,2.006,0.591,2.922
		c0.394,0.917,0.927,1.716,1.601,2.396c0.673,0.681,1.468,1.222,2.385,1.622c0.917,0.401,1.904,0.602,2.965,0.602
		c1.045,0,2.026-0.2,2.943-0.602c0.916-0.4,1.715-0.945,2.396-1.633c0.68-0.688,1.217-1.485,1.611-2.396
		c0.394-0.909,0.591-1.88,0.591-2.911s-0.197-2.001-0.591-2.911c-0.395-0.909-0.932-1.708-1.611-2.396
		c-0.681-0.688-1.479-1.231-2.396-1.633C231.556,372.453,230.575,372.252,229.53,372.252z"/>
	<path d="M250.584,362.605c0,0.588-0.212,1.093-0.634,1.515c-0.423,0.423-0.928,0.634-1.515,0.634c-0.588,0-1.093-0.211-1.515-0.634
		c-0.423-0.422-0.634-0.927-0.634-1.515c0-0.587,0.211-1.092,0.634-1.515c0.422-0.422,0.927-0.634,1.515-0.634
		c0.587,0,1.092,0.212,1.515,0.634C250.373,361.514,250.584,362.019,250.584,362.605z M246.717,369.48
		c0-0.473,0.168-0.877,0.505-1.214c0.336-0.336,0.741-0.505,1.214-0.505s0.877,0.169,1.214,0.505
		c0.336,0.337,0.505,0.741,0.505,1.214v20.625c0,0.473-0.169,0.878-0.505,1.214c-0.337,0.337-0.741,0.505-1.214,0.505
		s-0.878-0.168-1.214-0.505c-0.337-0.336-0.505-0.741-0.505-1.214V369.48z"/>
	<path d="M255.311,369.48c0-0.473,0.168-0.877,0.505-1.214c0.336-0.336,0.741-0.505,1.214-0.505s0.877,0.169,1.214,0.505
		c0.336,0.337,0.505,0.741,0.505,1.214v1.396c2.148-2.076,4.727-3.115,7.734-3.115c3.079,0,5.711,1.093,7.896,3.276
		c2.184,2.185,3.276,4.816,3.276,7.896v11.172c0,0.473-0.169,0.878-0.505,1.214c-0.337,0.337-0.741,0.505-1.214,0.505
		s-0.878-0.168-1.214-0.505c-0.337-0.336-0.505-0.741-0.505-1.214v-11.172c0-2.134-0.756-3.956-2.267-5.468
		c-1.512-1.511-3.334-2.267-5.468-2.267c-2.135,0-3.957,0.756-5.468,2.267c-1.512,1.512-2.267,3.334-2.267,5.468v11.172
		c0,0.473-0.169,0.878-0.505,1.214c-0.337,0.337-0.741,0.505-1.214,0.505s-0.878-0.168-1.214-0.505
		c-0.337-0.336-0.505-0.741-0.505-1.214V369.48z"/>
	<path d="M308.249,368.256c0.329-0.329,0.73-0.494,1.203-0.494s0.881,0.165,1.225,0.494c0.215,0.229,0.365,0.494,0.451,0.795
		l5.199,15.619l5.307-15.92c0.086-0.172,0.207-0.336,0.365-0.494c0.329-0.329,0.73-0.494,1.203-0.494s0.877,0.169,1.214,0.505
		c0.336,0.337,0.505,0.741,0.505,1.214c0,0.229-0.043,0.451-0.129,0.666l-6.854,20.582c-0.086,0.215-0.215,0.423-0.387,0.623
		c-0.344,0.315-0.752,0.473-1.225,0.473s-0.874-0.157-1.203-0.473c-0.187-0.2-0.322-0.408-0.408-0.623l-5.264-15.812l-5.264,15.812
		c-0.086,0.215-0.215,0.423-0.387,0.623c-0.344,0.315-0.752,0.473-1.225,0.473s-0.874-0.157-1.203-0.473
		c-0.187-0.2-0.322-0.408-0.408-0.623l-6.854-20.582c-0.086-0.215-0.129-0.437-0.129-0.666c0-0.473,0.168-0.877,0.505-1.214
		c0.336-0.336,0.741-0.505,1.214-0.505s0.881,0.165,1.225,0.494c0.143,0.158,0.258,0.322,0.344,0.494l5.307,15.92l5.199-15.619
		C307.875,368.75,308.034,368.485,308.249,368.256z"/>
	<path d="M348.983,388.215c-2.406,2.406-5.271,3.609-8.594,3.609c-3.323,0-6.159-1.174-8.508-3.523
		c-2.35-2.349-3.523-5.185-3.523-8.508c0-3.322,1.174-6.158,3.523-8.508c2.349-2.349,5.185-3.523,8.508-3.523
		c3.322,0,6.158,1.175,8.508,3.523c2.349,2.35,3.523,5.186,3.523,8.508v10.312c0,0.473-0.169,0.878-0.505,1.214
		c-0.337,0.337-0.741,0.505-1.214,0.505s-0.878-0.168-1.214-0.505c-0.337-0.336-0.505-0.741-0.505-1.214V388.215z M340.389,371.199
		c-2.378,0-4.404,0.838-6.08,2.514s-2.514,3.703-2.514,6.08c0,2.378,0.838,4.404,2.514,6.08s3.702,2.514,6.08,2.514
		c2.377,0,4.404-0.838,6.08-2.514s2.514-3.702,2.514-6.08c0-2.377-0.838-4.404-2.514-6.08S342.766,371.199,340.389,371.199z"/>
	<path d="M355.858,359.168c0-0.473,0.168-0.877,0.505-1.214c0.336-0.336,0.741-0.505,1.214-0.505s0.877,0.169,1.214,0.505
		c0.336,0.337,0.505,0.741,0.505,1.214v29.219h1.719c0.473,0,0.877,0.169,1.214,0.505c0.336,0.337,0.505,0.741,0.505,1.214
		s-0.169,0.878-0.505,1.214c-0.337,0.337-0.741,0.505-1.214,0.505h-3.438c-0.473,0-0.878-0.168-1.214-0.505
		c-0.337-0.336-0.505-0.741-0.505-1.214V359.168z"/>
	<path d="M366.17,359.168c0-0.473,0.168-0.877,0.505-1.214c0.336-0.336,0.741-0.505,1.214-0.505s0.877,0.169,1.214,0.505
		c0.336,0.337,0.505,0.741,0.505,1.214v29.219h1.719c0.473,0,0.877,0.169,1.214,0.505c0.336,0.337,0.505,0.741,0.505,1.214
		s-0.169,0.878-0.505,1.214c-0.337,0.337-0.741,0.505-1.214,0.505h-3.438c-0.473,0-0.878-0.168-1.214-0.505
		c-0.337-0.336-0.505-0.741-0.505-1.214V359.168z"/>
	<path d="M395.131,385.98c0.473,0,0.877,0.169,1.214,0.505c0.336,0.337,0.505,0.741,0.505,1.214s-0.165,0.881-0.494,1.225
		c-2.221,1.934-4.834,2.9-7.842,2.9c-3.323,0-6.159-1.174-8.508-3.523c-2.35-2.349-3.523-5.185-3.523-8.508
		c0-3.322,1.174-6.158,3.523-8.508c2.349-2.349,5.185-3.523,8.508-3.523c3.322,0,6.158,1.175,8.508,3.523
		c2.349,2.35,3.523,5.186,3.523,8.508c0,0.473-0.169,0.878-0.505,1.214c-0.337,0.337-0.741,0.505-1.214,0.505h-18.756
		c0.314,1.647,1.103,3.102,2.363,4.361c1.676,1.676,3.702,2.514,6.08,2.514c2.148,0,3.996-0.68,5.543-2.041
		C394.372,386.103,394.73,385.98,395.131,385.98z M396.958,378.074c-0.315-1.646-1.104-3.101-2.363-4.361
		c-1.676-1.676-3.703-2.514-6.08-2.514c-2.378,0-4.404,0.838-6.08,2.514c-1.261,1.261-2.049,2.715-2.363,4.361H396.958z"/>
	<path d="M414.081,388.387c0.473,0,0.877,0.169,1.214,0.505c0.336,0.337,0.505,0.741,0.505,1.214s-0.169,0.878-0.505,1.214
		c-0.337,0.337-0.741,0.505-1.214,0.505c-5.729,0-8.594-2.864-8.594-8.594v-12.031h-1.719c-0.473,0-0.878-0.168-1.214-0.505
		c-0.337-0.336-0.505-0.741-0.505-1.214s0.168-0.877,0.505-1.214c0.336-0.336,0.741-0.505,1.214-0.505h1.719v-8.594
		c0-0.473,0.168-0.877,0.505-1.214c0.336-0.336,0.741-0.505,1.214-0.505s0.877,0.169,1.214,0.505
		c0.336,0.337,0.505,0.741,0.505,1.214v8.594h3.459c0.473,0,0.877,0.169,1.214,0.505c0.336,0.337,0.505,0.741,0.505,1.214
		s-0.169,0.878-0.505,1.214c-0.337,0.337-0.741,0.505-1.214,0.505h-3.459v12.031C408.924,386.668,410.643,388.387,414.081,388.387z"
		/>
	<path d="M50.043,438.268c0.016-0.016,0.031-0.031,0.047-0.047c1.281-1.281,2.828-1.922,4.641-1.922s3.359,0.641,4.641,1.922
		s1.922,2.828,1.922,4.641s-0.641,3.359-1.922,4.641s-2.828,1.922-4.641,1.922s-3.359-0.641-4.641-1.922s-1.922-2.828-1.922-4.641
		v-11.273c0-0.258,0.092-0.479,0.275-0.662s0.404-0.275,0.662-0.275s0.479,0.092,0.662,0.275s0.275,0.404,0.275,0.662V438.268z
		 M54.731,447.549c1.297,0,2.402-0.457,3.316-1.371s1.371-2.02,1.371-3.316s-0.457-2.402-1.371-3.316s-2.02-1.371-3.316-1.371
		s-2.402,0.457-3.316,1.371s-1.371,2.02-1.371,3.316s0.457,2.402,1.371,3.316S53.434,447.549,54.731,447.549z"/>
	<path d="M67.059,448.475l-4.5-10.805c-0.07-0.133-0.105-0.277-0.105-0.434c0-0.258,0.092-0.479,0.275-0.662
		s0.404-0.275,0.662-0.275s0.48,0.09,0.668,0.27c0.102,0.109,0.176,0.227,0.223,0.352l3.797,9.105l3.797-9.105
		c0.047-0.125,0.125-0.242,0.234-0.352c0.18-0.18,0.398-0.27,0.656-0.27s0.479,0.092,0.662,0.275s0.275,0.404,0.275,0.662
		c0,0.156-0.035,0.301-0.105,0.434l-6.984,16.758c-0.047,0.125-0.121,0.238-0.223,0.34c-0.188,0.188-0.41,0.281-0.668,0.281
		s-0.479-0.092-0.662-0.275s-0.275-0.404-0.275-0.662c0-0.156,0.035-0.301,0.105-0.434L67.059,448.475z"/>
	<path d="M93.86,447.455c-1.312,1.312-2.875,1.969-4.688,1.969s-3.359-0.641-4.641-1.922s-1.922-2.828-1.922-4.641
		s0.641-3.359,1.922-4.641s2.828-1.922,4.641-1.922s3.359,0.641,4.641,1.922s1.922,2.828,1.922,4.641v5.625
		c0,0.258-0.092,0.479-0.275,0.662s-0.404,0.275-0.662,0.275s-0.479-0.092-0.662-0.275s-0.275-0.404-0.275-0.662V447.455z
		 M89.172,438.174c-1.297,0-2.402,0.457-3.316,1.371s-1.371,2.02-1.371,3.316s0.457,2.402,1.371,3.316s2.02,1.371,3.316,1.371
		s2.402-0.457,3.316-1.371s1.371-2.02,1.371-3.316s-0.457-2.402-1.371-3.316S90.469,438.174,89.172,438.174z"/>
	<path d="M109.797,448.486c0,0.258-0.092,0.479-0.275,0.662s-0.404,0.275-0.662,0.275s-0.479-0.092-0.662-0.275
		s-0.275-0.404-0.275-0.662v-0.762c-1.172,1.133-2.578,1.699-4.219,1.699c-1.68,0-3.115-0.596-4.307-1.787s-1.787-2.627-1.787-4.307
		v-6.094c0-0.258,0.092-0.479,0.275-0.662s0.404-0.275,0.662-0.275s0.479,0.092,0.662,0.275s0.275,0.404,0.275,0.662v6.094
		c0,1.164,0.412,2.158,1.236,2.982s1.818,1.236,2.982,1.236s2.158-0.412,2.982-1.236s1.236-1.818,1.236-2.982v-6.094
		c0-0.258,0.092-0.479,0.275-0.662s0.404-0.275,0.662-0.275s0.479,0.092,0.662,0.275s0.275,0.404,0.275,0.662V448.486z"/>
	<path d="M118.235,447.549c0.258,0,0.479,0.092,0.662,0.275s0.275,0.404,0.275,0.662s-0.092,0.479-0.275,0.662
		s-0.404,0.275-0.662,0.275c-3.125,0-4.688-1.562-4.688-4.688v-6.562h-0.938c-0.258,0-0.479-0.092-0.662-0.275
		s-0.275-0.404-0.275-0.662s0.092-0.479,0.275-0.662s0.404-0.275,0.662-0.275h0.938v-4.688c0-0.258,0.092-0.479,0.275-0.662
		s0.404-0.275,0.662-0.275s0.479,0.092,0.662,0.275s0.275,0.404,0.275,0.662v4.688h1.887c0.258,0,0.479,0.092,0.662,0.275
		s0.275,0.404,0.275,0.662s-0.092,0.479-0.275,0.662s-0.404,0.275-0.662,0.275h-1.887v6.562
		C115.422,446.611,116.36,447.549,118.235,447.549z"/>
	<path fill="#3399CC" d="M134.172,442.861c0,1.828-0.641,3.375-1.922,4.641c-1.297,1.281-2.844,1.922-4.641,1.922
		c-1.812,0-3.359-0.641-4.641-1.922s-1.922-2.828-1.922-4.641s0.641-3.359,1.922-4.641s2.828-1.922,4.641-1.922
		c1.797,0,3.344,0.641,4.641,1.922c0.641,0.641,1.119,1.348,1.436,2.121S134.165,441.955,134.172,442.861z M127.61,438.748
		c-0.578,0-1.117,0.109-1.617,0.328s-0.934,0.514-1.301,0.885s-0.658,0.807-0.873,1.307s-0.322,1.031-0.322,1.594
		s0.107,1.094,0.322,1.594s0.506,0.936,0.873,1.307s0.801,0.666,1.301,0.885s1.039,0.328,1.617,0.328
		c0.57,0,1.105-0.109,1.605-0.328s0.936-0.516,1.307-0.891s0.664-0.811,0.879-1.307s0.322-1.025,0.322-1.588
		s-0.107-1.092-0.322-1.588s-0.508-0.932-0.879-1.307s-0.807-0.672-1.307-0.891S128.18,438.748,127.61,438.748z"/>
	<path d="M137.922,448.486c0,0.258-0.092,0.479-0.275,0.662s-0.404,0.275-0.662,0.275s-0.479-0.092-0.662-0.275
		s-0.275-0.404-0.275-0.662v-11.25c0-0.258,0.092-0.479,0.275-0.662s0.404-0.275,0.662-0.275s0.479,0.092,0.662,0.275
		s0.275,0.404,0.275,0.662v0.246c0.93-0.789,2.023-1.184,3.281-1.184c1.422,0,2.637,0.504,3.645,1.512
		c0.211,0.211,0.402,0.434,0.574,0.668c0.172-0.234,0.363-0.457,0.574-0.668c1.008-1.008,2.223-1.512,3.645-1.512
		s2.637,0.504,3.645,1.512s1.512,2.223,1.512,3.645v7.031c0,0.258-0.092,0.479-0.275,0.662s-0.404,0.275-0.662,0.275
		s-0.479-0.092-0.662-0.275s-0.275-0.404-0.275-0.662v-7.031c0-0.906-0.32-1.68-0.961-2.32s-1.414-0.961-2.32-0.961
		s-1.68,0.32-2.32,0.961s-0.961,1.414-0.961,2.32v7.031c0,0.258-0.092,0.479-0.275,0.662s-0.404,0.275-0.662,0.275
		s-0.479-0.092-0.662-0.275s-0.275-0.404-0.275-0.662v-7.031c0-0.906-0.32-1.68-0.961-2.32s-1.414-0.961-2.32-0.961
		s-1.68,0.32-2.32,0.961s-0.961,1.414-0.961,2.32V448.486z"/>
	<path d="M167.922,447.455c-1.312,1.312-2.875,1.969-4.688,1.969s-3.359-0.641-4.641-1.922s-1.922-2.828-1.922-4.641
		s0.641-3.359,1.922-4.641s2.828-1.922,4.641-1.922s3.359,0.641,4.641,1.922s1.922,2.828,1.922,4.641v5.625
		c0,0.258-0.092,0.479-0.275,0.662s-0.404,0.275-0.662,0.275s-0.479-0.092-0.662-0.275s-0.275-0.404-0.275-0.662V447.455z
		 M163.235,438.174c-1.297,0-2.402,0.457-3.316,1.371s-1.371,2.02-1.371,3.316s0.457,2.402,1.371,3.316s2.02,1.371,3.316,1.371
		s2.402-0.457,3.316-1.371s1.371-2.02,1.371-3.316s-0.457-2.402-1.371-3.316S164.532,438.174,163.235,438.174z"/>
	<path d="M177.18,447.549c0.258,0,0.479,0.092,0.662,0.275s0.275,0.404,0.275,0.662s-0.092,0.479-0.275,0.662
		s-0.404,0.275-0.662,0.275c-3.125,0-4.688-1.562-4.688-4.688v-6.562h-0.938c-0.258,0-0.479-0.092-0.662-0.275
		s-0.275-0.404-0.275-0.662s0.092-0.479,0.275-0.662s0.404-0.275,0.662-0.275h0.938v-4.688c0-0.258,0.092-0.479,0.275-0.662
		s0.404-0.275,0.662-0.275s0.479,0.092,0.662,0.275s0.275,0.404,0.275,0.662v4.688h1.887c0.258,0,0.479,0.092,0.662,0.275
		s0.275,0.404,0.275,0.662s-0.092,0.479-0.275,0.662s-0.404,0.275-0.662,0.275h-1.887v6.562
		C174.368,446.611,175.305,447.549,177.18,447.549z"/>
	<path d="M183.04,433.486c0,0.32-0.115,0.596-0.346,0.826s-0.506,0.346-0.826,0.346s-0.596-0.115-0.826-0.346
		s-0.346-0.506-0.346-0.826s0.115-0.596,0.346-0.826s0.506-0.346,0.826-0.346s0.596,0.115,0.826,0.346
		S183.04,433.166,183.04,433.486z M180.93,437.236c0-0.258,0.092-0.479,0.275-0.662s0.404-0.275,0.662-0.275
		s0.479,0.092,0.662,0.275s0.275,0.404,0.275,0.662v11.25c0,0.258-0.092,0.479-0.275,0.662s-0.404,0.275-0.662,0.275
		s-0.479-0.092-0.662-0.275s-0.275-0.404-0.275-0.662V437.236z"/>
	<path d="M195.813,446.213c0.258,0,0.479,0.092,0.662,0.275s0.275,0.404,0.275,0.662s-0.098,0.488-0.293,0.691
		c-1.211,1.055-2.637,1.582-4.277,1.582c-1.812,0-3.359-0.641-4.641-1.922s-1.922-2.828-1.922-4.641s0.641-3.359,1.922-4.641
		s2.828-1.922,4.641-1.922c1.641,0,3.066,0.527,4.277,1.582c0.219,0.195,0.328,0.438,0.328,0.727c0,0.258-0.092,0.479-0.275,0.662
		s-0.404,0.275-0.662,0.275c-0.227,0-0.426-0.07-0.598-0.211c-0.875-0.773-1.898-1.16-3.07-1.16c-1.297,0-2.402,0.457-3.316,1.371
		s-1.371,2.02-1.371,3.316s0.457,2.402,1.371,3.316s2.02,1.371,3.316,1.371c1.172,0,2.191-0.383,3.059-1.148
		C195.403,446.275,195.594,446.213,195.813,446.213z"/>
	<path d="M213.274,430.674c0.258,0,0.479,0.092,0.662,0.275s0.275,0.404,0.275,0.662s-0.092,0.479-0.275,0.662
		s-0.404,0.275-0.662,0.275c-2.5,0-3.75,1.25-3.75,3.75v0.703h2.824c0.258,0,0.479,0.092,0.662,0.275s0.275,0.404,0.275,0.662
		s-0.092,0.479-0.275,0.662s-0.404,0.275-0.662,0.275h-2.824v9.609c0,0.258-0.092,0.479-0.275,0.662s-0.404,0.275-0.662,0.275
		s-0.479-0.092-0.662-0.275s-0.275-0.404-0.275-0.662v-9.609h-0.938c-0.258,0-0.479-0.092-0.662-0.275s-0.275-0.404-0.275-0.662
		s0.092-0.479,0.275-0.662s0.404-0.275,0.662-0.275h0.938v-0.703C207.649,432.549,209.524,430.674,213.274,430.674z"/>
	<path d="M228.274,442.861c0,1.812-0.641,3.359-1.922,4.641s-2.828,1.922-4.641,1.922s-3.359-0.641-4.641-1.922
		s-1.922-2.828-1.922-4.641s0.641-3.359,1.922-4.641s2.828-1.922,4.641-1.922s3.359,0.641,4.641,1.922
		S228.274,441.049,228.274,442.861z M221.711,438.174c-1.297,0-2.402,0.457-3.316,1.371s-1.371,2.02-1.371,3.316
		s0.457,2.402,1.371,3.316s2.02,1.371,3.316,1.371s2.402-0.457,3.316-1.371s1.371-2.02,1.371-3.316s-0.457-2.402-1.371-3.316
		S223.008,438.174,221.711,438.174z"/>
	<path d="M230.149,437.236c0-0.258,0.092-0.479,0.275-0.662s0.404-0.275,0.662-0.275s0.479,0.092,0.662,0.275
		s0.275,0.404,0.275,0.662v1.031c1.312-1.312,2.875-1.969,4.688-1.969c0.914,0,1.754,0.156,2.52,0.469
		c0.141,0.055,0.27,0.137,0.387,0.246c0.18,0.188,0.27,0.41,0.27,0.668s-0.092,0.479-0.275,0.662s-0.404,0.275-0.662,0.275
		c-0.148,0-0.285-0.031-0.41-0.094c-0.555-0.234-1.164-0.352-1.828-0.352c-1.297,0-2.402,0.457-3.316,1.371s-1.371,2.02-1.371,3.316
		v5.625c0,0.258-0.092,0.479-0.275,0.662s-0.404,0.275-0.662,0.275s-0.479-0.092-0.662-0.275s-0.275-0.404-0.275-0.662V437.236z"/>
	<path d="M254.993,447.549c0.258,0,0.479,0.092,0.662,0.275s0.275,0.404,0.275,0.662s-0.092,0.479-0.275,0.662
		s-0.404,0.275-0.662,0.275c-3.125,0-4.688-1.562-4.688-4.688v-6.562h-0.938c-0.258,0-0.479-0.092-0.662-0.275
		s-0.275-0.404-0.275-0.662s0.092-0.479,0.275-0.662s0.404-0.275,0.662-0.275h0.938v-4.688c0-0.258,0.092-0.479,0.275-0.662
		s0.404-0.275,0.662-0.275s0.479,0.092,0.662,0.275s0.275,0.404,0.275,0.662v4.688h1.887c0.258,0,0.479,0.092,0.662,0.275
		s0.275,0.404,0.275,0.662s-0.092,0.479-0.275,0.662s-0.404,0.275-0.662,0.275h-1.887v6.562
		C252.18,446.611,253.118,447.549,254.993,447.549z"/>
	<path d="M257.805,431.611c0-0.258,0.092-0.479,0.275-0.662s0.404-0.275,0.662-0.275s0.479,0.092,0.662,0.275
		s0.275,0.404,0.275,0.662v6.387c1.172-1.133,2.578-1.699,4.219-1.699c1.68,0,3.115,0.596,4.307,1.787s1.787,2.627,1.787,4.307
		v6.094c0,0.258-0.092,0.479-0.275,0.662s-0.404,0.275-0.662,0.275s-0.479-0.092-0.662-0.275s-0.275-0.404-0.275-0.662v-6.094
		c0-1.164-0.412-2.158-1.236-2.982s-1.818-1.236-2.982-1.236s-2.158,0.412-2.982,1.236s-1.236,1.818-1.236,2.982v6.094
		c0,0.258-0.092,0.479-0.275,0.662s-0.404,0.275-0.662,0.275s-0.479-0.092-0.662-0.275s-0.275-0.404-0.275-0.662V431.611z"/>
	<path d="M282.04,446.236c0.258,0,0.479,0.092,0.662,0.275s0.275,0.404,0.275,0.662s-0.09,0.48-0.27,0.668
		c-1.211,1.055-2.637,1.582-4.277,1.582c-1.812,0-3.359-0.641-4.641-1.922s-1.922-2.828-1.922-4.641s0.641-3.359,1.922-4.641
		s2.828-1.922,4.641-1.922s3.359,0.641,4.641,1.922s1.922,2.828,1.922,4.641c0,0.258-0.092,0.479-0.275,0.662
		s-0.404,0.275-0.662,0.275h-10.23c0.172,0.898,0.602,1.691,1.289,2.379c0.914,0.914,2.02,1.371,3.316,1.371
		c1.172,0,2.18-0.371,3.023-1.113C281.625,446.303,281.821,446.236,282.04,446.236z M283.036,441.924
		c-0.172-0.898-0.602-1.691-1.289-2.379c-0.914-0.914-2.02-1.371-3.316-1.371s-2.402,0.457-3.316,1.371
		c-0.688,0.688-1.117,1.48-1.289,2.379H283.036z"/>
	<path d="M295.774,454.111c0,0.258-0.092,0.479-0.275,0.662s-0.404,0.275-0.662,0.275s-0.479-0.092-0.662-0.275
		s-0.275-0.404-0.275-0.662v-11.25c0-1.812,0.641-3.359,1.922-4.641s2.828-1.922,4.641-1.922s3.359,0.641,4.641,1.922
		s1.922,2.828,1.922,4.641s-0.641,3.359-1.922,4.641s-2.828,1.922-4.641,1.922s-3.359-0.641-4.641-1.922
		c-0.016-0.016-0.031-0.031-0.047-0.047V454.111z M295.774,442.861c0,1.297,0.457,2.402,1.371,3.316s2.02,1.371,3.316,1.371
		s2.402-0.457,3.316-1.371s1.371-2.02,1.371-3.316s-0.457-2.402-1.371-3.316s-2.02-1.371-3.316-1.371s-2.402,0.457-3.316,1.371
		S295.774,441.564,295.774,442.861z"/>
	<path d="M319.071,446.236c0.258,0,0.479,0.092,0.662,0.275s0.275,0.404,0.275,0.662s-0.09,0.48-0.27,0.668
		c-1.211,1.055-2.637,1.582-4.277,1.582c-1.812,0-3.359-0.641-4.641-1.922s-1.922-2.828-1.922-4.641s0.641-3.359,1.922-4.641
		s2.828-1.922,4.641-1.922s3.359,0.641,4.641,1.922s1.922,2.828,1.922,4.641c0,0.258-0.092,0.479-0.275,0.662
		s-0.404,0.275-0.662,0.275h-10.23c0.172,0.898,0.602,1.691,1.289,2.379c0.914,0.914,2.02,1.371,3.316,1.371
		c1.172,0,2.18-0.371,3.023-1.113C318.657,446.303,318.852,446.236,319.071,446.236z M320.067,441.924
		c-0.172-0.898-0.602-1.691-1.289-2.379c-0.914-0.914-2.02-1.371-3.316-1.371s-2.402,0.457-3.316,1.371
		c-0.688,0.688-1.117,1.48-1.289,2.379H320.067z"/>
	<path fill="#3399CC" d="M337.024,442.861c0,1.828-0.641,3.375-1.922,4.641c-1.297,1.281-2.844,1.922-4.641,1.922
		c-1.812,0-3.359-0.641-4.641-1.922s-1.922-2.828-1.922-4.641s0.641-3.359,1.922-4.641s2.828-1.922,4.641-1.922
		c1.797,0,3.344,0.641,4.641,1.922c0.641,0.641,1.119,1.348,1.436,2.121S337.016,441.955,337.024,442.861z M330.461,438.748
		c-0.578,0-1.117,0.109-1.617,0.328s-0.934,0.514-1.301,0.885s-0.658,0.807-0.873,1.307s-0.322,1.031-0.322,1.594
		s0.107,1.094,0.322,1.594s0.506,0.936,0.873,1.307s0.801,0.666,1.301,0.885s1.039,0.328,1.617,0.328
		c0.57,0,1.105-0.109,1.605-0.328s0.936-0.516,1.307-0.891s0.664-0.811,0.879-1.307s0.322-1.025,0.322-1.588
		s-0.107-1.092-0.322-1.588s-0.508-0.932-0.879-1.307s-0.807-0.672-1.307-0.891S331.032,438.748,330.461,438.748z"/>
	<path d="M340.774,454.111c0,0.258-0.092,0.479-0.275,0.662s-0.404,0.275-0.662,0.275s-0.479-0.092-0.662-0.275
		s-0.275-0.404-0.275-0.662v-11.25c0-1.812,0.641-3.359,1.922-4.641s2.828-1.922,4.641-1.922s3.359,0.641,4.641,1.922
		s1.922,2.828,1.922,4.641s-0.641,3.359-1.922,4.641s-2.828,1.922-4.641,1.922s-3.359-0.641-4.641-1.922
		c-0.016-0.016-0.031-0.031-0.047-0.047V454.111z M340.774,442.861c0,1.297,0.457,2.402,1.371,3.316s2.02,1.371,3.316,1.371
		s2.402-0.457,3.316-1.371s1.371-2.02,1.371-3.316s-0.457-2.402-1.371-3.316s-2.02-1.371-3.316-1.371s-2.402,0.457-3.316,1.371
		S340.774,441.564,340.774,442.861z"/>
	<path d="M353.899,431.611c0-0.258,0.092-0.479,0.275-0.662s0.404-0.275,0.662-0.275s0.479,0.092,0.662,0.275
		s0.275,0.404,0.275,0.662v15.938h0.938c0.258,0,0.479,0.092,0.662,0.275s0.275,0.404,0.275,0.662s-0.092,0.479-0.275,0.662
		s-0.404,0.275-0.662,0.275h-1.875c-0.258,0-0.479-0.092-0.662-0.275s-0.275-0.404-0.275-0.662V431.611z"/>
	<path d="M369.696,446.236c0.258,0,0.479,0.092,0.662,0.275s0.275,0.404,0.275,0.662s-0.09,0.48-0.27,0.668
		c-1.211,1.055-2.637,1.582-4.277,1.582c-1.812,0-3.359-0.641-4.641-1.922s-1.922-2.828-1.922-4.641s0.641-3.359,1.922-4.641
		s2.828-1.922,4.641-1.922s3.359,0.641,4.641,1.922s1.922,2.828,1.922,4.641c0,0.258-0.092,0.479-0.275,0.662
		s-0.404,0.275-0.662,0.275h-10.23c0.172,0.898,0.602,1.691,1.289,2.379c0.914,0.914,2.02,1.371,3.316,1.371
		c1.172,0,2.18-0.371,3.023-1.113C369.282,446.303,369.477,446.236,369.696,446.236z M370.692,441.924
		c-0.172-0.898-0.602-1.691-1.289-2.379c-0.914-0.914-2.02-1.371-3.316-1.371s-2.402,0.457-3.316,1.371
		c-0.688,0.688-1.117,1.48-1.289,2.379H370.692z"/>
</g>
</svg>
