<?xml version="1.0" encoding="utf-8"?>
<!-- Generator: Adobe Illustrator 16.0.4, SVG Export Plug-In . SVG Version: 6.00 Build 0)  -->
<!DOCTYPE svg PUBLIC "-//W3C//DTD SVG 1.1//EN" "http://www.w3.org/Graphics/SVG/1.1/DTD/svg11.dtd">
<svg version="1.1" id="Layer_1" xmlns="http://www.w3.org/2000/svg" xmlns:xlink="http://www.w3.org/1999/xlink" x="0px" y="0px"
	 width="160px" height="160px" viewBox="0 0 160 160" enable-background="new 0 0 160 160" xml:space="preserve">
<g>
	<path fill="#3498CB" d="M80,155c-41.355,0-75-33.645-75-75C5,38.645,38.645,5,80,5c41.355,0,75,33.645,75,75
		C155,121.355,121.355,155,80,155z"/>
	<path fill="#3498CB" d="M80,10c38.598,0,70,31.402,70,70c0,38.598-31.402,70-70,70c-38.598,0-70-31.402-70-70
		C10,41.402,41.402,10,80,10 M80,0C35.817,0,0,35.817,0,80s35.817,80,80,80s80-35.817,80-80S124.183,0,80,0L80,0z"/>
</g>
<g>
	<path fill="#FFFFFF" d="M62.994,119.38c4.136,0,7.5,3.364,7.5,7.5s-3.364,7.5-7.5,7.5s-7.5-3.364-7.5-7.5
		S58.858,119.38,62.994,119.38 M62.994,115.38c-6.352,0-11.5,5.148-11.5,11.5s5.148,11.5,11.5,11.5c6.351,0,11.5-5.148,11.5-11.5
		S69.345,115.38,62.994,115.38L62.994,115.38z"/>
</g>
<g>
	<path fill="#FFFFFF" d="M50.544,97.815c4.136,0,7.5,3.364,7.5,7.5s-3.364,7.5-7.5,7.5s-7.5-3.364-7.5-7.5
		S46.408,97.815,50.544,97.815 M50.544,93.815c-6.352,0-11.5,5.149-11.5,11.5c0,6.352,5.148,11.5,11.5,11.5
		c6.351,0,11.5-5.148,11.5-11.5C62.044,98.965,56.895,93.815,50.544,93.815L50.544,93.815z"/>
</g>
<g>
	<path fill="#FFFFFF" d="M87.894,76.252c4.136,0,7.5,3.364,7.5,7.5s-3.364,7.5-7.5,7.5c-4.136,0-7.5-3.364-7.5-7.5
		S83.758,76.252,87.894,76.252 M87.894,72.252c-6.351,0-11.5,5.148-11.5,11.5s5.149,11.5,11.5,11.5s11.5-5.148,11.5-11.5
		S94.245,72.252,87.894,72.252L87.894,72.252z"/>
</g>
<g>
	<path fill="#FFFFFF" d="M38.094,76.252c4.136,0,7.5,3.364,7.5,7.5s-3.364,7.5-7.5,7.5s-7.5-3.364-7.5-7.5
		S33.958,76.252,38.094,76.252 M38.094,72.252c-6.351,0-11.5,5.148-11.5,11.5s5.149,11.5,11.5,11.5c6.352,0,11.5-5.148,11.5-11.5
		S44.445,72.252,38.094,72.252L38.094,72.252z"/>
</g>
<g>
	<path fill="#FFFFFF" d="M75.444,97.815c4.136,0,7.5,3.364,7.5,7.5s-3.364,7.5-7.5,7.5s-7.5-3.364-7.5-7.5
		S71.309,97.815,75.444,97.815 M75.444,93.815c-6.352,0-11.5,5.149-11.5,11.5c0,6.352,5.148,11.5,11.5,11.5
		c6.351,0,11.5-5.148,11.5-11.5C86.944,98.965,81.795,93.815,75.444,93.815L75.444,93.815z"/>
</g>
<g>
	<path fill="#FFFFFF" d="M112.795,33.124c4.136,0,7.5,3.365,7.5,7.5s-3.364,7.5-7.5,7.5s-7.5-3.365-7.5-7.5
		S108.659,33.124,112.795,33.124 M112.795,29.124c-6.352,0-11.5,5.149-11.5,11.5c0,6.352,5.148,11.5,11.5,11.5
		c6.351,0,11.5-5.148,11.5-11.5C124.295,34.272,119.146,29.124,112.795,29.124L112.795,29.124z"/>
</g>
<g>
	<path fill="#FFFFFF" d="M100.345,54.688c4.136,0,7.5,3.364,7.5,7.5s-3.364,7.5-7.5,7.5s-7.5-3.364-7.5-7.5
		S96.209,54.688,100.345,54.688 M100.345,50.688c-6.352,0-11.5,5.149-11.5,11.5c0,6.352,5.148,11.5,11.5,11.5
		c6.351,0,11.5-5.148,11.5-11.5C111.845,55.836,106.695,50.688,100.345,50.688L100.345,50.688z"/>
</g>
<g>
	<path fill="#FFFFFF" d="M87.894,76.252c4.136,0,7.5,3.364,7.5,7.5s-3.364,7.5-7.5,7.5c-4.136,0-7.5-3.364-7.5-7.5
		S83.758,76.252,87.894,76.252 M87.894,72.252c-6.351,0-11.5,5.148-11.5,11.5s5.149,11.5,11.5,11.5s11.5-5.148,11.5-11.5
		S94.245,72.252,87.894,72.252L87.894,72.252z"/>
</g>
</svg>
