<?xml version="1.0" encoding="utf-8"?>
<!-- Generator: Adobe Illustrator 16.0.4, SVG Export Plug-In . SVG Version: 6.00 Build 0)  -->
<!DOCTYPE svg PUBLIC "-//W3C//DTD SVG 1.1//EN" "http://www.w3.org/Graphics/SVG/1.1/DTD/svg11.dtd">
<svg version="1.1" id="Layer_1" xmlns="http://www.w3.org/2000/svg" xmlns:xlink="http://www.w3.org/1999/xlink" x="0px" y="0px"
	 width="160px" height="160px" viewBox="0 0 160 160" enable-background="new 0 0 160 160" xml:space="preserve">
<g>
	<path fill="#3798CD" d="M62.994,119.379c4.136,0,7.5,3.364,7.5,7.5s-3.364,7.5-7.5,7.5s-7.5-3.364-7.5-7.5
		S58.858,119.379,62.994,119.379 M62.994,115.379c-6.351,0-11.5,5.149-11.5,11.5c0,6.352,5.149,11.5,11.5,11.5
		c6.352,0,11.5-5.148,11.5-11.5C74.494,120.529,69.345,115.379,62.994,115.379L62.994,115.379z"/>
</g>
<g>
	<path fill="#3798CD" d="M50.544,97.816c4.135,0,7.5,3.364,7.5,7.5s-3.365,7.5-7.5,7.5s-7.5-3.364-7.5-7.5
		S46.409,97.816,50.544,97.816 M50.544,93.816c-6.352,0-11.5,5.148-11.5,11.5c0,6.351,5.148,11.5,11.5,11.5
		c6.351,0,11.5-5.149,11.5-11.5C62.044,98.964,56.895,93.816,50.544,93.816L50.544,93.816z"/>
</g>
<g>
	<path fill="#3798CD" d="M87.894,76.251c4.136,0,7.5,3.364,7.5,7.5s-3.364,7.5-7.5,7.5s-7.5-3.364-7.5-7.5
		S83.758,76.251,87.894,76.251 M87.894,72.251c-6.352,0-11.5,5.149-11.5,11.5c0,6.352,5.148,11.5,11.5,11.5s11.5-5.148,11.5-11.5
		C99.394,77.4,94.246,72.251,87.894,72.251L87.894,72.251z"/>
</g>
<g>
	<path fill="#3798CD" d="M38.094,76.251c4.135,0,7.5,3.364,7.5,7.5s-3.365,7.5-7.5,7.5c-4.136,0-7.5-3.364-7.5-7.5
		S33.958,76.251,38.094,76.251 M38.094,72.251c-6.351,0-11.5,5.149-11.5,11.5c0,6.352,5.149,11.5,11.5,11.5
		c6.352,0,11.5-5.148,11.5-11.5C49.594,77.4,44.445,72.251,38.094,72.251L38.094,72.251z"/>
</g>
<g>
	<path fill="#3798CD" d="M75.444,97.816c4.135,0,7.5,3.364,7.5,7.5s-3.364,7.5-7.5,7.5s-7.5-3.364-7.5-7.5
		S71.309,97.816,75.444,97.816 M75.444,93.816c-6.352,0-11.5,5.148-11.5,11.5c0,6.351,5.148,11.5,11.5,11.5
		c6.351,0,11.5-5.149,11.5-11.5C86.944,98.964,81.795,93.816,75.444,93.816L75.444,93.816z"/>
</g>
<g>
	<path fill="#3798CD" d="M112.794,33.124c4.136,0,7.5,3.364,7.5,7.5s-3.364,7.5-7.5,7.5s-7.5-3.364-7.5-7.5
		S108.659,33.124,112.794,33.124 M112.794,29.124c-6.352,0-11.5,5.149-11.5,11.5c0,6.352,5.148,11.5,11.5,11.5s11.5-5.148,11.5-11.5
		C124.294,34.272,119.146,29.124,112.794,29.124L112.794,29.124z"/>
</g>
<g>
	<path fill="#3798CD" d="M100.344,54.688c4.136,0,7.5,3.365,7.5,7.5s-3.364,7.5-7.5,7.5s-7.5-3.365-7.5-7.5
		S96.208,54.688,100.344,54.688 M100.344,50.688c-6.352,0-11.5,5.149-11.5,11.5c0,6.352,5.148,11.5,11.5,11.5s11.5-5.148,11.5-11.5
		C111.844,55.836,106.696,50.688,100.344,50.688L100.344,50.688z"/>
</g>
<g>
	<path fill="#3798CD" d="M87.894,76.251c4.136,0,7.5,3.364,7.5,7.5s-3.364,7.5-7.5,7.5s-7.5-3.364-7.5-7.5
		S83.758,76.251,87.894,76.251 M87.894,72.251c-6.352,0-11.5,5.149-11.5,11.5c0,6.352,5.148,11.5,11.5,11.5s11.5-5.148,11.5-11.5
		C99.394,77.4,94.246,72.251,87.894,72.251L87.894,72.251z"/>
</g>
<g>
	<path fill="#3498CB" d="M80,4c41.907,0,76,34.093,76,76s-34.093,76-76,76S4,121.907,4,80S38.093,4,80,4 M80,0
		C35.817,0,0,35.817,0,80c0,44.183,35.817,80,80,80c44.183,0,80-35.817,80-80C160,35.817,124.183,0,80,0L80,0z"/>
</g>
</svg>
