<?xml version="1.0" encoding="utf-8"?>
<!-- Generator: Adobe Illustrator 16.0.4, SVG Export Plug-In . SVG Version: 6.00 Build 0)  -->
<!DOCTYPE svg PUBLIC "-//W3C//DTD SVG 1.1//EN" "http://www.w3.org/Graphics/SVG/1.1/DTD/svg11.dtd">
<svg version="1.1" id="Layer_1" xmlns="http://www.w3.org/2000/svg" xmlns:xlink="http://www.w3.org/1999/xlink" x="0px" y="0px"
	 width="97.701px" height="109.256px" viewBox="0 0 97.701 109.256" enable-background="new 0 0 97.701 109.256"
	 xml:space="preserve">
<g>
	<path fill="#3798CD" d="M36.4,90.256c4.136,0,7.5,3.364,7.5,7.5s-3.364,7.5-7.5,7.5s-7.5-3.364-7.5-7.5S32.265,90.256,36.4,90.256
		 M36.4,86.256c-6.352,0-11.5,5.148-11.5,11.5s5.148,11.5,11.5,11.5c6.351,0,11.5-5.148,11.5-11.5S42.751,86.256,36.4,86.256
		L36.4,86.256z"/>
</g>
<g>
	<path fill="#3798CD" d="M23.95,68.692c4.136,0,7.5,3.364,7.5,7.5s-3.364,7.5-7.5,7.5s-7.5-3.364-7.5-7.5
		S19.814,68.692,23.95,68.692 M23.95,64.692c-6.351,0-11.5,5.149-11.5,11.5c0,6.352,5.149,11.5,11.5,11.5s11.5-5.148,11.5-11.5
		C35.45,69.841,30.301,64.692,23.95,64.692L23.95,64.692z"/>
</g>
<g>
	<path fill="#3798CD" d="M61.301,47.128c4.136,0,7.5,3.364,7.5,7.5s-3.364,7.5-7.5,7.5s-7.501-3.364-7.501-7.5
		S57.165,47.128,61.301,47.128 M61.301,43.128c-6.352,0-11.5,5.148-11.5,11.5s5.149,11.5,11.5,11.5c6.351,0,11.5-5.148,11.5-11.5
		S67.651,43.128,61.301,43.128L61.301,43.128z"/>
</g>
<g>
	<path fill="#3798CD" d="M11.5,47.128c4.136,0,7.5,3.364,7.5,7.5s-3.364,7.5-7.5,7.5S4,58.764,4,54.628S7.364,47.128,11.5,47.128
		 M11.5,43.128c-6.351,0-11.5,5.148-11.5,11.5s5.149,11.5,11.5,11.5c6.352,0,11.5-5.148,11.5-11.5S17.852,43.128,11.5,43.128
		L11.5,43.128z"/>
</g>
<g>
	<path fill="#3798CD" d="M48.851,68.692c4.136,0,7.5,3.364,7.5,7.5s-3.364,7.5-7.5,7.5s-7.5-3.364-7.5-7.5
		S44.715,68.692,48.851,68.692 M48.851,64.692c-6.352,0-11.5,5.149-11.5,11.5c0,6.352,5.148,11.5,11.5,11.5s11.5-5.148,11.5-11.5
		C60.351,69.841,55.202,64.692,48.851,64.692L48.851,64.692z"/>
</g>
<g>
	<path fill="#3798CD" d="M86.201,4c4.136,0,7.5,3.365,7.5,7.5s-3.364,7.5-7.5,7.5s-7.5-3.365-7.5-7.5S82.065,4,86.201,4 M86.201,0
		c-6.352,0-11.5,5.149-11.5,11.5c0,6.352,5.148,11.5,11.5,11.5c6.351,0,11.5-5.148,11.5-11.5C97.701,5.149,92.552,0,86.201,0
		L86.201,0z"/>
</g>
<g>
	<path fill="#3798CD" d="M73.751,25.564c4.136,0,7.5,3.365,7.5,7.5s-3.364,7.5-7.5,7.5s-7.5-3.365-7.5-7.5
		S69.615,25.564,73.751,25.564 M73.751,21.564c-6.352,0-11.5,5.148-11.5,11.5c0,6.351,5.148,11.5,11.5,11.5s11.5-5.149,11.5-11.5
		C85.251,26.713,80.103,21.564,73.751,21.564L73.751,21.564z"/>
</g>
<g>
	<path fill="#3798CD" d="M61.301,47.128c4.136,0,7.5,3.364,7.5,7.5s-3.364,7.5-7.5,7.5s-7.501-3.364-7.501-7.5
		S57.165,47.128,61.301,47.128 M61.301,43.128c-6.352,0-11.5,5.148-11.5,11.5s5.149,11.5,11.5,11.5c6.351,0,11.5-5.148,11.5-11.5
		S67.651,43.128,61.301,43.128L61.301,43.128z"/>
</g>
</svg>
