<?xml version="1.0" encoding="utf-8"?>
<!-- Generator: Adobe Illustrator 16.0.4, SVG Export Plug-In . SVG Version: 6.00 Build 0)  -->
<!DOCTYPE svg PUBLIC "-//W3C//DTD SVG 1.1//EN" "http://www.w3.org/Graphics/SVG/1.1/DTD/svg11.dtd">
<svg version="1.1" id="Layer_1" xmlns="http://www.w3.org/2000/svg" xmlns:xlink="http://www.w3.org/1999/xlink" x="0px" y="0px"
	 width="160px" height="160px" viewBox="0 0 160 160" enable-background="new 0 0 160 160" xml:space="preserve">
<g>
	<path fill="#3498CB" d="M80,155c-41.355,0-75-33.645-75-75C5,38.645,38.645,5,80,5c41.355,0,75,33.645,75,75
		C155,121.355,121.355,155,80,155z"/>
	<path fill="#3498CB" d="M80,10c38.598,0,70,31.402,70,70c0,38.598-31.402,70-70,70c-38.598,0-70-31.402-70-70
		C10,41.402,41.402,10,80,10 M80,0C35.817,0,0,35.817,0,80s35.817,80,80,80s80-35.817,80-80S124.183,0,80,0L80,0z"/>
</g>
<g>
	<path fill="#FFFFFF" d="M70.295,101.262c3.722,0,6.75,3.028,6.75,6.751c0,3.722-3.028,6.75-6.75,6.75s-6.75-3.028-6.75-6.75
		C63.545,104.29,66.573,101.262,70.295,101.262 M70.295,97.662c-5.716,0-10.35,4.635-10.35,10.351s4.634,10.35,10.35,10.35
		c5.716,0,10.35-4.634,10.35-10.35S76.012,97.662,70.295,97.662L70.295,97.662z"/>
</g>
<g>
	<path fill="#FFFFFF" d="M70.296,78.853c3.722,0,6.75,3.028,6.75,6.75s-3.028,6.75-6.75,6.75s-6.75-3.028-6.75-6.75
		S66.574,78.853,70.296,78.853 M70.296,75.252c-5.716,0-10.35,4.634-10.35,10.35c0,5.716,4.634,10.35,10.35,10.35
		c5.716,0,10.35-4.634,10.35-10.35C80.646,79.886,76.012,75.252,70.296,75.252L70.296,75.252z"/>
</g>
<g>
	<path fill="#FFFFFF" d="M50.888,67.647c3.722,0,6.75,3.028,6.75,6.75c0,3.722-3.028,6.75-6.75,6.75s-6.75-3.028-6.75-6.75
		C44.138,70.675,47.166,67.647,50.888,67.647 M50.888,64.047c-5.716,0-10.35,4.634-10.35,10.35s4.634,10.35,10.35,10.35
		s10.35-4.633,10.35-10.35S56.604,64.047,50.888,64.047L50.888,64.047z"/>
</g>
<g>
	<path fill="#FFFFFF" d="M89.703,67.647c3.723,0,6.751,3.028,6.751,6.75c0,3.722-3.028,6.75-6.751,6.75
		c-3.722,0-6.75-3.028-6.75-6.75C82.953,70.675,85.981,67.647,89.703,67.647 M89.703,64.047c-5.716,0-10.35,4.634-10.35,10.35
		s4.634,10.35,10.35,10.35c5.717,0,10.351-4.633,10.351-10.35S95.42,64.047,89.703,64.047L89.703,64.047z"/>
</g>
<g>
	<path fill="#FFFFFF" d="M109.111,34.032c3.723,0,6.751,3.028,6.751,6.75s-3.028,6.75-6.751,6.75c-3.722,0-6.75-3.028-6.75-6.75
		S105.39,34.032,109.111,34.032 M109.111,30.432c-5.716,0-10.35,4.634-10.35,10.35c0,5.716,4.634,10.35,10.35,10.35
		c5.717,0,10.351-4.634,10.351-10.35C119.462,35.066,114.828,30.432,109.111,30.432L109.111,30.432z"/>
</g>
<g>
	<path fill="#FFFFFF" d="M89.704,22.827c3.722,0,6.75,3.028,6.75,6.75s-3.028,6.75-6.75,6.75s-6.75-3.028-6.75-6.75
		S85.982,22.827,89.704,22.827 M89.704,19.227c-5.716,0-10.35,4.634-10.35,10.35c0,5.716,4.634,10.35,10.35,10.35
		s10.35-4.634,10.35-10.35C100.054,23.861,95.42,19.227,89.704,19.227L89.704,19.227z"/>
</g>
<g>
	<path fill="#FFFFFF" d="M70.296,34.033c3.722,0,6.75,3.028,6.75,6.75c0,3.722-3.028,6.75-6.75,6.75c-3.722,0-6.75-3.028-6.75-6.75
		C63.546,37.061,66.574,34.033,70.296,34.033 M70.296,30.433c-5.716,0-10.35,4.634-10.35,10.35c0,5.716,4.634,10.35,10.35,10.35
		c5.716,0,10.35-4.634,10.35-10.35C80.646,35.066,76.012,30.433,70.296,30.433L70.296,30.433z"/>
</g>
<g>
	<path fill="#FFFFFF" d="M70.296,56.442c3.722,0,6.75,3.028,6.75,6.75s-3.028,6.75-6.75,6.75c-3.722,0-6.75-3.028-6.75-6.75
		S66.574,56.442,70.296,56.442 M70.296,52.842c-5.716,0-10.35,4.634-10.35,10.35s4.634,10.35,10.35,10.35
		c5.716,0,10.35-4.634,10.35-10.35S76.012,52.842,70.296,52.842L70.296,52.842z"/>
</g>
<g>
	<path fill="#FFFFFF" d="M70.296,78.853c3.722,0,6.75,3.028,6.75,6.75s-3.028,6.75-6.75,6.75s-6.75-3.028-6.75-6.75
		S66.574,78.853,70.296,78.853 M70.296,75.252c-5.716,0-10.35,4.634-10.35,10.35c0,5.716,4.634,10.35,10.35,10.35
		c5.716,0,10.35-4.634,10.35-10.35C80.646,79.886,76.012,75.252,70.296,75.252L70.296,75.252z"/>
</g>
<g>
	<path fill="#FFFFFF" d="M70.287,101.261L70.287,101.261c2.409,0,4.652,1.294,5.854,3.377c0.902,1.562,1.141,3.381,0.674,5.122
		c-0.466,1.742-1.583,3.197-3.145,4.099c-1.026,0.593-2.19,0.906-3.365,0.906c-2.41,0-4.654-1.294-5.856-3.377
		c-1.861-3.224-0.752-7.36,2.471-9.221C67.947,101.574,69.111,101.261,70.287,101.261 M70.286,97.661
		c-1.755,0-3.535,0.447-5.165,1.388c-4.95,2.858-6.646,9.188-3.789,14.139c1.917,3.32,5.396,5.177,8.974,5.177
		c1.755,0,3.535-0.447,5.165-1.388c4.95-2.858,6.646-9.188,3.788-14.139C77.342,99.517,73.863,97.66,70.286,97.661L70.286,97.661z"
		/>
</g>
<g>
	<path fill="#FFFFFF" d="M70.295,123.672c3.722,0,6.75,3.028,6.75,6.751c0,3.722-3.028,6.75-6.75,6.75
		c-3.722,0-6.75-3.028-6.75-6.75C63.545,126.7,66.573,123.672,70.295,123.672 M70.295,120.072c-5.716,0-10.35,4.635-10.35,10.351
		s4.634,10.35,10.35,10.35s10.35-4.634,10.35-10.35S76.012,120.072,70.295,120.072L70.295,120.072z"/>
</g>
</svg>
