<?xml version="1.0" encoding="utf-8"?>
<!-- Generator: Adobe Illustrator 16.0.4, SVG Export Plug-In . SVG Version: 6.00 Build 0)  -->
<!DOCTYPE svg PUBLIC "-//W3C//DTD SVG 1.1//EN" "http://www.w3.org/Graphics/SVG/1.1/DTD/svg11.dtd">
<svg version="1.1" id="Layer_1" xmlns="http://www.w3.org/2000/svg" xmlns:xlink="http://www.w3.org/1999/xlink" x="0px" y="0px"
	 width="160px" height="160px" viewBox="0 0 160 160" enable-background="new 0 0 160 160" xml:space="preserve">
<g>
	<path fill="#3699CD" d="M92.45,115.628c4.136,0,7.5,3.364,7.5,7.5s-3.364,7.5-7.5,7.5s-7.501-3.364-7.501-7.5
		S88.314,115.628,92.45,115.628 M92.45,111.628c-6.352,0-11.5,5.148-11.5,11.5s5.149,11.5,11.5,11.5c6.351,0,11.5-5.148,11.5-11.5
		S98.801,111.628,92.45,111.628L92.45,111.628z"/>
</g>
<g>
	<path fill="#3699CD" d="M104.9,94.063c4.136,0,7.5,3.364,7.5,7.5s-3.364,7.5-7.5,7.5s-7.5-3.364-7.5-7.5
		S100.765,94.063,104.9,94.063 M104.9,90.063c-6.352,0-11.5,5.149-11.5,11.5c0,6.352,5.148,11.5,11.5,11.5
		c6.351,0,11.5-5.148,11.5-11.5C116.4,95.213,111.251,90.063,104.9,90.063L104.9,90.063z"/>
</g>
<g>
	<path fill="#3699CD" d="M42.649,72.5c4.136,0,7.5,3.364,7.5,7.5s-3.364,7.5-7.5,7.5s-7.5-3.364-7.5-7.5S38.514,72.5,42.649,72.5
		 M42.649,68.5c-6.351,0-11.5,5.148-11.5,11.5s5.149,11.5,11.5,11.5c6.352,0,11.5-5.148,11.5-11.5S49.001,68.5,42.649,68.5
		L42.649,68.5z"/>
</g>
<g>
	<path fill="#3699CD" d="M67.55,72.5c4.136,0,7.5,3.364,7.5,7.5s-3.364,7.5-7.5,7.5s-7.5-3.364-7.5-7.5S63.414,72.5,67.55,72.5
		 M67.55,68.5c-6.351,0-11.5,5.148-11.5,11.5s5.149,11.5,11.5,11.5c6.352,0,11.5-5.148,11.5-11.5S73.901,68.5,67.55,68.5L67.55,68.5
		z"/>
</g>
<g>
	<path fill="#3699CD" d="M92.45,72.5c4.136,0,7.5,3.364,7.5,7.5s-3.364,7.5-7.5,7.5s-7.501-3.364-7.501-7.5S88.314,72.5,92.45,72.5
		 M92.45,68.5c-6.352,0-11.5,5.148-11.5,11.5s5.149,11.5,11.5,11.5c6.351,0,11.5-5.148,11.5-11.5S98.801,68.5,92.45,68.5L92.45,68.5
		z"/>
</g>
<g>
	<path fill="#3699CD" d="M117.35,72.5c4.136,0,7.5,3.364,7.5,7.5s-3.364,7.5-7.5,7.5s-7.5-3.364-7.5-7.5S113.214,72.5,117.35,72.5
		 M117.35,68.5c-6.351,0-11.5,5.148-11.5,11.5s5.149,11.5,11.5,11.5c6.352,0,11.5-5.148,11.5-11.5S123.701,68.5,117.35,68.5
		L117.35,68.5z"/>
</g>
<g>
	<path fill="#3699CD" d="M104.9,50.936c4.136,0,7.5,3.365,7.5,7.5s-3.364,7.5-7.5,7.5s-7.5-3.365-7.5-7.5
		S100.765,50.936,104.9,50.936 M104.9,46.936c-6.352,0-11.5,5.148-11.5,11.5c0,6.351,5.148,11.5,11.5,11.5
		c6.351,0,11.5-5.149,11.5-11.5C116.4,52.084,111.251,46.936,104.9,46.936L104.9,46.936z"/>
</g>
<g>
	<path fill="#3699CD" d="M92.45,29.372c4.136,0,7.5,3.365,7.5,7.5s-3.364,7.5-7.5,7.5s-7.501-3.365-7.501-7.5
		S88.314,29.372,92.45,29.372 M92.45,25.372c-6.352,0-11.5,5.149-11.5,11.5c0,6.352,5.149,11.5,11.5,11.5
		c6.351,0,11.5-5.148,11.5-11.5C103.95,30.521,98.801,25.372,92.45,25.372L92.45,25.372z"/>
</g>
<g>
	<path fill="#3499CD" d="M80,4c41.906,0,76,34.093,76,76c0,41.906-34.094,76-76,76c-41.907,0-76-34.094-76-76
		C4,38.093,38.093,4,80,4 M80,0C35.817,0,0,35.817,0,80s35.817,80,80,80s80-35.817,80-80S124.183,0,80,0L80,0z"/>
</g>
</svg>
