<?xml version="1.0" encoding="utf-8"?>
<!-- Generator: Adobe Illustrator 16.0.4, SVG Export Plug-In . SVG Version: 6.00 Build 0)  -->
<!DOCTYPE svg PUBLIC "-//W3C//DTD SVG 1.1//EN" "http://www.w3.org/Graphics/SVG/1.1/DTD/svg11.dtd">
<svg version="1.1" id="Layer_1" xmlns="http://www.w3.org/2000/svg" xmlns:xlink="http://www.w3.org/1999/xlink" x="0px" y="0px"
	 width="1277.243px" height="1221.125px" viewBox="0 0 1277.243 1221.125" enable-background="new 0 0 1277.243 1221.125"
	 xml:space="preserve">
<polygon fill="none" points="403.507,1106.125 258.198,658.912 638.622,382.518 1019.044,658.912 873.735,1106.125 "/>
<line fill="none" stroke="#3C99CD" stroke-width="9.704878e-05" stroke-miterlimit="10" x1="952.071" y1="547.915" x2="952.071" y2="547.915"/>
<polygon fill="none" points="0,1106.125 638.622,0 1277.243,1106.125 "/>
<g>
	<path fill="#3399CC" d="M403.507,1031.125c41.355,0,75,33.645,75,75s-33.645,75-75,75s-75-33.645-75-75
		S362.152,1031.125,403.507,1031.125 M403.507,991.125c-63.513,0-115,51.486-115,115c0,63.512,51.487,115,115,115
		s115-51.488,115-115C518.507,1042.611,467.02,991.125,403.507,991.125L403.507,991.125z"/>
</g>
<g>
	<path fill="#3399CC" d="M873.735,1031.125c41.355,0,75,33.645,75,75s-33.645,75-75,75s-75-33.645-75-75
		S832.38,1031.125,873.735,1031.125 M873.735,991.125c-63.513,0-115,51.486-115,115c0,63.512,51.487,115,115,115s115-51.488,115-115
		C988.735,1042.611,937.248,991.125,873.735,991.125L873.735,991.125z"/>
</g>
<g>
	<path fill="#3399CC" d="M1019.044,620.161c21.367,0,38.75,17.384,38.75,38.751s-17.383,38.75-38.75,38.75
		s-38.75-17.383-38.75-38.75S997.677,620.161,1019.044,620.161 M1019.044,590.162c-37.97,0-68.75,30.78-68.75,68.75
		c0,37.969,30.78,68.75,68.75,68.75s68.75-30.781,68.75-68.75C1087.794,620.941,1057.014,590.162,1019.044,590.162L1019.044,590.162
		z"/>
</g>
<g>
	<path fill="#3399CC" d="M258.198,620.161c21.367,0,38.75,17.384,38.75,38.751s-17.383,38.75-38.75,38.75s-38.75-17.383-38.75-38.75
		S236.832,620.161,258.198,620.161 M258.198,590.162c-37.97,0-68.75,30.78-68.75,68.75c0,37.969,30.78,68.75,68.75,68.75
		s68.75-30.781,68.75-68.75C326.948,620.941,296.168,590.162,258.198,590.162L258.198,590.162z"/>
</g>
<g>
	<path fill="#3399CC" d="M638.622,192.518c50.751,0,98.465,19.763,134.351,55.649s55.649,83.6,55.649,134.351
		s-19.764,98.464-55.649,134.35c-35.886,35.886-83.6,55.649-134.351,55.649s-98.464-19.763-134.351-55.649
		c-35.886-35.886-55.649-83.599-55.649-134.35s19.763-98.464,55.649-134.351S587.871,192.518,638.622,192.518 M638.622,122.518
		c-143.594,0-260,116.405-260,260s116.406,260,260,260c143.595,0,260-116.405,260-260S782.217,122.518,638.622,122.518
		L638.622,122.518z"/>
</g>
</svg>
