<?xml version="1.0" encoding="utf-8"?>
<!-- Generator: Adobe Illustrator 16.0.4, SVG Export Plug-In . SVG Version: 6.00 Build 0)  -->
<!DOCTYPE svg PUBLIC "-//W3C//DTD SVG 1.1//EN" "http://www.w3.org/Graphics/SVG/1.1/DTD/svg11.dtd">
<svg version="1.1" id="Layer_1" xmlns="http://www.w3.org/2000/svg" xmlns:xlink="http://www.w3.org/1999/xlink" x="0px" y="0px"
	 width="160px" height="160px" viewBox="0 0 160 160" enable-background="new 0 0 160 160" xml:space="preserve">
<g>
	<path fill="#3399CC" d="M80,10c38.598,0,70,31.402,70,70c0,38.598-31.402,70-70,70c-38.598,0-70-31.402-70-70
		C10,41.402,41.402,10,80,10 M80,0C35.817,0,0,35.817,0,80s35.817,80,80,80s80-35.817,80-80S124.183,0,80,0L80,0z"/>
</g>
<polygon fill="none" points="56.488,123.43 41.958,78.709 80,51.069 118.042,78.709 103.512,123.43 "/>
<g>
	<path fill="#3399CC" d="M56.488,115.93c4.136,0,7.5,3.364,7.5,7.5s-3.364,7.5-7.5,7.5s-7.5-3.364-7.5-7.5
		S52.353,115.93,56.488,115.93 M56.488,111.93c-6.351,0-11.5,5.149-11.5,11.5c0,6.352,5.149,11.5,11.5,11.5
		c6.352,0,11.5-5.148,11.5-11.5C67.988,117.079,62.84,111.93,56.488,111.93L56.488,111.93z"/>
</g>
<g>
	<path fill="#3399CC" d="M103.512,115.93c4.136,0,7.5,3.364,7.5,7.5s-3.364,7.5-7.5,7.5s-7.5-3.364-7.5-7.5
		S99.376,115.93,103.512,115.93 M103.512,111.93c-6.352,0-11.5,5.149-11.5,11.5c0,6.352,5.148,11.5,11.5,11.5
		c6.351,0,11.5-5.148,11.5-11.5C115.012,117.079,109.862,111.93,103.512,111.93L103.512,111.93z"/>
</g>
<g>
	<path fill="#3399CC" d="M118.042,72.709c3.309,0,6,2.691,6,6s-2.691,6-6,6s-6-2.691-6-6S114.733,72.709,118.042,72.709
		 M118.042,69.709c-4.971,0-9,4.029-9,9s4.029,9,9,9s9-4.029,9-9S123.013,69.709,118.042,69.709L118.042,69.709z"/>
</g>
<g>
	<path fill="#3399CC" d="M41.958,72.709c3.309,0,6,2.691,6,6s-2.691,6-6,6s-6-2.691-6-6S38.649,72.709,41.958,72.709 M41.958,69.709
		c-4.971,0-9,4.029-9,9s4.029,9,9,9s9-4.029,9-9S46.928,69.709,41.958,69.709L41.958,69.709z"/>
</g>
<g>
	<path fill="#3399CC" d="M80,32.069c10.477,0,19,8.523,19,19s-8.523,19-19,19s-19-8.523-19-19S69.523,32.069,80,32.069 M80,25.069
		c-14.359,0-26,11.641-26,26c0,14.36,11.641,26,26,26s26-11.64,26-26C106,36.71,94.359,25.069,80,25.069L80,25.069z"/>
</g>
</svg>
