<?xml version="1.0" encoding="utf-8"?>
<!-- Generator: Adobe Illustrator 16.0.4, SVG Export Plug-In . SVG Version: 6.00 Build 0)  -->
<!DOCTYPE svg PUBLIC "-//W3C//DTD SVG 1.1//EN" "http://www.w3.org/Graphics/SVG/1.1/DTD/svg11.dtd">
<svg version="1.1" id="Layer_1" xmlns="http://www.w3.org/2000/svg" xmlns:xlink="http://www.w3.org/1999/xlink" x="0px" y="0px"
	 width="160px" height="160px" viewBox="0 0 160 160" enable-background="new 0 0 160 160" xml:space="preserve">
<g>
	<path fill="#3399CC" d="M80,155c-41.355,0-75-33.645-75-75C5,38.645,38.645,5,80,5c41.355,0,75,33.645,75,75
		C155,121.355,121.355,155,80,155z"/>
	<path fill="#3399CC" d="M80,10c38.598,0,70,31.402,70,70c0,38.598-31.402,70-70,70c-38.598,0-70-31.402-70-70
		C10,41.402,41.402,10,80,10 M80,0C35.817,0,0,35.817,0,80s35.817,80,80,80s80-35.817,80-80S124.183,0,80,0L80,0z"/>
</g>
<g>
	<path fill="#FFFFFF" d="M62,42.823c3.309,0,6,2.691,6,6s-2.691,6-6,6s-6-2.691-6-6S58.691,42.823,62,42.823 M62,39.823
		c-4.971,0-9,4.029-9,9s4.029,9,9,9s9-4.029,9-9S66.971,39.823,62,39.823L62,39.823z"/>
</g>
<g>
	<path fill="#FFFFFF" d="M48.823,92c3.309,0,6,2.691,6,6s-2.691,6-6,6s-6-2.691-6-6S45.514,92,48.823,92 M48.823,89
		c-4.97,0-9,4.029-9,9s4.03,9,9,9c4.971,0,9-4.029,9-9S53.793,89,48.823,89L48.823,89z"/>
</g>
<g>
	<path fill="#FFFFFF" d="M98,105.177c3.309,0,6,2.691,6,6s-2.691,6-6,6s-6-2.691-6-6S94.691,105.177,98,105.177 M98,102.177
		c-4.971,0-9,4.029-9,9s4.029,9,9,9s9-4.029,9-9S102.971,102.177,98,102.177L98,102.177z"/>
</g>
<g>
	<path fill="#FFFFFF" d="M111.177,56c3.309,0,6,2.691,6,6s-2.691,6-6,6s-6-2.691-6-6S107.868,56,111.177,56 M111.177,53
		c-4.971,0-9,4.029-9,9c0,4.97,4.029,9,9,9s9-4.03,9-9C120.177,57.029,116.147,53,111.177,53L111.177,53z"/>
</g>
<g>
	<path fill="#FFFFFF" d="M98,42.823c3.309,0,6,2.691,6,6s-2.691,6-6,6s-6-2.691-6-6S94.691,42.823,98,42.823 M98,39.823
		c-4.971,0-9,4.029-9,9c0,4.97,4.029,9,9,9s9-4.03,9-9C107,43.853,102.971,39.823,98,39.823L98,39.823z"/>
</g>
<g>
	<path fill="#FFFFFF" d="M111.177,92c3.309,0,6,2.691,6,6s-2.691,6-6,6s-6-2.691-6-6S107.868,92,111.177,92 M111.177,89
		c-4.971,0-9,4.029-9,9s4.029,9,9,9s9-4.029,9-9S116.147,89,111.177,89L111.177,89z"/>
</g>
<g>
	<path fill="#FFFFFF" d="M62,105.177c3.309,0,6,2.691,6,6s-2.691,6-6,6s-6-2.691-6-6S58.691,105.177,62,105.177 M62,102.177
		c-4.971,0-9,4.029-9,9s4.029,9,9,9s9-4.029,9-9S66.971,102.177,62,102.177L62,102.177z"/>
</g>
<g>
	<path fill="#FFFFFF" d="M48.823,56c3.309,0,6,2.691,6,6s-2.691,6-6,6s-6-2.691-6-6S45.514,56,48.823,56 M48.823,53
		c-4.97,0-9,4.029-9,9s4.03,9,9,9c4.971,0,9-4.029,9-9S53.793,53,48.823,53L48.823,53z"/>
</g>
<g>
	<circle fill="none" cx="80" cy="80" r="27"/>
</g>
<g>
	<path fill="#FFFFFF" d="M44,74c3.309,0,6,2.691,6,6s-2.691,6-6,6s-6-2.691-6-6S40.691,74,44,74 M44,71c-4.971,0-9,4.029-9,9
		s4.029,9,9,9s9-4.029,9-9S48.971,71,44,71L44,71z"/>
</g>
<g>
	<path fill="#FFFFFF" d="M80,74c3.309,0,6,2.691,6,6s-2.691,6-6,6s-6-2.691-6-6S76.691,74,80,74 M80,71c-4.971,0-9,4.029-9,9
		s4.029,9,9,9s9-4.029,9-9S84.971,71,80,71L80,71z"/>
</g>
<g>
	<path fill="#FFFFFF" d="M80,56c3.309,0,6,2.691,6,6s-2.691,6-6,6s-6-2.691-6-6S76.691,56,80,56 M80,53c-4.971,0-9,4.029-9,9
		c0,4.97,4.029,9,9,9s9-4.03,9-9C89,57.029,84.971,53,80,53L80,53z"/>
</g>
<g>
	<path fill="#FFFFFF" d="M80,38c3.309,0,6,2.691,6,6s-2.691,6-6,6s-6-2.691-6-6S76.691,38,80,38 M80,35c-4.971,0-9,4.029-9,9
		c0,4.97,4.029,9,9,9s9-4.03,9-9C89,39.029,84.971,35,80,35L80,35z"/>
</g>
<g>
	<path fill="#FFFFFF" d="M80,20c3.309,0,6,2.691,6,6s-2.691,6-6,6s-6-2.691-6-6S76.691,20,80,20 M80,17c-4.971,0-9,4.029-9,9
		c0,4.97,4.029,9,9,9s9-4.03,9-9C89,21.029,84.971,17,80,17L80,17z"/>
</g>
<g>
	<path fill="#FFFFFF" d="M116,74c3.309,0,6,2.691,6,6s-2.691,6-6,6s-6-2.691-6-6S112.691,74,116,74 M116,71c-4.971,0-9,4.029-9,9
		s4.029,9,9,9s9-4.029,9-9S120.971,71,116,71L116,71z"/>
</g>
<g>
	<path fill="#FFFFFF" d="M80,110c3.309,0,6,2.691,6,6s-2.691,6-6,6s-6-2.691-6-6S76.691,110,80,110 M80,107c-4.971,0-9,4.029-9,9
		s4.029,9,9,9s9-4.029,9-9S84.971,107,80,107L80,107z"/>
</g>
</svg>
