<?xml version="1.0" encoding="utf-8"?>
<!-- Generator: Adobe Illustrator 16.0.4, SVG Export Plug-In . SVG Version: 6.00 Build 0)  -->
<!DOCTYPE svg PUBLIC "-//W3C//DTD SVG 1.1//EN" "http://www.w3.org/Graphics/SVG/1.1/DTD/svg11.dtd">
<svg version="1.1" id="Layer_1" xmlns="http://www.w3.org/2000/svg" xmlns:xlink="http://www.w3.org/1999/xlink" x="0px" y="0px"
	 width="247.101px" height="23px" viewBox="0 0 247.101 23" enable-background="new 0 0 247.101 23" xml:space="preserve">
<g>
	<path fill="#3699CD" d="M160.9,4c4.136,0,7.5,3.364,7.5,7.5s-3.364,7.5-7.5,7.5s-7.5-3.364-7.5-7.5S156.765,4,160.9,4 M160.9,0
		c-6.352,0-11.5,5.148-11.5,11.5S154.549,23,160.9,23s11.5-5.148,11.5-11.5S167.252,0,160.9,0L160.9,0z"/>
</g>
<g>
	<path fill="#3699CD" d="M185.801,4c4.136,0,7.5,3.364,7.5,7.5s-3.364,7.5-7.5,7.5s-7.5-3.364-7.5-7.5S181.665,4,185.801,4
		 M185.801,0c-6.352,0-11.5,5.148-11.5,11.5s5.148,11.5,11.5,11.5s11.5-5.148,11.5-11.5S192.152,0,185.801,0L185.801,0z"/>
</g>
<g>
	<path fill="#3699CD" d="M210.701,4c4.136,0,7.5,3.364,7.5,7.5s-3.364,7.5-7.5,7.5s-7.5-3.364-7.5-7.5S206.565,4,210.701,4
		 M210.701,0c-6.352,0-11.5,5.148-11.5,11.5s5.148,11.5,11.5,11.5c6.351,0,11.5-5.148,11.5-11.5S217.052,0,210.701,0L210.701,0z"/>
</g>
<g>
	<path fill="#3699CD" d="M235.601,4c4.136,0,7.5,3.364,7.5,7.5s-3.364,7.5-7.5,7.5s-7.5-3.364-7.5-7.5S231.465,4,235.601,4
		 M235.601,0c-6.351,0-11.5,5.148-11.5,11.5s5.149,11.5,11.5,11.5c6.352,0,11.5-5.148,11.5-11.5S241.952,0,235.601,0L235.601,0z"/>
</g>
<g>
	<path fill="#3699CD" d="M86.2,21c-5.238,0-9.5-4.262-9.5-9.5S80.962,2,86.2,2s9.5,4.262,9.5,9.5S91.438,21,86.2,21z"/>
	<path fill="#3699CD" d="M86.2,4c4.136,0,7.5,3.364,7.5,7.5S90.336,19,86.2,19s-7.5-3.364-7.5-7.5S82.064,4,86.2,4 M86.2,0
		c-6.351,0-11.5,5.148-11.5,11.5S79.849,23,86.2,23s11.5-5.148,11.5-11.5S92.551,0,86.2,0L86.2,0z"/>
</g>
<g>
	<path fill="#3699CD" d="M111.101,21c-5.238,0-9.5-4.262-9.5-9.5s4.262-9.5,9.5-9.5s9.5,4.262,9.5,9.5S116.339,21,111.101,21z"/>
	<path fill="#3699CD" d="M111.101,4c4.136,0,7.5,3.364,7.5,7.5s-3.364,7.5-7.5,7.5s-7.5-3.364-7.5-7.5S106.965,4,111.101,4
		 M111.101,0c-6.352,0-11.5,5.148-11.5,11.5s5.148,11.5,11.5,11.5c6.351,0,11.5-5.148,11.5-11.5S117.452,0,111.101,0L111.101,0z"/>
</g>
<g>
	<path fill="#3699CD" d="M136,21c-5.238,0-9.499-4.262-9.499-9.5S130.762,2,136,2s9.5,4.262,9.5,9.5S141.238,21,136,21z"/>
	<path fill="#3699CD" d="M136,4c4.136,0,7.5,3.364,7.5,7.5S140.136,19,136,19c-4.135,0-7.5-3.364-7.5-7.5S131.865,4,136,4 M136,0
		c-6.351,0-11.5,5.148-11.5,11.5S129.649,23,136,23c6.352,0,11.5-5.148,11.5-11.5S142.352,0,136,0L136,0z"/>
</g>
<g>
	<path fill="#3699CD" d="M11.5,21C6.262,21,2,16.738,2,11.5S6.262,2,11.5,2S21,6.262,21,11.5S16.738,21,11.5,21z"/>
	<path fill="#3699CD" d="M11.5,4c4.136,0,7.5,3.364,7.5,7.5S15.636,19,11.5,19S4,15.636,4,11.5S7.364,4,11.5,4 M11.5,0
		C5.148,0,0,5.149,0,11.5C0,17.852,5.148,23,11.5,23C17.851,23,23,17.852,23,11.5C23,5.149,17.851,0,11.5,0L11.5,0z"/>
</g>
<g>
	<path fill="#3699CD" d="M36.4,21c-5.238,0-9.5-4.262-9.5-9.5S31.162,2,36.4,2s9.5,4.262,9.5,9.5S41.639,21,36.4,21z"/>
	<path fill="#3699CD" d="M36.4,4c4.136,0,7.5,3.364,7.5,7.5S40.536,19,36.4,19s-7.5-3.364-7.5-7.5S32.265,4,36.4,4 M36.4,0
		c-6.352,0-11.5,5.149-11.5,11.5c0,6.352,5.148,11.5,11.5,11.5c6.351,0,11.5-5.148,11.5-11.5C47.9,5.149,42.751,0,36.4,0L36.4,0z"/>
</g>
<g>
	<path fill="#3699CD" d="M61.3,21c-5.238,0-9.5-4.262-9.5-9.5S56.062,2,61.3,2s9.5,4.262,9.5,9.5S66.539,21,61.3,21z"/>
	<path fill="#3699CD" d="M61.3,4c4.136,0,7.5,3.364,7.5,7.5S65.436,19,61.3,19s-7.5-3.364-7.5-7.5S57.165,4,61.3,4 M61.3,0
		c-6.352,0-11.5,5.149-11.5,11.5c0,6.352,5.148,11.5,11.5,11.5c6.351,0,11.5-5.148,11.5-11.5C72.8,5.149,67.651,0,61.3,0L61.3,0z"/>
</g>
</svg>
