<?xml version="1.0" encoding="utf-8"?>
<!-- Generator: Adobe Illustrator 16.0.4, SVG Export Plug-In . SVG Version: 6.00 Build 0)  -->
<!DOCTYPE svg PUBLIC "-//W3C//DTD SVG 1.1//EN" "http://www.w3.org/Graphics/SVG/1.1/DTD/svg11.dtd">
<svg version="1.1" id="Layer_1" xmlns="http://www.w3.org/2000/svg" xmlns:xlink="http://www.w3.org/1999/xlink" x="0px" y="0px"
	 width="160px" height="160px" viewBox="0 0 160 160" enable-background="new 0 0 160 160" xml:space="preserve">
<g>
	<path fill="#3499CD" d="M80,158c-43.009,0-78-34.99-78-78C2,36.991,36.991,2,80,2c43.01,0,78,34.991,78,78
		C158,123.01,123.01,158,80,158z"/>
	<path fill="#3499CD" d="M80,4c41.906,0,76,34.093,76,76c0,41.906-34.094,76-76,76c-41.907,0-76-34.094-76-76
		C4,38.093,38.093,4,80,4 M80,0C35.817,0,0,35.817,0,80s35.817,80,80,80s80-35.817,80-80S124.183,0,80,0L80,0z"/>
</g>
<g>
	<path fill="#FFFFFF" d="M42.65,72.5c4.135,0,7.5,3.364,7.5,7.5s-3.365,7.5-7.5,7.5c-4.136,0-7.5-3.364-7.5-7.5
		S38.514,72.5,42.65,72.5 M42.65,68.5c-6.352,0-11.5,5.148-11.5,11.5s5.148,11.5,11.5,11.5c6.351,0,11.5-5.148,11.5-11.5
		S49.001,68.5,42.65,68.5L42.65,68.5z"/>
</g>
<g>
	<path fill="#FFFFFF" d="M67.55,72.5c4.136,0,7.5,3.364,7.5,7.5s-3.364,7.5-7.5,7.5s-7.5-3.364-7.5-7.5S63.414,72.5,67.55,72.5
		 M67.55,68.5c-6.351,0-11.5,5.148-11.5,11.5s5.149,11.5,11.5,11.5c6.352,0,11.5-5.148,11.5-11.5S73.901,68.5,67.55,68.5L67.55,68.5
		z"/>
</g>
<g>
	<path fill="#FFFFFF" d="M92.45,72.5c4.136,0,7.5,3.364,7.5,7.5s-3.364,7.5-7.5,7.5s-7.5-3.364-7.5-7.5S88.314,72.5,92.45,72.5
		 M92.45,68.5c-6.352,0-11.5,5.148-11.5,11.5s5.148,11.5,11.5,11.5c6.351,0,11.5-5.148,11.5-11.5S98.801,68.5,92.45,68.5L92.45,68.5
		z"/>
</g>
<g>
	<path fill="#FFFFFF" d="M117.35,72.5c4.136,0,7.5,3.364,7.5,7.5s-3.364,7.5-7.5,7.5s-7.5-3.364-7.5-7.5S113.214,72.5,117.35,72.5
		 M117.35,68.5c-6.351,0-11.5,5.148-11.5,11.5s5.149,11.5,11.5,11.5c6.352,0,11.5-5.148,11.5-11.5S123.701,68.5,117.35,68.5
		L117.35,68.5z"/>
</g>
<g>
</g>
<g>
</g>
<g>
</g>
<g>
</g>
<g>
</g>
<g>
</g>
</svg>
