<?xml version="1.0" encoding="utf-8"?>
<!-- Generator: Adobe Illustrator 16.0.4, SVG Export Plug-In . SVG Version: 6.00 Build 0)  -->
<!DOCTYPE svg PUBLIC "-//W3C//DTD SVG 1.1//EN" "http://www.w3.org/Graphics/SVG/1.1/DTD/svg11.dtd">
<svg version="1.1" id="Layer_1" xmlns="http://www.w3.org/2000/svg" xmlns:xlink="http://www.w3.org/1999/xlink" x="0px" y="0px"
	 width="66.129px" height="122.601px" viewBox="0 0 66.129 122.601" enable-background="new 0 0 66.129 122.601"
	 xml:space="preserve">
<g>
	<path fill="#3798CD" d="M11.5,91.15c4.136,0,7.5,3.364,7.5,7.5s-3.364,7.5-7.5,7.5S4,102.786,4,98.65S7.364,91.15,11.5,91.15
		 M11.5,87.15C5.149,87.15,0,92.299,0,98.65c0,6.351,5.149,11.5,11.5,11.5c6.352,0,11.5-5.149,11.5-11.5
		C23,92.299,17.852,87.15,11.5,87.15L11.5,87.15z"/>
</g>
<g>
	<path fill="#3798CD" d="M33.064,103.601c4.136,0,7.5,3.364,7.5,7.5s-3.364,7.5-7.5,7.5s-7.5-3.364-7.5-7.5
		S28.929,103.601,33.064,103.601 M33.064,99.601c-6.352,0-11.5,5.148-11.5,11.5c0,6.351,5.148,11.5,11.5,11.5
		c6.351,0,11.5-5.149,11.5-11.5C44.564,104.749,39.415,99.601,33.064,99.601L33.064,99.601z"/>
</g>
<g>
	<path fill="#3798CD" d="M54.629,91.15c4.136,0,7.5,3.364,7.5,7.5s-3.364,7.5-7.5,7.5s-7.5-3.364-7.5-7.5S50.493,91.15,54.629,91.15
		 M54.629,87.15c-6.352,0-11.5,5.148-11.5,11.5c0,6.351,5.148,11.5,11.5,11.5c6.351,0,11.5-5.149,11.5-11.5
		C66.129,92.299,60.979,87.15,54.629,87.15L54.629,87.15z"/>
</g>
<g>
	<path fill="#3798CD" d="M54.629,66.25c4.136,0,7.5,3.364,7.5,7.5s-3.364,7.5-7.5,7.5s-7.5-3.364-7.5-7.5S50.493,66.25,54.629,66.25
		 M54.629,62.25c-6.352,0-11.5,5.148-11.5,11.5s5.148,11.5,11.5,11.5c6.351,0,11.5-5.148,11.5-11.5S60.979,62.25,54.629,62.25
		L54.629,62.25z"/>
</g>
<g>
	<path fill="#3798CD" d="M33.064,53.8c4.136,0,7.5,3.364,7.5,7.5s-3.364,7.5-7.5,7.5s-7.5-3.364-7.5-7.5S28.929,53.8,33.064,53.8
		 M33.064,49.8c-6.351,0-11.5,5.149-11.5,11.5c0,6.352,5.149,11.5,11.5,11.5c6.352,0,11.5-5.148,11.5-11.5
		C44.564,54.949,39.416,49.8,33.064,49.8L33.064,49.8z"/>
</g>
<g>
	<path fill="#3798CD" d="M11.5,41.35c4.135,0,7.5,3.364,7.5,7.5s-3.365,7.5-7.5,7.5S4,52.985,4,48.85S7.365,41.35,11.5,41.35
		 M11.5,37.35C5.149,37.35,0,42.499,0,48.85c0,6.352,5.149,11.5,11.5,11.5c6.352,0,11.5-5.148,11.5-11.5
		C23,42.499,17.852,37.35,11.5,37.35L11.5,37.35z"/>
</g>
<g>
	<path fill="#3798CD" d="M33.065,4c4.135,0,7.5,3.364,7.5,7.5S37.2,19,33.065,19s-7.5-3.364-7.5-7.5S28.93,4,33.065,4 M33.065,0
		c-6.352,0-11.5,5.148-11.5,11.5c0,6.351,5.148,11.5,11.5,11.5c6.351,0,11.5-5.149,11.5-11.5C44.564,5.148,39.416,0,33.065,0
		L33.065,0z"/>
</g>
<g>
	<path fill="#3798CD" d="M11.5,16.45c4.135,0,7.5,3.365,7.5,7.5s-3.365,7.5-7.5,7.5S4,28.085,4,23.95S7.365,16.45,11.5,16.45
		 M11.5,12.45C5.149,12.45,0,17.599,0,23.95c0,6.352,5.149,11.5,11.5,11.5c6.352,0,11.5-5.148,11.5-11.5
		C23,17.599,17.852,12.45,11.5,12.45L11.5,12.45z"/>
</g>
<g>
	<path fill="#3798CD" d="M54.629,16.45c4.136,0,7.5,3.365,7.5,7.5s-3.364,7.5-7.5,7.5s-7.5-3.365-7.5-7.5S50.493,16.45,54.629,16.45
		 M54.629,12.45c-6.352,0-11.5,5.149-11.5,11.5s5.148,11.5,11.5,11.5s11.5-5.149,11.5-11.5S60.98,12.45,54.629,12.45L54.629,12.45z"
		/>
</g>
</svg>
