<?xml version="1.0" encoding="utf-8"?>
<!-- Generator: Adobe Illustrator 16.0.4, SVG Export Plug-In . SVG Version: 6.00 Build 0)  -->
<!DOCTYPE svg PUBLIC "-//W3C//DTD SVG 1.1//EN" "http://www.w3.org/Graphics/SVG/1.1/DTD/svg11.dtd">
<svg version="1.1" id="Layer_1" xmlns="http://www.w3.org/2000/svg" xmlns:xlink="http://www.w3.org/1999/xlink" x="0px" y="0px"
	 width="86.899px" height="120.5px" viewBox="0 0 86.899 120.5" enable-background="new 0 0 86.899 120.5" xml:space="preserve">
<g>
	<path fill="#3399CC" d="M32,61.5C15.733,61.5,2.5,48.266,2.5,32S15.733,2.5,32,2.5c16.267,0,29.5,13.234,29.5,29.5
		S48.266,61.5,32,61.5z"/>
	<path fill="#3698CB" d="M32,5c14.888,0,27,12.112,27,27S46.887,59,32,59S5,46.888,5,32S17.112,5,32,5 M32,0C14.327,0,0,14.327,0,32
		c0,17.673,14.327,32,32,32s32-14.327,32-32C64,14.327,49.672,0,32,0L32,0z"/>
</g>
<g>
	<path fill="#3399CC" d="M55.382,80c-4.136,0-7.5-3.364-7.5-7.5s3.364-7.5,7.5-7.5s7.5,3.364,7.5,7.5S59.518,80,55.382,80z"/>
	<path fill="#3698CB" d="M55.382,66.5c3.309,0,6,2.691,6,6s-2.691,6-6,6s-6-2.691-6-6S52.074,66.5,55.382,66.5 M55.382,63.5
		c-4.971,0-9,4.029-9,9s4.029,9,9,9s9-4.029,9-9S60.353,63.5,55.382,63.5L55.382,63.5z"/>
</g>
<g>
	<path fill="#3399CC" d="M66.641,99.5c-4.136,0-7.5-3.364-7.5-7.5s3.364-7.5,7.5-7.5s7.5,3.364,7.5,7.5S70.777,99.5,66.641,99.5z"/>
	<path fill="#3698CB" d="M66.641,86c3.309,0,6,2.691,6,6s-2.691,6-6,6s-6-2.691-6-6S63.333,86,66.641,86 M66.641,83
		c-4.971,0-9,4.029-9,9s4.029,9,9,9s9-4.029,9-9S71.612,83,66.641,83L66.641,83z"/>
</g>
<g>
	<path fill="#3399CC" d="M77.899,119c-4.136,0-7.5-3.364-7.5-7.5s3.364-7.5,7.5-7.5s7.5,3.364,7.5,7.5S82.035,119,77.899,119z"/>
	<path fill="#3698CB" d="M77.899,105.5c3.309,0,6,2.691,6,6s-2.691,6-6,6s-6-2.691-6-6S74.59,105.5,77.899,105.5 M77.899,102.5
		c-4.97,0-9,4.029-9,9s4.03,9,9,9c4.971,0,9-4.029,9-9S82.87,102.5,77.899,102.5L77.899,102.5z"/>
</g>
<g>
</g>
<g>
</g>
<g>
</g>
<g>
</g>
<g>
</g>
<g>
</g>
</svg>
