<?xml version="1.0" encoding="utf-8"?>
<!-- Generator: Adobe Illustrator 16.0.4, SVG Export Plug-In . SVG Version: 6.00 Build 0)  -->
<!DOCTYPE svg PUBLIC "-//W3C//DTD SVG 1.1//EN" "http://www.w3.org/Graphics/SVG/1.1/DTD/svg11.dtd">
<svg version="1.1" id="Layer_1" xmlns="http://www.w3.org/2000/svg" xmlns:xlink="http://www.w3.org/1999/xlink" x="0px" y="0px"
	 width="160px" height="160px" viewBox="0 0 160 160" enable-background="new 0 0 160 160" xml:space="preserve">
<g>
	<path fill="#3498CB" d="M80,155c-41.355,0-75-33.646-75-75S38.645,5,80,5c41.355,0,75,33.645,75,75S121.355,155,80,155z"/>
	<path fill="#3498CB" d="M80,10c38.598,0,70,31.402,70,70s-31.402,70-70,70c-38.598,0-70-31.402-70-70S41.402,10,80,10 M80,0
		C35.817,0,0,35.817,0,80c0,44.182,35.817,80,80,80s80-35.818,80-80C160,35.817,124.183,0,80,0L80,0z"/>
</g>
<g>
	<path fill="#FFFFFF" d="M55.1,115.627c4.136,0,7.5,3.364,7.5,7.5s-3.364,7.5-7.5,7.5s-7.5-3.364-7.5-7.5
		S50.964,115.627,55.1,115.627 M55.1,111.627c-6.351,0-11.5,5.148-11.5,11.5s5.149,11.5,11.5,11.5s11.5-5.148,11.5-11.5
		S61.451,111.627,55.1,111.627L55.1,111.627z"/>
</g>
<g>
	<path fill="#FFFFFF" d="M104.9,115.627c4.136,0,7.5,3.364,7.5,7.5s-3.364,7.5-7.5,7.5s-7.5-3.364-7.5-7.5
		S100.765,115.627,104.9,115.627 M104.9,111.627c-6.352,0-11.5,5.148-11.5,11.5s5.148,11.5,11.5,11.5c6.351,0,11.5-5.148,11.5-11.5
		S111.251,111.627,104.9,111.627L104.9,111.627z"/>
</g>
<g>
	<path fill="#FFFFFF" d="M92.45,94.063c4.136,0,7.5,3.364,7.5,7.5s-3.364,7.5-7.5,7.5s-7.501-3.364-7.501-7.5
		S88.314,94.063,92.45,94.063 M92.45,90.063c-6.352,0-11.5,5.15-11.5,11.5c0,6.352,5.149,11.5,11.5,11.5
		c6.351,0,11.5-5.148,11.5-11.5C103.95,95.213,98.801,90.063,92.45,90.063L92.45,90.063z"/>
</g>
<g>
	<path fill="#FFFFFF" d="M67.55,94.063c4.136,0,7.5,3.364,7.5,7.5s-3.364,7.5-7.5,7.5s-7.5-3.364-7.5-7.5
		S63.414,94.063,67.55,94.063 M67.55,90.063c-6.352,0-11.5,5.15-11.5,11.5c0,6.352,5.148,11.5,11.5,11.5
		c6.351,0,11.5-5.148,11.5-11.5C79.05,95.213,73.901,90.063,67.55,90.063L67.55,90.063z"/>
</g>
<g>
	<path fill="#FFFFFF" d="M55.1,29.372c4.135,0,7.5,3.364,7.5,7.5s-3.365,7.5-7.5,7.5s-7.5-3.364-7.5-7.5S50.965,29.372,55.1,29.372
		 M55.1,25.372c-6.352,0-11.5,5.149-11.5,11.5c0,6.352,5.148,11.5,11.5,11.5c6.351,0,11.5-5.148,11.5-11.5
		C66.6,30.521,61.451,25.372,55.1,25.372L55.1,25.372z"/>
</g>
<g>
	<path fill="#FFFFFF" d="M104.9,29.372c4.136,0,7.5,3.364,7.5,7.5s-3.364,7.5-7.5,7.5s-7.5-3.364-7.5-7.5
		S100.765,29.372,104.9,29.372 M104.9,25.372c-6.352,0-11.5,5.149-11.5,11.5c0,6.352,5.148,11.5,11.5,11.5
		c6.351,0,11.5-5.148,11.5-11.5C116.4,30.521,111.251,25.372,104.9,25.372L104.9,25.372z"/>
</g>
<g>
	<path fill="#FFFFFF" d="M92.45,50.936c4.136,0,7.5,3.364,7.5,7.5s-3.364,7.5-7.5,7.5s-7.501-3.364-7.501-7.5
		S88.314,50.936,92.45,50.936 M92.45,46.936c-6.352,0-11.5,5.148-11.5,11.5c0,6.351,5.149,11.5,11.5,11.5
		c6.351,0,11.5-5.149,11.5-11.5C103.95,52.084,98.801,46.936,92.45,46.936L92.45,46.936z"/>
</g>
<g>
	<path fill="#FFFFFF" d="M67.55,50.936c4.136,0,7.5,3.364,7.5,7.5s-3.364,7.5-7.5,7.5s-7.5-3.364-7.5-7.5
		S63.414,50.936,67.55,50.936 M67.55,46.936c-6.351,0-11.5,5.148-11.5,11.5c0,6.351,5.149,11.5,11.5,11.5
		c6.352,0,11.5-5.149,11.5-11.5C79.05,52.084,73.901,46.936,67.55,46.936L67.55,46.936z"/>
</g>
<g>
	<path fill="#FFFFFF" d="M80,72.5c4.136,0,7.5,3.364,7.5,7.5c0,4.136-3.364,7.5-7.5,7.5s-7.5-3.364-7.5-7.5
		C72.5,75.864,75.864,72.5,80,72.5 M80,68.5c-6.352,0-11.5,5.148-11.5,11.5c0,6.352,5.148,11.5,11.5,11.5S91.5,86.352,91.5,80
		C91.5,73.648,86.352,68.5,80,68.5L80,68.5z"/>
</g>
</svg>
