<?xml version="1.0" encoding="utf-8"?>
<!-- Generator: Adobe Illustrator 16.0.4, SVG Export Plug-In . SVG Version: 6.00 Build 0)  -->
<!DOCTYPE svg PUBLIC "-//W3C//DTD SVG 1.1//EN" "http://www.w3.org/Graphics/SVG/1.1/DTD/svg11.dtd">
<svg version="1.1" id="Layer_1" xmlns="http://www.w3.org/2000/svg" xmlns:xlink="http://www.w3.org/1999/xlink" x="0px" y="0px"
	 width="72.8px" height="109.256px" viewBox="0 0 72.8 109.256" enable-background="new 0 0 72.8 109.256" xml:space="preserve">
<g>
	<path fill="#3798CD" d="M11.5,90.256c4.135,0,7.5,3.364,7.5,7.5s-3.365,7.5-7.5,7.5s-7.5-3.364-7.5-7.5S7.365,90.256,11.5,90.256
		 M11.5,86.256c-6.351,0-11.5,5.148-11.5,11.5s5.149,11.5,11.5,11.5s11.5-5.148,11.5-11.5S17.851,86.256,11.5,86.256L11.5,86.256z"
		/>
</g>
<g>
	<path fill="#3798CD" d="M61.3,90.256c4.136,0,7.5,3.364,7.5,7.5s-3.364,7.5-7.5,7.5s-7.5-3.364-7.5-7.5S57.165,90.256,61.3,90.256
		 M61.3,86.256c-6.352,0-11.5,5.148-11.5,11.5s5.148,11.5,11.5,11.5s11.5-5.148,11.5-11.5S67.652,86.256,61.3,86.256L61.3,86.256z"
		/>
</g>
<g>
	<path fill="#3798CD" d="M48.85,68.692c4.136,0,7.5,3.364,7.5,7.5s-3.364,7.5-7.5,7.5s-7.5-3.364-7.5-7.5
		S44.714,68.692,48.85,68.692 M48.85,64.692c-6.352,0-11.5,5.149-11.5,11.5c0,6.352,5.148,11.5,11.5,11.5s11.5-5.148,11.5-11.5
		C60.35,69.841,55.202,64.692,48.85,64.692L48.85,64.692z"/>
</g>
<g>
	<path fill="#3798CD" d="M23.95,68.692c4.135,0,7.5,3.364,7.5,7.5s-3.365,7.5-7.5,7.5s-7.5-3.364-7.5-7.5
		S19.815,68.692,23.95,68.692 M23.95,64.692c-6.352,0-11.5,5.149-11.5,11.5c0,6.352,5.148,11.5,11.5,11.5
		c6.351,0,11.5-5.148,11.5-11.5C35.45,69.841,30.301,64.692,23.95,64.692L23.95,64.692z"/>
</g>
<g>
	<path fill="#3798CD" d="M11.5,4c4.136,0,7.5,3.365,7.5,7.5S15.636,19,11.5,19S4,15.635,4,11.5S7.365,4,11.5,4 M11.5,0
		C5.149,0,0,5.149,0,11.5C0,17.852,5.149,23,11.5,23C17.852,23,23,17.852,23,11.5C23,5.149,17.852,0,11.5,0L11.5,0z"/>
</g>
<g>
	<path fill="#3798CD" d="M61.3,4c4.136,0,7.5,3.365,7.5,7.5S65.436,19,61.3,19s-7.5-3.365-7.5-7.5S57.165,4,61.3,4 M61.3,0
		C54.95,0,49.8,5.149,49.8,11.5c0,6.352,5.149,11.5,11.5,11.5c6.352,0,11.5-5.148,11.5-11.5C72.8,5.149,67.652,0,61.3,0L61.3,0z"/>
</g>
<g>
	<path fill="#3798CD" d="M48.85,25.564c4.136,0,7.5,3.365,7.5,7.5s-3.364,7.5-7.5,7.5s-7.5-3.365-7.5-7.5
		S44.714,25.564,48.85,25.564 M48.85,21.564c-6.352,0-11.5,5.148-11.5,11.5c0,6.351,5.148,11.5,11.5,11.5s11.5-5.149,11.5-11.5
		C60.35,26.713,55.202,21.564,48.85,21.564L48.85,21.564z"/>
</g>
<g>
	<path fill="#3798CD" d="M23.95,25.564c4.135,0,7.5,3.365,7.5,7.5s-3.365,7.5-7.5,7.5s-7.5-3.365-7.5-7.5
		S19.815,25.564,23.95,25.564 M23.95,21.564c-6.351,0-11.5,5.148-11.5,11.5c0,6.351,5.149,11.5,11.5,11.5
		c6.352,0,11.5-5.149,11.5-11.5C35.45,26.713,30.302,21.564,23.95,21.564L23.95,21.564z"/>
</g>
<g>
	<path fill="#3798CD" d="M36.4,47.128c4.135,0,7.5,3.364,7.5,7.5s-3.364,7.5-7.5,7.5s-7.5-3.364-7.5-7.5S32.265,47.128,36.4,47.128
		 M36.4,43.128c-6.352,0-11.5,5.148-11.5,11.5s5.148,11.5,11.5,11.5c6.351,0,11.5-5.148,11.5-11.5S42.751,43.128,36.4,43.128
		L36.4,43.128z"/>
</g>
</svg>
